<?xml version="1.0" encoding="UTF-8"?>
<svg width="125px" height="102px" viewBox="0 0 125 102" version="1.1" xmlns="http://www.w3.org/2000/svg" xmlns:xlink="http://www.w3.org/1999/xlink">
    <!-- Generator: Sketch 51.2 (57519) - http://www.bohemiancoding.com/sketch -->
    <title>Group 34</title>
    <desc>Created with Sketch.</desc>
    <defs>
        <path d="M5.766,18.005 C-4.148,32.591 -0.717,55.039 16.036,60.508 C22.555,62.636 29.326,63.994 35.751,64 L35.846,64 C45.897,63.987 55.095,60.655 61.131,51.772 C71.046,37.184 62.641,20.973 46.753,7.248 C41.419,2.639 36.166,0.693 31.163,0.694 C21.265,0.695 12.352,8.315 5.766,18.005" id="path-1"></path>
        <linearGradient x1="73.985742%" y1="13.5097513%" x2="32.8811306%" y2="85.8133827%" id="linearGradient-3">
            <stop stop-color="#FFA32F" offset="0%"></stop>
            <stop stop-color="#EF7279" offset="100%"></stop>
        </linearGradient>
        <path d="M56.797,0.297 C35.378,0.364 15.217,15.381 5.301,36.916 C-12.213,74.951 19.809,105.798 47.678,99.79 C74.624,93.981 100.111,83.918 103.609,56.527 C107.108,29.135 92.385,7.304 67.289,1.483 C63.881,0.692 60.465,0.308 57.082,0.297 L56.797,0.297 Z" id="path-4"></path>
        <linearGradient x1="17.4458743%" y1="12.84713%" x2="82.9481894%" y2="90.6569104%" id="linearGradient-6">
            <stop stop-color="#57F0FF" offset="0%"></stop>
            <stop stop-color="#42A1FF" offset="100%"></stop>
        </linearGradient>
        <polygon id="path-7" points="0.0991049263 0.204075802 8.305 0.204075802 8.305 8.74291045 0.0991049263 8.74291045"></polygon>
        <polygon id="path-9" points="0 0.595 2.5294 0.595 2.5294 3.124 0 3.124"></polygon>
        <path d="M23.462,0.529 C10.549,0.897 0.38,11.662 0.748,24.575 C1.116,37.488 11.883,47.657 24.794,47.288 C37.708,46.919 47.876,36.154 47.508,23.241 C47.146,10.556 36.748,0.519 24.141,0.519 C23.915,0.519 23.688,0.523 23.462,0.529" id="path-11"></path>
        <linearGradient x1="28.6926886%" y1="6.26287228%" x2="69.3088893%" y2="89.6340915%" id="linearGradient-13">
            <stop stop-color="#FFFFFF" offset="0%"></stop>
            <stop stop-color="#BDD4FF" offset="100%"></stop>
        </linearGradient>
        <path d="M54.295,1.776 C49.585,4.797 44.027,6.619 38.037,6.789 C32.048,6.96 26.394,5.458 21.521,2.71 C18.42,0.962 14.621,0.924 11.658,2.895 C4.545,7.625 -0.033,15.82 0.268,24.995 C0.344,27.294 2.338,29.079 4.637,29.014 L72.65,27.073 C74.949,27.008 76.839,25.111 76.782,22.813 C76.56,13.635 71.523,5.715 64.152,1.398 C62.746,0.575 61.19,0.181 59.628,0.181 C57.778,0.181 55.919,0.733 54.295,1.776" id="path-14"></path>
        <linearGradient x1="15.1543833%" y1="7.3826841%" x2="86.151203%" y2="118.360005%" id="linearGradient-16">
            <stop stop-color="#9C95FF" offset="0%"></stop>
            <stop stop-color="#756DE8" offset="100%"></stop>
        </linearGradient>
        <path d="M0.35,0.91 C2.352,4.222 5.976,6.444 10.128,6.444 C14.28,6.444 17.905,4.222 19.907,0.91 L0.35,0.91 Z" id="path-17"></path>
        <linearGradient x1="49.9975911%" y1="99.9984189%" x2="49.9975911%" y2="-0.00923924828%" id="linearGradient-19">
            <stop stop-color="#93C8FF" offset="0%"></stop>
            <stop stop-color="#5DA3FF" offset="100%"></stop>
        </linearGradient>
        <path d="M0.784,18.172 C0.784,27.783 8.575,35.574 18.187,35.574 C27.799,35.574 35.59,27.783 35.59,18.172 C35.59,8.561 27.799,0.769 18.187,0.769 C8.575,0.769 0.784,8.561 0.784,18.172" id="path-20"></path>
        <linearGradient x1="24.1822074%" y1="14.3473748%" x2="84.5166325%" y2="97.6687367%" id="linearGradient-22">
            <stop stop-color="#57F07B" offset="0%"></stop>
            <stop stop-color="#15CD6E" offset="100%"></stop>
        </linearGradient>
    </defs>
    <g id="Page-1" stroke="none" stroke-width="1" fill="none" fill-rule="evenodd">
        <g id="general-homepage-v3" transform="translate(-358.000000, -4134.000000)">
            <g id="Group-34" transform="translate(358.000000, 4133.000000)">
                <g id="Group-3" transform="translate(47.000000, 38.703000)">
                    <mask id="mask-2" fill="white">
                        <use xlink:href="#path-1"></use>
                    </mask>
                    <g id="Clip-2"></g>
                    <path d="M5.766,18.005 C-4.148,32.591 -0.717,55.039 16.036,60.508 C22.555,62.636 29.326,63.994 35.751,64 L35.846,64 C45.897,63.987 55.095,60.655 61.131,51.772 C71.046,37.184 62.641,20.973 46.753,7.248 C41.419,2.639 36.166,0.693 31.163,0.694 C21.265,0.695 12.352,8.315 5.766,18.005" id="Fill-1" fill="url(#linearGradient-3)" mask="url(#mask-2)"></path>
                </g>
                <g id="Group-6" transform="translate(14.000000, 0.703000)">
                    <mask id="mask-5" fill="white">
                        <use xlink:href="#path-4"></use>
                    </mask>
                    <g id="Clip-5"></g>
                    <path d="M56.797,0.297 C35.378,0.364 15.217,15.381 5.301,36.916 C-12.213,74.951 19.809,105.798 47.678,99.79 C74.624,93.981 100.111,83.918 103.609,56.527 C107.108,29.135 92.385,7.304 67.289,1.483 C63.881,0.692 60.465,0.308 57.082,0.297 L56.797,0.297 Z" id="Fill-4" fill="url(#linearGradient-6)" mask="url(#mask-5)"></path>
                </g>
                <g id="Group-19" transform="translate(0.000000, 20.703000)">
                    <g id="Group-9" transform="translate(116.000000, 0.000000)">
                        <mask id="mask-8" fill="white">
                            <use xlink:href="#path-7"></use>
                        </mask>
                        <g id="Clip-8"></g>
                        <path d="M2.5486,5.3753 L6.0666,6.8123 C6.3576,6.9303 6.6656,6.6863 6.6156,6.3753 L6.0186,2.6453 C5.9706,2.3423 5.6146,2.2023 5.3736,2.3923 L2.4526,4.6873 C2.2096,4.8773 2.2626,5.2593 2.5486,5.3753 M6.6336,8.6503 L0.8506,6.2773 C-0.0104,5.9253 -0.1674,4.7733 0.5666,4.2023 L5.3726,0.4603 C6.0986,-0.1047 7.1666,0.3153 7.3116,1.2253 L8.2896,7.3393 C8.4386,8.2723 7.5086,9.0093 6.6336,8.6503" id="Fill-7" fill="#766DE8" mask="url(#mask-8)"></path>
                    </g>
                    <g id="Group-12" transform="translate(0.000000, 11.000000)">
                        <mask id="mask-10" fill="white">
                            <use xlink:href="#path-9"></use>
                        </mask>
                        <g id="Clip-11"></g>
                        <path d="M1.2644,0.595 C1.9634,0.595 2.5294,1.16 2.5294,1.86 C2.5294,2.558 1.9634,3.124 1.2644,3.124 C0.5664,3.124 -0.0006,2.558 -0.0006,1.86 C-0.0006,1.16 0.5664,0.595 1.2644,0.595" id="Fill-10" fill="#F7CF06" mask="url(#mask-10)"></path>
                    </g>
                    <path d="M12.4705,3.596 L11.6275,5.956 C11.3935,6.611 10.5375,6.765 10.0915,6.233 L8.4165,4.241 C7.9635,3.7 8.2775,2.873 8.9755,2.771 L11.4925,2.403 C12.1645,2.305 12.6985,2.957 12.4705,3.596" id="Fill-13" fill="#4FDC6F"></path>
                    <path d="M107.0056,17.1107 C107.8806,17.7857 108.0426,19.0417 107.3676,19.9157 C106.6926,20.7907 105.4366,20.9527 104.5616,20.2777 C103.6876,19.6027 103.5256,18.3457 104.2006,17.4717 C104.8756,16.5977 106.1306,16.4357 107.0056,17.1107" id="Fill-15" fill="#F7CF06"></path>
                    <path d="M28.8391,16.054 C27.7351,16.054 26.8391,16.95 26.8391,18.054 C26.8391,19.158 27.7351,20.054 28.8391,20.054 C29.9441,20.054 30.8391,19.158 30.8391,18.054 C30.8391,16.95 29.9441,16.054 28.8391,16.054 M28.8391,22.124 C26.6301,22.124 24.8391,20.333 24.8391,18.124 C24.8391,15.914 26.6301,14.124 28.8391,14.124 C31.0481,14.124 32.8391,15.914 32.8391,18.124 C32.8391,20.333 31.0481,22.124 28.8391,22.124" id="Fill-17" fill="#F37C6A"></path>
                </g>
                <g id="Group-22" transform="translate(42.000000, 5.703000)">
                    <mask id="mask-12" fill="white">
                        <use xlink:href="#path-11"></use>
                    </mask>
                    <g id="Clip-21"></g>
                    <path d="M23.462,0.529 C10.549,0.897 0.38,11.662 0.748,24.575 C1.116,37.488 11.883,47.657 24.794,47.288 C37.708,46.919 47.876,36.154 47.508,23.241 C47.146,10.556 36.748,0.519 24.141,0.519 C23.915,0.519 23.688,0.523 23.462,0.529" id="Fill-20" fill="url(#linearGradient-13)" mask="url(#mask-12)"></path>
                </g>
                <g id="Group-25" transform="translate(29.000000, 54.703000)">
                    <mask id="mask-15" fill="white">
                        <use xlink:href="#path-14"></use>
                    </mask>
                    <g id="Clip-24"></g>
                    <path d="M54.295,1.776 C49.585,4.797 44.027,6.619 38.037,6.789 C32.048,6.96 26.394,5.458 21.521,2.71 C18.42,0.962 14.621,0.924 11.658,2.895 C4.545,7.625 -0.033,15.82 0.268,24.995 C0.344,27.294 2.338,29.079 4.637,29.014 L72.65,27.073 C74.949,27.008 76.839,25.111 76.782,22.813 C76.56,13.635 71.523,5.715 64.152,1.398 C62.746,0.575 61.19,0.181 59.628,0.181 C57.778,0.181 55.919,0.733 54.295,1.776" id="Fill-23" fill="url(#linearGradient-16)" mask="url(#mask-15)"></path>
                </g>
                <g id="Group-28" transform="translate(56.000000, 39.703000)">
                    <mask id="mask-18" fill="white">
                        <use xlink:href="#path-17"></use>
                    </mask>
                    <g id="Clip-27"></g>
                    <path d="M0.35,0.91 C2.352,4.222 5.976,6.444 10.128,6.444 C14.28,6.444 17.905,4.222 19.907,0.91 L0.35,0.91 Z" id="Fill-26" fill="url(#linearGradient-19)" mask="url(#mask-18)"></path>
                </g>
                <g id="Group-31" transform="translate(16.000000, 64.703000)">
                    <mask id="mask-21" fill="white">
                        <use xlink:href="#path-20"></use>
                    </mask>
                    <g id="Clip-30"></g>
                    <path d="M0.784,18.172 C0.784,27.783 8.575,35.574 18.187,35.574 C27.799,35.574 35.59,27.783 35.59,18.172 C35.59,8.561 27.799,0.769 18.187,0.769 C8.575,0.769 0.784,8.561 0.784,18.172" id="Fill-29" fill="url(#linearGradient-22)" mask="url(#mask-21)"></path>
                </g>
                <path d="M41.1892,77.9699 C40.8022,77.5829 40.1752,77.5829 39.7882,77.9699 L32.0842,85.6739 L28.5852,82.1759 C28.1982,81.7889 27.5712,81.7889 27.1852,82.1759 C26.7972,82.5639 26.7972,83.1909 27.1852,83.5769 L31.3872,87.7799 C31.7742,88.1659 32.4012,88.1659 32.7882,87.7799 L41.1892,79.3709 C41.5762,78.9839 41.5762,78.3569 41.1892,77.9699" id="Fill-32" fill="#FFFFFF"></path>
            </g>
        </g>
    </g>
</svg>