<?xml version="1.0" encoding="utf-8"?>
<!-- Generator: Adobe Illustrator 22.0.1, SVG Export Plug-In . SVG Version: 6.00 Build 0)  -->
<svg version="1.1" id="Layer_1" xmlns="http://www.w3.org/2000/svg" xmlns:xlink="http://www.w3.org/1999/xlink" x="0px" y="0px"
	 viewBox="0 0 24 24" style="enable-background:new 0 0 24 24;" xml:space="preserve">
<style type="text/css">
	.st0{fill:#FFFFFF;}
</style>
<g>
	<path id="facebook-copy-a" class="st0" d="M9,5.1c0,0.6,0,3.1,0,3.1H6.8V12H9v11.3h4.7V12h3.1c0,0,0.3-1.8,0.4-3.8
		c-0.4,0-3.5,0-3.5,0s0-2.2,0-2.6c0-0.4,0.5-0.9,1-0.9c0.5,0,1.6,0,2.5,0c0-0.5,0-2.3,0-3.9c-1.3,0-2.8,0-3.5,0C8.9,0.7,9,4.5,9,5.1
		z"/>
</g>
</svg>
