<svg xmlns="http://www.w3.org/2000/svg" width="358" height="289" viewBox="0 0 358 289">
  <g fill="none" fill-rule="evenodd">
    <polygon fill="#E5EDFF" points="31.658 141.696 28 149.545 36.5 148.848 41.342 156 45 148.152 40.158 141"/>
    <polygon fill="#E5EDFF" points="166.038 19.671 157 38.507 178 36.836 189.962 54 199 35.164 187.037 18"/>
    <polygon fill="#E5EDFF" points="152.582 112.713 133 154.571 178.5 150.857 204.418 189 224 147.143 198.081 109"/>
    <polygon fill="#387DFF" points="252.531 204.393 245 220.089 262.5 218.696 272.469 233 280 217.304 270.031 203"/>
    <polygon fill="#4FCEFF" points="262.126 68.414 249 95.621 279.5 93.207 296.874 118 310 90.793 292.626 66"/>
    <polygon fill="#766DE8" points="66.405 198.089 55 221.634 81.5 219.544 96.595 241 108 217.455 92.904 196"/>
  </g>
</svg>
