<svg xmlns="http://www.w3.org/2000/svg" width="358" height="289" viewBox="0 0 358 289">
  <g fill="none" fill-rule="evenodd">
    <polygon fill="#387DFF" points="196.075 60.388 178 98.584 220 95.194 243.925 130 262 91.805 238.075 57"/>
    <polygon fill="#4FCEFF" points="69.886 101.3 63 115.95 79 114.65 88.114 128 95 113.35 85.886 100"/>
    <polygon fill="#E5EDFF" points="172.455 130.207 166 143.811 181 142.603 189.545 155 196 141.396 187.455 129"/>
    <polygon fill="#E5EDFF" points="337.658 58.696 334 66.545 342.5 65.848 347.342 73 351 65.152 346.158 58"/>
    <polygon fill="#E5EDFF" points="320.658 251.696 317 259.545 325.5 258.848 330.342 266 334 258.152 329.158 251"/>
    <polygon fill="#E5EDFF" points="148.038 5.671 139 24.507 160 22.836 171.962 40 181 21.164 169.037 4"/>
    <polygon fill="#E5EDFF" points="240.759 160.042 230 183.064 255 181.021 269.241 202 280 178.979 265.759 158"/>
    <polygon fill="#766DE8" points="106.038 204.671 97 223.507 118 221.836 129.962 239 139 220.164 127.037 203"/>
  </g>
</svg>
