<?xml version="1.0" encoding="utf-8"?>
<!-- Generator: Adobe Illustrator 22.0.1, SVG Export Plug-In . SVG Version: 6.00 Build 0)  -->
<svg version="1.1" id="Layer_1" xmlns="http://www.w3.org/2000/svg" xmlns:xlink="http://www.w3.org/1999/xlink" x="0px" y="0px"
	 viewBox="0 0 1920 858" style="enable-background:new 0 0 1920 858;" xml:space="preserve">
<style type="text/css">
	.st0{fill:#F5FAFE;}
	.st1{fill:#ABCAFF;}
	.st2{fill:url(#SVGID_1_);}
	.st3{fill:url(#SVGID_2_);}
	.st4{fill:url(#SVGID_3_);}
	.st5{fill:#EEF5FF;}
	.st6{fill:#CFE0FF;}
	.st7{fill:#B9CFFF;}
	.st8{fill:#DEEBFF;}
	.st9{fill:#8DBBFF;}
	.st10{fill:url(#SVGID_4_);}
	.st11{fill:#6CA4FF;}
	.st12{fill:#387DFF;}
	.st13{opacity:0.3;fill:#350F2E;enable-background:new    ;}
</style>
<polygon class="st0" points="0,0 0,0 617.7,0 0,0 0,858 1920,858 1920,0 "/>
<path class="st1" d="M1474.8,0c-5.7,3.7-11.6,11-16.1,17.6c-20.5,30.3-39,64.5-60.4,93.1c-11.2,15-26.1,24.5-40.3,31.2
	c-22.2,10.6-45.6,14.6-67.7,25.7c-9.2,4.6-18.4,17.6-24.3,30.8c-25.2,56.8-46.1,119.6-74.5,171.6c-32.4,59.4-71.1,109.6-106.9,164
	c-3,4.5-5.4,9.9-11.9,22.1c284.8,0,565.1,0,847.2,0V0.1L1474.8,0z"/>
<linearGradient id="SVGID_1_" gradientUnits="userSpaceOnUse" x1="742.1001" y1="648.7842" x2="1920.0001" y2="648.7842" gradientTransform="matrix(1 0 0 1 0 -222)">
	<stop  offset="1.021635e-03" style="stop-color:#E6F0FF"/>
	<stop  offset="1" style="stop-color:#ABCAFF"/>
</linearGradient>
<path class="st2" d="M1793.4,519.9c-35.7-52-62-114.8-93.8-171.6c-7.4-13.2-18.9-26.2-30.5-30.8c-27.8-11-57.2-15.1-85.2-25.7
	c-17.8-6.7-36.7-16.2-50.7-31.2c-26.8-28.6-50.1-62.8-76-93.1c-8.2-9.6-20.2-20.7-30.1-20c-41.7,2.8-83.5,7.2-124.7,15.9
	c-32.7,6.9-64.3,21.9-96.7,31.6c-24.1,7.2-46,16.5-60.3,45.9c-11.9,24.6-28.2,46.1-38.3,71.8c-17.8,45-49.4,61.6-82.5,77.4
	c-43.7,20.9-87.6,41-130.9,63.3c-8.6,4.4-15.6,16.2-21.6,26.3c-40.7,67.2-81,134.7-121.2,202.4c-3.2,5.4-4.7,12.5-8.8,24
	c393,0,782.2,0,1177.9,0v-31.7C1877.2,623.6,1831.8,575.8,1793.4,519.9z"/>
<linearGradient id="SVGID_2_" gradientUnits="userSpaceOnUse" x1="0" y1="496.2" x2="638.6" y2="496.2" gradientTransform="matrix(1 0 0 1 0 -222)">
	<stop  offset="1.021635e-03" style="stop-color:#E6F0FF"/>
	<stop  offset="1" style="stop-color:#ABCAFF"/>
</linearGradient>
<path class="st3" d="M629.7,524.4c-40.2-67.6-80.5-135.2-121.2-202.4c-6.1-10.1-13.1-21.8-21.6-26.3
	c-43.3-22.3-87.2-42.5-130.9-63.3c-33.1-15.8-64.8-32.4-82.5-77.4c-10.1-25.7-26.4-47.2-38.3-71.8C220.9,54,199,44.7,174.9,37.4
	c-32.4-9.7-64-24.7-96.7-31.6C67.8,3.6,57.4,1.7,47,0H0v548.4c213,0,425,0,638.6,0C634.4,536.9,632.9,529.8,629.7,524.4z"/>
<linearGradient id="SVGID_3_" gradientUnits="userSpaceOnUse" x1="120.2" y1="564.489" x2="708.6" y2="564.489" gradientTransform="matrix(1 0 0 1 0 -222)">
	<stop  offset="1.021635e-03" style="stop-color:#E6F0FF"/>
	<stop  offset="1" style="stop-color:#EBF3FF"/>
</linearGradient>
<path class="st4" d="M120.2,547.2c196.3,0,390.6,0,588.4,0c-4-9-5.5-12.9-7.3-16.2c-22.1-39.8-46-76.6-66-120.2
	c-17.5-38.1-30.4-84.2-46-125.8c-3.6-9.6-9.3-19.2-15-22.5c-13.6-8.1-28-11.1-41.7-18.8c-8.7-4.9-18-11.9-24.9-22.9
	c-13.2-21-24.5-46.1-37.2-68.3c-4-7.1-9.9-15.2-14.7-14.7c-20.4,2-40.9,5.3-61.1,11.7c-16,5.1-31.5,16-47.4,23.2
	c-11.8,5.3-22.5,12.1-29.5,33.6c-5.9,18.1-13.8,33.8-18.8,52.6c-8.7,32.9-24.2,45.1-40.4,56.7c-21.4,15.3-42.9,30.1-64.1,46.4
	c-4.2,3.2-7.6,11.9-10.6,19.3c-19.9,49.2-39.7,98.7-59.4,148.3C123,533.6,122.3,538.8,120.2,547.2z"/>
<polygon class="st5" points="0,857.9 1920,857.9 1920,541.5 0,547.2 "/>
<path class="st6" d="M382,0c1.5,183.7,2.3,438.3-2.3,583.6h92.9L463.1,0H382z"/>
<path class="st5" d="M243,582.2V858h1437.2V616.7C1063.1,497.4,243,582.2,243,582.2z"/>
<path class="st7" d="M1201.4,0.1h-7.9c-14.4,44.8-33.1,72.7-43.2,85.6c-2.3,2.9-6.9,1.3-7-2.3L1141.7,0h-51.2
	c-5.3,156.9-10.2,420.5-10.2,857.9h77.6l-14-739.2c-0.1-3.5,1.4-6.9,4-9.1C1170.6,89.8,1184.4,40.7,1201.4,0.1z"/>
<path class="st7" d="M43.8,0c-5.1,158.4-9.7,419.2-9.7,843.8h77.6L95.8,0H43.8z"/>
<path class="st8" d="M0,651.3v155l1033-51.6V657C683.8,629.8,0,651.3,0,651.3z"/>
<path class="st6" d="M472.6,563.5c0.7,17.7-80.1,18.7-91.5,12.7c-11.5-6,14.2-25.7,14.2-25.7L472.6,563.5z"/>
<path class="st9" d="M220.9,0c-4.1,358.6-32.2,771.5-32.2,771.5l16.6,17.4L400.1,734c-29.2-186.8-45.3-515.5-53.2-734H220.9z"/>
<path class="st9" d="M1639.2,319L1639.2,319L1639.2,319c0,0,98.3-157.1,103.7-319h-0.1c-3.6,0-6.3,0-6.3,0
	c-18.6,123.2-68,203.8-88.7,233.2c-2.9,4.2-9.5,2.1-9.6-3c-0.7-79-0.8-158.4,0.3-230.2h-48.2l-59,696.9l117.8,20.1
	C1649.1,717.1,1642.4,530.7,1639.2,319L1639.2,319z"/>
<path class="st9" d="M1639.2,319L1639.2,319L1639.2,319z"/>
<linearGradient id="SVGID_4_" gradientUnits="userSpaceOnUse" x1="960" y1="1080" x2="960" y2="873.4326" gradientTransform="matrix(1 0 0 1 0 -222)">
	<stop  offset="0" style="stop-color:#F8FBFF"/>
	<stop  offset="1" style="stop-color:#EEF5FF"/>
</linearGradient>
<path class="st10" d="M1669.5,702c-211.4-50.2-468.7-50.2-468.7-50.2C959.4,643.1,0,791.8,0,791.8V858h1920v-95.3
	C1915.8,761.6,1849.5,744.7,1669.5,702z"/>
<path class="st11" d="M1300.3,0c-11.1,298.2-26.1,705.8-25.9,716.9c116.9,11.8,205.1,2.4,205.1,2.4s-42.3-364-47.7-719.3L1300.3,0
	L1300.3,0z"/>
<path class="st6" d="M1856.6,591.9c0,0-6.4,5.8,3.1,8.5s17.3,0.1,17.4-4.9C1877.1,590.6,1864.1,587.5,1856.6,591.9z"/>
<path class="st6" d="M280.1,765c-3.5,0.9-6.4,3.4-7.3,6.8c-0.8,2.9-0.2,6.3,6.2,7.2c12.5,1.9,22,0.7,22-6.2
	C301,767.1,289.2,762.7,280.1,765z"/>
<path class="st6" d="M1231.4,798.3c-3.5,0.9-6.4,3.4-7.3,6.8c-0.8,2.9-0.2,6.3,6.2,7.2c12.5,1.9,22,0.7,22-6.2
	C1252.3,800.3,1240.5,795.9,1231.4,798.3z"/>
<path class="st6" d="M331,768.1c-5.3,1.5-9.6,5.5-11,10.8c-1.2,4.5-0.2,9.5,9.4,10.2c20.2,1.5,31.8,0.1,31.8-10.1
	C361.2,770.3,344.5,764.4,331,768.1z"/>
<path class="st6" d="M828.3,772.9c-6.5-3.4-18.8,0.3-23,4.3c-9.5,9.1,24,8.9,26.6,8C834.5,784.4,834.9,776.3,828.3,772.9z"/>
<path class="st6" d="M331.3,751.5c-6.5-1.4-18.8,0.1-23,1.7c-9.5,3.7,24,3.6,26.6,3.2C337.5,756.1,337.8,752.9,331.3,751.5z"/>
<path class="st7" d="M466.5,571c-0.1-0.3-9.2-31.7-13.1-117.5c-3.1-66.6-1.9-144-0.8-212.4c0.3-20.1,0.6-39.1,0.8-56.3
	c0.3-36.6-3.8-70.4-7.5-100.3c-3.9-31.7-7.2-59.2-5.2-84.5l1,0.1c-2,25.3,1.3,52.7,5.2,84.3c3.7,29.9,7.8,63.8,7.5,100.4
	c-0.2,17.2-0.5,36.2-0.8,56.3c-1.1,68.3-2.3,145.8,0.8,212.3c3.9,85.6,13,116.9,13.1,117.2L466.5,571z"/>
<path class="st7" d="M411.3,579.6l-1-0.1c0.1-0.6,5.7-58.4,0.4-152.8c-2.4-43.8,7-86.5,16.1-127.8c10.8-48.8,21.9-99.3,13.3-151.4
	C427.5,71.5,427.2,17.8,428.7,0l1,0.1c-1.6,17.7-1.2,71.3,11.4,147.3c8.7,52.2-2.5,102.8-13.3,151.7c-9.1,41.3-18.5,83.9-16.1,127.6
	C417,521.1,411.4,579,411.3,579.6z"/>
<path class="st7" d="M381.2,546h-1c1.8-81.8,17.7-213.7,26.2-284.5c1.7-14.2,3.1-25.4,3.9-33.3c2.6-23.5-1-64.6-4.8-108.1
	c-3.8-43.3-7.8-88.1-6-120l1,0.1c-1.8,31.8,2.1,76.6,6,119.8c3.8,43.6,7.5,84.7,4.8,108.3c-0.9,7.9-2.2,19.1-3.9,33.3
	C398.8,332.4,382.9,464.2,381.2,546z"/>
<path class="st6" d="M1847.7,795c-6.5-1.4-18.8,0.1-23,1.7c-9.5,3.7,24,3.6,26.6,3.2C1853.9,799.6,1854.2,796.4,1847.7,795z"/>
<path class="st11" d="M1917.6,0c-12.8,38.1-39.5,47.5-39.5,47.5L1876.9,0h-7.9c0,113.2-51,171.9-51,171.9v36.8
	c39.8-46.5,58.2-138.2,58.2-138.2c22.3-15,34.6-32.3,43.8-62.2V0H1917.6z"/>
<path class="st9" d="M1827.2,531.1c0,0,0.4-0.3,0.2-1.8c-0.2-1-0.8-2.6-2.2-4.3c1.5-2.3,3.1-4.5,5-6.7
	c10.2-11.7,31.9-25.9,31.9-25.9s-2.2,8.5-3.8,16c-0.9,0.1-1.7,0.2-2.2,0.4c-2.4,0.7-2.7,1.2-2.7,1.2s1.9-0.3,4.7-0.4
	c-0.4,2.2-0.8,4.2-1,5.9c-1,7.6-2.1,22.2-8.6,31s-26.8,27.7-26.8,27.7s-6.4-12.5-5.7-22.3c0.5-7.4,2.8-16.5,8.1-25.3
	C1826.3,529,1827.2,531.1,1827.2,531.1z"/>
<path class="st6" d="M1822.2,574.3c0-0.2,5-19.2,8.9-31.1c5-15.1,16.5-32.1,16.6-32.2c0,0-12.7,16.8-17.8,31.9
	c-4,11.9-8.9,31-9,31.1L1822.2,574.3z"/>
<path class="st9" d="M1858.7,546c-0.1,0.1-0.2,0.3-0.3,0.4c-1.3,1.5-1.8,1.6-1.8,1.6s0.5-0.8,1.2-2c-3.4,0-6.8,0.4-9.8,1.4
	c-13.6,4.4-19.9,15.3-22.6,18.5s-4.3,11.4-4.3,11.4s16.2-2.2,29.4-7.3c1.3-0.5,2.7-1.1,3.9-1.7c-0.4-0.8-0.9-1.7-1.4-2.3
	c-2.1-2.5-4.1-3.5-4.1-3.5s0.5-0.2,2.4,0.2c2.2,0.5,4.6,1.9,6.7,3.8c14.1-7.1,23.6-16.5,23.6-16.5S1870.1,546.1,1858.7,546z"/>
<path class="st6" d="M1822.3,577l-0.8-0.6c0.1-0.1,7.3-10.5,17-17c10.7-7.2,20.4-8.1,20.5-8.1c0,0-9.5,1.9-20,9
	C1829.6,566.7,1822.4,576.9,1822.3,577z"/>
<path class="st11" d="M1505.9,0.1c-9.9,166.8-68.6,196.8-68.6,196.8l3.4,49.3c48.8-47.8,74.2-122,77.3-246.2L1505.9,0.1L1505.9,0.1z
	"/>
<path class="st11" d="M1197.1,0.1h-11.6c12.6,182.8,49.7,289.2,109.3,304.8l-1.3-62.3C1293.5,242.6,1222.7,257.5,1197.1,0.1z"/>
<path class="st11" d="M1756.9,0c1.1,183.7,1.7,438.4-1.7,583.8h69.3L1817.4,0H1756.9z"/>
<g>
	<path class="st7" d="M1797.6,733.4c13.1,9.5,28.5-0.7,28.5-0.7C1808.6,716.1,1797.6,733.4,1797.6,733.4z"/>
	<path class="st7" d="M1803.2,761c12.4,13,31.3,5.1,31.3,5.1C1818.8,744.3,1803.2,761,1803.2,761z"/>
	<path class="st7" d="M1794.2,712.4c10.4,7.5,22.6-0.6,22.6-0.6C1802.9,698.6,1794.2,712.4,1794.2,712.4z"/>
	<path class="st7" d="M1790.3,688.5c6.6,8.1,17.9,4.4,17.9,4.4C1800.2,679.5,1790.3,688.5,1790.3,688.5z"/>
	<path class="st7" d="M1846,726.3c1.4,16.1-15.3,24-15.3,24C1825.5,726.8,1846,726.3,1846,726.3z"/>
	<path class="st7" d="M1833,702.7c1.5,12.7-11.5,19.4-11.5,19.4C1816.7,703.6,1833,702.7,1833,702.7z"/>
	<path class="st7" d="M1816.7,683.2c4,9.7-4.6,17.8-4.6,17.8C1804.1,687.6,1816.7,683.2,1816.7,683.2z"/>
	<path class="st7" d="M1788,669.8c1.9,10.3,13.7,12.3,13.7,12.3C1801,666.5,1788,669.8,1788,669.8z"/>
	<path class="st7" d="M1837.1,797.3l3.2-0.5c-4.2-67.1-42.1-120.5-42.1-120.5C1838.7,744.2,1837.1,797.3,1837.1,797.3z"/>
	<path class="st7" d="M1843.5,754.9c-7.1,12,2.9,24.3,2.9,24.3C1859.2,762.9,1843.5,754.9,1843.5,754.9z"/>
	<path class="st7" d="M1858.6,741c-5.6,9.5,2.3,19.3,2.3,19.3C1871.1,747.4,1858.6,741,1858.6,741z"/>
	<path class="st7" d="M1873.8,735.5c-6.4,6.3-2.3,15.7-2.3,15.7C1882.3,743.2,1873.8,735.5,1873.8,735.5z"/>
	<path class="st7" d="M1847.5,779.3c14.2,10.8,22.2-3.4,22.2-3.4C1858.1,768.2,1847.5,779.3,1847.5,779.3z"/>
	<path class="st7" d="M1859.4,763.1c12.1,9.2,19-2.9,19-2.9C1868.4,753.6,1859.4,763.1,1859.4,763.1z"/>
	<path class="st7" d="M1871,750.6c12.1,9.2,19-2.9,19-2.9C1880,741.1,1871,750.6,1871,750.6z"/>
	<path class="st7" d="M1839.4,794l-0.1,2.5c0,0,13.1-32.1,37.8-50.3C1877.1,746.2,1851.6,762,1839.4,794z"/>
</g>
<path class="st9" d="M453.3,111.6C472.6,68.9,489.4,32.4,494.9,0h-12.8c-41.5,128.8-141.6,218.3-141.6,218.3l18.2,45.9
	c38.2-52.7,78-116.8,78-116.8C495,184,587.1,3.9,593.6,0h-9.8C466.5,185.4,453.3,111.6,453.3,111.6z"/>
<path class="st12" d="M573.2,197.2C555.9,190.8,537.1,123,518.4,0h-0.7c6.6,43.2,13.2,79.8,19.7,109.2
	c12.1,54.6,24.1,84.4,35.6,88.7c1,0.4,2,0.5,3,0.5c2.5,0,5-1.2,7.5-3.6l-0.5-0.5C579.6,197.5,576.4,198.5,573.2,197.2z"/>
<path class="st7" d="M197.9,0c-13.9,31.8-37.7,46.5-37.7,46.5L156.9,0h-6.6C151.5,143.3,86,188.2,86,188.2l10.9,34.1
	c50.4-42.1,63.4-155.1,63.4-155.1c14.4-16.3,32.7-34.3,43-67.2L197.9,0L197.9,0z"/>
<path class="st6" d="M389.9,820.3c-1-6-5.5-12.9-7.9-16.2c-0.5-0.6,0.2-1.5,0.9-1.2c2.8,1.1,7.4,3.4,10.3,8.1
	c0.4,0.7,1.5,0.4,1.5-0.5c-0.6-10.9,1-20.9,1.9-25.8c0.2-0.8,1.3-0.9,1.5,0c1.3,4.9,3.7,15.1,4.2,25c0,0.9,1.3,1,1.6,0.2
	c1.8-6.2,3.9-12.2,5.2-15.9c0.3-0.8,1.5-0.6,1.5,0.3c0.1,4.5,0.1,12.2-0.9,19.6c-0.1,0.9,1,1.3,1.5,0.5c1.1-1.8,2.1-3.9,2.9-5.8
	c0.4-0.8,1.6-0.5,1.5,0.4l-1.5,11c0,0.3-0.2,0.5-0.4,0.6c-1.6,0.9-8.8,4-23.2,0.4C390.2,820.9,390,820.7,389.9,820.3z"/>
<path class="st6" d="M1038.2,732c1-6,5.5-12.9,7.9-16.2c0.5-0.6-0.2-1.5-0.9-1.2c-2.8,1.1-7.4,3.4-10.3,8.1
	c-0.4,0.7-1.5,0.4-1.5-0.5c0.6-10.9-1-20.9-1.9-25.8c-0.2-0.8-1.3-0.9-1.5,0c-1.3,4.9-3.7,15.1-4.2,25c0,0.9-1.3,1-1.6,0.2
	c-1.8-6.2-3.9-12.2-5.2-15.9c-0.3-0.8-1.5-0.6-1.5,0.3c-0.1,4.5-0.1,12.2,0.9,19.6c0.1,0.9-1,1.3-1.5,0.5c-1.1-1.8-2.1-3.9-2.9-5.8
	c-0.4-0.8-1.6-0.5-1.5,0.4l1.5,11c0,0.3,0.2,0.5,0.4,0.6c1.6,0.9,8.8,4,23.2,0.4C1037.9,732.5,1038.1,732.3,1038.2,732z"/>
<path class="st6" d="M1712.4,591.1c-1-6-5.5-12.9-7.9-16.2c-0.5-0.6,0.2-1.5,0.9-1.2c2.8,1.1,7.4,3.4,10.3,8.1
	c0.4,0.7,1.5,0.4,1.5-0.5c-0.6-10.9,1-20.9,1.9-25.8c0.2-0.8,1.3-0.9,1.5,0c1.3,4.9,3.7,15.1,4.2,25c0,0.9,1.3,1,1.6,0.2
	c1.8-6.2,3.9-12.2,5.2-15.9c0.3-0.8,1.5-0.6,1.5,0.3c0.1,4.5,0.1,12.2-0.9,19.6c-0.1,0.9,1,1.3,1.5,0.5c1.1-1.8,2.1-3.9,2.9-5.8
	c0.4-0.8,1.6-0.5,1.5,0.4l-1.5,11c0,0.3-0.2,0.5-0.4,0.6c-1.6,0.9-8.8,4-23.2,0.4C1712.7,591.7,1712.4,591.5,1712.4,591.1z"/>
<path class="st6" d="M1517.2,811.6c-6.8-3-18.7,1.6-22.7,5.9c-8.8,9.7,24.6,7.1,27.1,6.1C1524.2,822.6,1524,814.5,1517.2,811.6z"/>
<path class="st6" d="M1582.8,796.2c-12.1-5.8-34.2,1.9-41.5,9.6c-16.5,17.2,44.3,14.3,49,12.5C1594.9,816.6,1594.9,802,1582.8,796.2
	z"/>
<path class="st13" d="M1467.3,635.5c-0.3-0.6-0.5-1.2-0.8-1.7C1466.8,634.5,1467,635.1,1467.3,635.5z"/>
<path class="st9" d="M410,0c-21.6,88.4-58.9,106.1-58.9,106.1l1,24c28.7-19,48.4-66.4,63.1-130.1H410z"/>
<path class="st7" d="M293.9,748.4c-0.2-1.2-19.3-116.9-22-209.1c-1.9-64.1,3.2-122.4,7.3-169.2c1.9-22,3.6-41,4.3-57.9
	c0.7-14.9,0.7-28.4,0.8-41.5c0.1-34.5,0.2-64.3,11.8-100.6c15.8-49.7,27-114.9,29.1-170h1C324,55.3,312.8,120.6,297,170.4
	c-11.5,36.2-11.6,65.9-11.7,100.3c0,13.1-0.1,26.7-0.8,41.6c-0.8,16.9-2.4,35.9-4.3,57.9c-4.1,46.8-9.1,105-7.3,169.1
	c2.7,92.2,21.8,207.8,22,209L293.9,748.4z"/>
<path class="st7" d="M362.5,738.7C362.4,738.2,348,680,340,647c-7.4-30.8-18.1-134-11.2-213.3c2.3-25.7,4.4-46.5,6.1-63.3
	c3.6-34.6,5.7-55.5,4.9-78.5c-0.9-26.9,0.1-74.6,17-91.2l0.7,0.7c-7.1,7-18.8,28-16.7,90.4c0.8,23-1.4,44-4.9,78.6
	c-1.7,16.7-3.9,37.6-6.1,63.3c-6.9,79.2,3.7,182.3,11.1,213c8,33,22.4,91.2,22.5,91.8L362.5,738.7z"/>
<path class="st7" d="M427.8,579.1h-1c0-0.3,1.3-27-2-83.8c-3.2-57-3.2-98.1,0-129.6c2.6-24.9,11.9-87.2,18.9-87.2l0,0
	c3.4,0.1,3.4,17,3,58.6c-0.3,31.8-0.6,75.4,1.5,119.6c4.3,90.4,10.6,117.3,10.6,117.6l-1,0.2c-0.1-0.3-6.4-27.2-10.7-117.7
	c-2.1-44.2-1.7-87.8-1.5-119.6c0.1-17.1,0.3-32,0-42.1c-0.4-14.3-1.7-15.5-2-15.5l0,0c-5,0-14.4,52.1-17.9,86.3
	c-3.2,31.4-3.2,72.5,0,129.4C429,552.1,427.8,578.8,427.8,579.1z"/>
<path class="st6" d="M85.6,649c-0.7-51.1,1.5-101,3.8-153.9c2.3-51.9,4.7-105.6,4.7-166.8c0-60.1-4.1-104.1-8.2-146.7
	C80.8,127.5,76,76.3,81.1,0l1,0.1c-5.1,76.2-0.3,127.3,4.8,181.5c4,42.6,8.2,86.6,8.2,146.8c0,61.1-2.4,114.9-4.7,166.8
	C88.1,548,85.9,598,86.6,649H85.6z"/>
<path class="st6" d="M69.8,456.5c-1.9,0-3.7-2-5.6-6c-17.5-37-6.5-179.2-5.1-195.3l1,0.1c-1.3,16.1-12.3,158,5,194.7
	c1.8,3.9,3.6,5.8,5.1,5.4c2.8-0.6,8-8.9,11.8-56.9c2.5-31.3,3.7-72.5,3.4-113c-0.3-40.9-5.9-91.8-11.3-141
	c-6.3-57.1-12.2-111.1-9-142.4l1,0.1c-3.2,31.2,2.7,85.1,9,142.1c5.4,49.2,11,100.1,11.3,141.1c0.3,40.6-0.9,81.8-3.4,113.1
	c-2.9,37.1-7.2,56.6-12.6,57.8C70.2,456.4,70,456.5,69.8,456.5z"/>
<path class="st6" d="M48.5,650.3l-1-0.2c3.9-21.5,1.9-104.1-0.2-191.6c-2.5-101-5-205.5,0.8-236.3c10.8-57.1,4-95.9-6.2-154.7
	l-0.4-2.3l1-0.2l0.4,2.3c10.2,58.9,17,97.8,6.2,155.1c-5.8,30.7-3.2,135.1-0.8,236.1C50.4,546,52.5,628.7,48.5,650.3z"/>
<path class="st6" d="M69.7,412.3c-0.1,0-0.1,0-0.2,0c-0.9-0.2-2.7-0.6-3.7-40.5c-0.5-19.6-0.5-39.3-0.5-39.5h1
	c0,29.2,0.9,75.9,3.3,79c0.1-0.1,0.2-0.2,0.3-0.5c4-9.5,2-104.5,0.4-173.9c-0.2-7.9-0.3-15.5-0.5-22.6
	c-0.7-34.7-6.8-74.9-12.7-113.7C51.4,62.2,45.9,26.1,46.5,0h1c-0.5,26,5,62.1,10.8,100.3c5.9,38.9,12,79.1,12.7,113.9
	c0.1,7.1,0.3,14.7,0.5,22.6c1.5,69.5,3.6,164.6-0.5,174.3C70.8,411.4,70.4,412.3,69.7,412.3z"/>
<path class="st9" d="M1285,718.9h-1c0.1-35.5,6.3-79.5,12.9-126.2c10.2-72.3,21.7-154.2,16.2-235c-3.8-55.4,6.2-171,14.5-235.3
	c7.9-60.9,4.3-110.3-8.7-122.3h1.2c13.2,12.2,16.4,61.2,8.5,122.4c-8.3,64.3-18.3,179.8-14.5,235.1c5.6,80.8-6,162.8-16.2,235.2
	C1291.3,639.4,1285.1,683.5,1285,718.9z"/>
<path class="st9" d="M1330.1,721l-1-0.2c44-240.5,30-335.7,13.8-443.6c-9-60.2-0.5-124.8,6.3-176.7c5.5-41.5,10.2-77.6,4.9-100.5h1
	c5.3,23.1,0.5,59-4.9,100.6c-6.8,51.8-15.3,116.4-6.3,176.5C1360.1,385,1374.1,480.3,1330.1,721z"/>
<path class="st9" d="M1440.6,246.7c-8.7-0.2-14.4-8.3-15.1-21.7c-0.7-13,3.8-27.5,11.7-28.6l0.1,1c-7.2,1-11.5,15.3-10.8,27.5
	c1,19,11.1,20.7,14.1,20.8L1440.6,246.7z"/>
<path class="st9" d="M1441.7,316.1c-6.9,0-13.1-3.4-18.3-10.1c-16.2-20.9-19.8-73.2-7.2-103.6c5.1-12.4,12.4-19.5,21-20.7l0.1,1
	c-8.3,1.1-15.3,8-20.3,20c-12.5,30.1-8.9,81.9,7.1,102.6c5.7,7.4,12.6,10.6,20.5,9.5l0.1,1C1443.7,316.1,1442.7,316.1,1441.7,316.1z
	"/>
<path class="st9" d="M1456.7,722.9c-8.2-210.5-26.2-266-42.2-314.9c-8.3-25.4-16-49.3-21.6-92.3c-11.4-88.7-3.1-104.9,5.7-122.1
	c3.7-7.1,7.4-14.5,9.9-27.4c6.4-33.3,5.4-60.4,3.6-109.5c-0.6-15.7-1.4-35.6-1.9-56.6l1-0.1c0.5,21,1.3,40.9,1.8,56.6
	c1.8,49.2,2.8,76.3-3.6,109.7c-2.5,13-6.3,20.5-10,27.7c-8.7,17.1-17,33.2-5.6,121.5c5.5,42.8,13.3,66.8,21.5,92.1
	c15.9,49,34,104.6,42.2,315.2L1456.7,722.9z"/>
<path class="st9" d="M1400.2,723l-1-0.2c15-73,3.4-238.6-18.9-343.9c-22.2-105.1-31.4-182-3.9-215c14.5-17.5,16.8-60.4,16.2-93.4
	c-0.7-35.8-5.3-70.1-5.3-70.4h1.2c0,0.3,4.5,34.6,5.2,70.4c0.9,48.2-4.6,79.9-16.5,94.1c-27.2,32.8-18,109.3,4.1,214.2
	C1403.7,484.1,1415.3,649.9,1400.2,723z"/>
<path class="st12" d="M1443.3,0.1c-10.9,106.9-30.4,186.4-68.5,205.8c-14.1,7.2-36.8,10.3-57.4,0.4c-16.7-7.9-30.1-24.1-40.1-48
	c-11.9-28.8-18.9-69.2-20.6-120l1-38.3h-1.4l-1,38.3c1.7,51.1,8.7,91.6,20.7,120.6c10.1,24.2,23.8,40.6,40.8,48.7
	c8.9,4.2,18.1,5.8,26.9,5.8c11.9,0,23.2-2.5,31.8-6.3c36.5-15.9,58-97.8,69.4-207.1h-1.6L1443.3,0.1L1443.3,0.1z"/>
<path class="st9" d="M1533,676.6c-1.7,18.7,64.8,26.6,85.2,27.1c20.4,0.5,28.8-1.2,30.3-6.5C1649.9,691.9,1533,676.6,1533,676.6z"/>
<path class="st11" d="M1637,703.1c0-65.7-4.8-113.9-10.4-168.8c-4.4-43.4-9.4-92.5-13.2-160.6c-5.3-95.7,1.4-187.1,6.8-260.7
	c3.4-45.5,6.2-84.8,5.3-113h1c1,28.2-1.9,67.5-5.3,113.1c-5.4,73.5-12.1,164.9-6.8,260.5c3.8,68.1,8.8,117.2,13.2,160.6
	c5.6,54.9,10.4,103,10.4,168.8L1637,703.1z"/>
<path class="st11" d="M1553.6,693l-1-0.3c21.6-81.8,25.8-190.4,19.5-259c-6.1-65.9,11.8-209.3,20.9-264.6
	c9.8-59.3,4.2-168,4.1-169.1l1,0.1c0.1,1.1,5.6,109.9-4.1,169.2c-9.1,55.2-27,198.5-20.9,264.3
	C1579.4,502.4,1575.2,611.2,1553.6,693z"/>
<g>
	<path class="st12" d="M1615.5,0.1c-0.4,2.9-0.8,5.8-1.2,8.7c-9.9,69.1-21.6,127.3-34.8,173c-16.5,57.1-35.5,94.6-56.3,111.7
		c-10.5,8.6-21.6,12-33,10.3c-27.5-4.2-50.6-28.8-68.5-73.1c-15-37.1-26.5-88.3-34.3-152.2c-3.1-25.8-5.5-52.2-7.3-78.3h-0.7
		c1.8,26.2,4.1,52.6,7.3,78.4c7.8,64,19.4,115.3,34.4,152.4c18,44.6,41.3,69.4,69.1,73.6c2,0.3,3.9,0.4,5.8,0.4
		c9.6,0,18.9-3.6,27.8-10.9c21-17.1,40-54.8,56.6-112c13.2-45.7,25-104,34.8-173.1c0.4-2.9,0.8-5.9,1.2-8.8L1615.5,0.1L1615.5,0.1z"
		/>
	<path class="st12" d="M1495.8,305.4c-2,0-3.9-0.2-5.9-0.4c-28-4.2-51.4-29.1-69.4-73.9c-15-37.2-26.6-88.5-34.4-152.5
		c-3-24.3-5.4-50.8-7.3-78.5l0,0h1.7l0,0c1.9,27.7,4.3,54.1,7.3,78.3c7.8,63.9,19.4,115.1,34.3,152.1c17.8,44.2,40.8,68.7,68.1,72.8
		c11.3,1.7,22.3-1.7,32.6-10.2c20.8-17,39.7-54.4,56.2-111.4c13.2-45.7,24.9-103.8,34.8-172.9c0.4-2.9,0.8-5.8,1.2-8.7l0,0h1.7v0.1
		c-0.4,2.9-0.8,5.9-1.2,8.8c-9.9,69.2-21.6,127.4-34.9,173.2c-16.6,57.3-35.7,95.1-56.7,112.3
		C1514.9,301.7,1505.5,305.4,1495.8,305.4z"/>
</g>
<path class="st11" d="M1623,703.8c-0.1-1.7-5.3-172.3-16-243.5c-11.4-75.5-9.3-161.7-8.2-208.1c0.4-16-0.6-18.6-0.9-19
	c-3.1,2.3-11.2,55.3-12.7,122.8c-1.3,59.2,1.4,103.3,3.7,138.8c1.2,18.4,2.2,34.3,2.5,49.4c0.9,44.5-19.4,152.5-19.6,153.6l-1-0.2
	c0.2-1.1,20.4-109,19.6-153.4c-0.3-15.1-1.3-31-2.4-49.4c-2.2-35.5-5-79.6-3.7-138.9c1.4-63.9,9.2-121.4,13.3-123.7
	c0.3-0.2,0.6-0.2,0.9,0c0.5,0.3,1.9,1.2,1.5,19.9c-1.1,46.3-3.2,132.5,8.2,207.9c10.8,71.2,16,241.9,16,243.6L1623,703.8z"/>
<path class="st11" d="M1755.2,583.8c-2.1,12.4,69.5,14.6,69.3,0S1755.2,583.8,1755.2,583.8z"/>
<path class="st9" d="M1822,588.5h-1c0-1.7,1-167.1-5.6-237.3c-6.3-67.3-14.6-246.5-7.7-351.3h1c-6.9,104.7,1.4,283.9,7.7,351.2
	C1823,421.4,1822,586.9,1822,588.5z"/>
<path class="st9" d="M1812.3,591.2h-1c0.1-1.8,6.8-180.6-6.1-239.8c-5.3-24.2-14.1-50.6-22.7-76.2c-13-38.7-25.2-75.3-25.3-102.9h1
	c0.1,27.4,12.3,63.9,25.2,102.6c8.6,25.6,17.4,52.1,22.7,76.3C1819.1,410.5,1812.4,589.4,1812.3,591.2z"/>
<path class="st9" d="M1800.8,284.6c-1.4,0-5.1-2.6-15.6-38.3c-14.4-49-20.1-85.8-19.1-123.2c0.3-10.4,1.1-22.8,2-35.9
	c2.4-34.2,5.5-72.1-1.7-87.2h1.1c7.2,15.4,4,52.9,1.6,87.3c-0.9,13.1-1.8,25.5-2,35.8c-1,37.3,4.7,74.1,19.1,122.9
	c10.9,37.2,14.4,37.6,14.8,37.5c0.8-0.2,3.2-3.8-2.2-43.3c-8.1-59.7-4-165.6-1.3-235.7l0.2-4.6h1l-0.2,4.6
	c-2.7,70-6.8,175.9,1.3,235.5c5.9,43.5,2.6,44.1,1.4,44.4C1801.1,284.6,1801,284.6,1800.8,284.6z"/>
<path class="st7" d="M227.7,758l-1-0.2c6.4-40.6,3.7-128.8,1.5-199.7c-0.4-13.4-0.8-26.1-1.1-37.9c-1.8-68.6,2.6-150,15.4-281.1
	c10.7-110.1,7.1-152.7,1.1-223.3c-0.4-4.4-1-11.2-1.4-15.8h1c0.4,4.6,1,11.3,1.4,15.7c6,70.7,9.6,113.4-1.1,223.5
	c-12.8,131-17.2,212.4-15.4,281c0.3,11.8,0.7,24.5,1.1,37.9C231.4,629.1,234.1,717.3,227.7,758z"/>
<path class="st9" d="M1137.1,652.3h-1c0-0.3,1.2-27.9,0-195.1c-0.5-67.2-4.1-127.4-7.6-185.7c-5.4-89.1-10.6-172.1-4-271.5l1-0.1
	c-6.6,99.3-1.4,182.4,4,271.5c3.5,58.3,7.2,118.5,7.6,185.7C1138.2,624.4,1137.1,652.1,1137.1,652.3z"/>
<path class="st9" d="M1109.4,653.6c-0.1-1.2-8.3-114.7,0.4-232.4c5-67.4,2.8-166.4,0.8-253.7c-1.5-66.1-2.8-130.6-0.7-167.4l1-0.1
	c-2.1,36.8-0.8,101.5,0.7,167.5c2,87.3,4.2,186.3-0.8,253.8c-8.7,117.6-0.5,231.1-0.4,232.3H1109.4z"/>
<polygon class="st9" points="1094.9,650.3 1093.9,650.3 1099.1,0 1100.1,0 "/>
<g>
	<path class="st11" d="M1625.4,648.6c-5.3,10,3.3,19.7,3.3,19.7C1638.6,654.5,1625.4,648.6,1625.4,648.6z"/>
	<path class="st11" d="M1640.8,642.2c-6.3,6.8-1.6,16.2-1.6,16.2C1649.9,649.7,1640.8,642.2,1640.8,642.2z"/>
	<path class="st11" d="M1627.3,671.2c12.9,8.9,19.3-4,19.3-4C1636.1,661.1,1627.3,671.2,1627.3,671.2z"/>
	<path class="st11" d="M1638.6,657.8c12.9,8.9,19.3-4,19.3-4C1647.4,647.6,1638.6,657.8,1638.6,657.8z"/>
	<path class="st6" d="M1618.2,703.7c-6.5-1.4-18.8,0.1-23,1.7c-9.5,3.7,24,3.6,26.6,3.2C1624.3,708.3,1624.7,705.1,1618.2,703.7z"/>
	<path class="st11" d="M1610.6,664.5c-6.6,12.7,4.2,24.8,4.2,24.8C1627.2,671.9,1610.6,664.5,1610.6,664.5z"/>
	<path class="st11" d="M1616,688.4c15.1,10.4,22.6-4.6,22.6-4.6C1626.3,676.6,1616,688.4,1616,688.4z"/>
	<path class="st11" d="M1607.4,706.6h1c0,0,11.8-33.6,36.2-53.5C1644.7,653.1,1618.3,673.1,1607.4,706.6z"/>
</g>
<path class="st6" d="M1062.8,656.5c0,0-14.3,8.1,7.8,9.9c22.1,1.7,40.1-2.7,39.7-8.7C1110,651.7,1079.8,650,1062.8,656.5z"/>
<path class="st9" d="M1075.2,605.1c0,0-0.4-0.5,0.1-2.4c0.3-1.3,1.3-3.3,2.9-5.3c-1.3-3.2-2.7-6.4-4.5-9.6
	c-9.3-17.2-30.5-39.5-30.5-39.5s1.2,11.5,1.8,21.7c0.9,0.3,1.7,0.6,2.3,0.9c2.5,1.4,2.7,2.1,2.7,2.1s-2-0.7-5-1.3
	c0.2,2.9,0.3,5.7,0.3,7.9c0,10.2-0.9,29.5,4.8,42.2c5.7,12.7,24.8,41,24.8,41s8.6-15.2,9.2-28.3c0.5-9.8-0.7-22.1-5.1-34.6
	C1076.4,602.5,1075.2,605.1,1075.2,605.1z"/>
<path class="st6" d="M1074.4,662.7c0-0.3-2.6-26-5.2-42.4c-3.2-20.6-13.2-45-13.2-45.2c0,0,11.2,24.2,14.5,45
	c2.6,16.4,5.1,42.2,5.2,42.4L1074.4,662.7z"/>
<path class="st9" d="M1071.7,647.6c-1.9-5.7-7.1-17.8-19.2-24.6c-8.3-4.6-18-8.5-33.6-5.3s-24.5,15.9-24.5,15.9s11.3,1.2,16.2,2.5
	c1,0.3,2,0.6,3,1c2.1-2.9,4.3-5.3,5.9-6.2c2.4-1.5,3.1-1.4,3.1-1.4s-3.2,2.7-6,6.9c-0.3,0.5-0.6,1-0.9,1.5c4.8,2,9.1,4.7,13.2,7.5
	c1.9-2.6,3.8-4.6,5.8-5.9c3.8-2.7,6.1-2.3,6.1-2.3s-4.5,2.8-8,9.4c-0.2,0.4-0.4,0.7-0.6,1.1c3.8,2.6,7.6,5.2,11.7,7.2
	c11.1,5.4,30.5,8.3,30.5,8.3S1073.6,653.3,1071.7,647.6z"/>
<path class="st6" d="M1073.2,663.2c0,0-0.3-5-3.1-10.2c-3.2-6.1-9.6-12.7-17.9-18.5c-12.4-8.7-34.3-9.4-34.3-9.4s22.3-0.5,35,8.4
	c10.8,7.6,15.9,14.5,18.3,19c2.9,5.5,3.2,10.5,3.2,10.7H1073.2z"/>
<path class="st9" d="M1114.9,618c-0.1,0.2-0.2,0.4-0.4,0.6c-1.4,2-2,2.3-2,2.3s0.5-1,1.1-2.6c-4.2,0.6-8.3,1.7-12,3.4
	c-16.2,7.7-22.2,22.3-25.1,26.7s-3.5,14.9-3.5,14.9s19.8-5.4,35.4-14c1.6-0.9,3.1-1.8,4.6-2.7c-0.7-0.9-1.4-1.9-2.1-2.6
	c-3-2.7-5.7-3.7-5.7-3.7s0.6-0.3,3-0.1c2.9,0.3,6,1.6,9,3.6c16.4-11.2,26.6-24.5,26.6-24.5S1129.2,616.2,1114.9,618z"/>
<path class="st6" d="M1073.7,663.7l-1.1-0.6c0.1-0.1,8.5-15.4,19.5-25c12.2-10.7,24.1-13.5,24.2-13.5c0,0-11.5,4-23.4,14.4
	C1082.1,648.5,1073.7,663.6,1073.7,663.7z"/>
<g id="artboard">
</g>
<g id="belka">
</g>
<path class="st9" d="M1305.4,27.8c-1.6-2.3-3.5-3.7-5.7-4l-0.1,1c1.9,0.3,3.6,1.5,5,3.6c7.7,11.7,5.2,48,0.1,66.8
	c-1.3,5-2.2,5.1-2.3,5.1c-1.5-0.2-3.5-10.3-4.8-27.5l-0.3,8c0,0,0,0,0,0c2,20.1,4.1,20.3,5.1,20.4c1.2,0,2.2-1.8,3.3-5.8
	C1310.9,75.9,1313.4,39.9,1305.4,27.8z"/>
<path class="st9" d="M1308.3,0.9c-0.5-0.4-1.1-0.7-1.6-0.9h-6.4l0.2,0.5c0.1-0.1,3.5-1.4,7.3,1.2c5.5,3.7,11.8,15.4,11.2,49.8
	c-0.8,43-10.4,70-16.9,70.4h-0.1c-2.4,0-4.5-3.8-5.8-10.6l-0.1,3.8c1.5,5.1,3.5,7.8,5.9,7.8c0.1,0,0.1,0,0.2,0
	c4-0.2,8.2-7.6,11.6-20.2c3.7-13.7,5.9-31.9,6.3-51.2C1320.6,16.7,1314,4.8,1308.3,0.9z"/>
<path class="st9" d="M1757.8,278.7v2.6c10.8,26.3,28.9,82.9,21.3,156.9c-7,68.2-11.2,152.8-11.2,153.7h1c0-0.8,4.2-85.4,11.2-153.6
	C1787.9,361.9,1768.5,304,1757.8,278.7z"/>
<path class="st7" d="M260.8,0h-1c8.7,73.8,10.4,130.6,5.3,196.8c-2.1,26.3-5.6,55.7-9.4,86.9c-5.5,45.8-11.2,93-13.2,138.2
	c-1.8,40.8,2.5,115.5,6.7,187.8c3.4,57.5,6.5,112.1,6.3,144.2l1-0.1c0.3-32.1-3-86.7-6.3-144.1c-4.2-72.3-8.5-147-6.7-187.7
	c2-45.2,7.7-92.4,13.2-138.1c3.8-31.2,7.4-60.6,9.4-86.9C271.2,130.7,269.6,73.9,260.8,0z"/>
<path class="st12" d="M325.6,555.3c-1.3,0-2.7,0-4-0.1c-31.8-2-63.5-51.1-94-145.9c-30.6-95-59.2-232.6-85-409.1l2-0.3
	c25.8,176.4,54.3,313.9,84.9,408.8c15,46.6,30.5,82.5,46,106.7c15.4,24.1,31,36.8,46.3,37.8c17,1.1,32.8-5,46.9-18
	c59.9-55.4,92.5-235.5,97-535.2h2c-4.4,300.3-37.3,480.8-97.6,536.6C356.6,549,341.7,555.3,325.6,555.3z"/>
<path class="st7" d="M311,463.5c-1-85.7-2.2-192.4,15-249.9c14.3-47.3,20.4-138,22.3-176L347.9,26c-1.1,26.3-6.8,134.2-22.8,187.4
	C307.7,271.1,309,377.8,310,463.6c0.1,5.3,0.1,10.6,0.2,15.7c0.9,80.2,30.5,240.9,34.4,261.9l0.9-0.1
	c-3.8-20.7-33.4-181.7-34.3-261.9C311.1,474.1,311.1,468.8,311,463.5z"/>
<path class="st12" d="M386.9,0c-2.6,16.3-5.3,32.7-8.2,49.2c-14.4,82-29.3,147.1-44.5,193.3c-18.9,57.5-37.9,85.9-56.7,84.2
	C234,323.1,193.8,189.4,172.7,0h-1.4c6.3,56.7,14.5,109.4,24.3,155.9c22.8,108.6,51.9,169.8,81.8,172.3c0.5,0,1.1,0.1,1.6,0.1
	c19,0,38-28.7,56.6-85.3c15.2-46.3,30.2-111.5,44.6-193.6c2.9-16.5,5.6-33.1,8.2-49.4C388.4,0,386.9,0,386.9,0z"/>
<g>
	<path class="st11" d="M282.3,690.6c13.1,9.5,28.5-0.7,28.5-0.7C293.3,673.3,282.3,690.6,282.3,690.6z"/>
	<path class="st11" d="M287.9,718.2c12.4,13,31.3,5.1,31.3,5.1C303.5,701.5,287.9,718.2,287.9,718.2z"/>
	<path class="st11" d="M278.9,669.6c10.4,7.5,22.6-0.6,22.6-0.6C287.6,655.9,278.9,669.6,278.9,669.6z"/>
	<path class="st11" d="M275,645.7c6.6,8.1,17.9,4.4,17.9,4.4C284.9,636.7,275,645.7,275,645.7z"/>
	<path class="st11" d="M330.7,683.5c1.4,16.1-15.3,24-15.3,24C310.2,684,330.7,683.5,330.7,683.5z"/>
	<path class="st11" d="M317.7,659.9c1.5,12.7-11.5,19.4-11.5,19.4C301.4,660.8,317.7,659.9,317.7,659.9z"/>
	<path class="st11" d="M301.4,640.4c4,9.7-4.6,17.8-4.6,17.8C288.8,644.8,301.4,640.4,301.4,640.4z"/>
	<path class="st11" d="M272.8,627c1.9,10.3,13.7,12.3,13.7,12.3C285.7,623.7,272.8,627,272.8,627z"/>
	<path class="st11" d="M321.8,754.5c0,0,0.2,0.6,1.8,0.4c1.2-0.2,1.4-0.9,1.4-0.9c-4.2-67.1-42.1-120.5-42.1-120.5
		C323.4,701.4,321.8,754.5,321.8,754.5z"/>
	<path class="st11" d="M328.2,712.1c-7.1,12,2.9,24.3,2.9,24.3C343.9,720.1,328.2,712.1,328.2,712.1z"/>
	<path class="st11" d="M343.3,698.2c-5.6,9.5,2.3,19.3,2.3,19.3C355.8,704.6,343.3,698.2,343.3,698.2z"/>
	<path class="st11" d="M358.5,692.8c-6.4,6.3-2.3,15.7-2.3,15.7C367,700.5,358.5,692.8,358.5,692.8z"/>
	<path class="st11" d="M332.2,736.5c14.2,10.8,22.2-3.4,22.2-3.4C342.8,725.5,332.2,736.5,332.2,736.5z"/>
	<path class="st11" d="M344.1,720.3c12.1,9.2,19-2.9,19-2.9C353.1,710.9,344.1,720.3,344.1,720.3z"/>
	<path class="st11" d="M355.7,707.8c12.1,9.2,19-2.9,19-2.9C364.7,698.4,355.7,707.8,355.7,707.8z"/>
	<path class="st11" d="M324.1,751.3l-0.1,2.5c0,0,13.1-32.1,37.8-50.3C361.8,703.5,336.3,719.3,324.1,751.3z"/>
</g>
<path class="st9" d="M1148.6,339.9c-1.8-50.9-8.4-113-14.2-163.7c-7.3-62.5-0.2-175-0.1-176.1l-1-0.1c0,1.1-7.2,113.6,0.1,176.3
	c6.9,59.6,15.3,135,15.2,189.3l0,0L1148.6,339.9z"/>
</svg>
