<?xml version="1.0" encoding="utf-8"?>
<!-- Generator: Adobe Illustrator 22.0.1, SVG Export Plug-In . SVG Version: 6.00 Build 0)  -->
<svg version="1.1" id="Layer_1" xmlns="http://www.w3.org/2000/svg" xmlns:xlink="http://www.w3.org/1999/xlink" x="0px" y="0px"
	 viewBox="0 0 24 24" style="enable-background:new 0 0 24 24;" xml:space="preserve">
<style type="text/css">
	.st0{fill:#FFFFFF;}
</style>
<g>
	<path id="instagram-copy-a" class="st0" d="M12,6.4c-3.1,0-5.6,2.5-5.6,5.6s2.5,5.6,5.6,5.6s5.6-2.5,5.6-5.6S15.1,6.4,12,6.4z
		 M12,15.5c-1.9,0-3.5-1.6-3.5-3.5c0-1.9,1.6-3.5,3.5-3.5s3.5,1.6,3.5,3.5C15.5,13.9,13.9,15.5,12,15.5z M18,6.7
		c-0.4,0-0.7-0.3-0.7-0.7s0.3-0.7,0.7-0.7s0.7,0.3,0.7,0.7S18.5,6.7,18,6.7z M16.2,0.8H7.8c-3.9,0-7,3.1-7,7v8.4c0,3.9,3.1,7,7,7
		h8.4c3.9,0,7-3.1,7-7V7.8C23.2,3.9,20.1,0.8,16.2,0.8z M21.1,16.2c0,2.7-2.2,4.9-4.9,4.9H7.8c-2.7,0-4.9-2.2-4.9-4.9V7.8
		c0-2.7,2.2-4.9,4.9-4.9h8.4c2.7,0,4.9,2.2,4.9,4.9V16.2z"/>
</g>
</svg>
