<?xml version="1.0" encoding="UTF-8"?>
<svg width="331px" height="293px" viewBox="0 0 331 293" version="1.1" xmlns="http://www.w3.org/2000/svg" xmlns:xlink="http://www.w3.org/1999/xlink">
    <!-- Generator: Sketch 51.2 (57519) - http://www.bohemiancoding.com/sketch -->
    <title>logo</title>
    <desc>Created with Sketch.</desc>
    <defs>
        <linearGradient x1="19.9130209%" y1="12.5233526%" x2="108.638296%" y2="125.479808%" id="linearGradient-1">
            <stop stop-color="#9C95FF" offset="0%"></stop>
            <stop stop-color="#766DE8" offset="100%"></stop>
        </linearGradient>
        <linearGradient x1="42.0561702%" y1="7.55994899%" x2="44.0162893%" y2="113.421025%" id="linearGradient-2">
            <stop stop-color="#FFA330" offset="0%"></stop>
            <stop stop-color="#F07379" offset="100%"></stop>
        </linearGradient>
        <linearGradient x1="33.1670081%" y1="32.7496703%" x2="80.2447898%" y2="67.9040495%" id="linearGradient-3">
            <stop stop-color="#FFA330" offset="0%"></stop>
            <stop stop-color="#F07379" offset="100%"></stop>
        </linearGradient>
        <linearGradient x1="0%" y1="50%" x2="100%" y2="50%" id="linearGradient-4">
            <stop stop-color="#58F1FF" offset="0%"></stop>
            <stop stop-color="#53DEFF" offset="30%"></stop>
            <stop stop-color="#47B3FF" offset="100%"></stop>
        </linearGradient>
        <linearGradient x1="9.17660187e-05%" y1="50.008843%" x2="99.9912267%" y2="50.008843%" id="linearGradient-5">
            <stop stop-color="#FFFFFF" offset="0%"></stop>
            <stop stop-color="#F5FAFE" offset="100%"></stop>
        </linearGradient>
        <linearGradient x1="-0.0152619591%" y1="50.008843%" x2="99.975873%" y2="50.008843%" id="linearGradient-6">
            <stop stop-color="#FFFFFF" offset="0%"></stop>
            <stop stop-color="#F5FAFE" offset="100%"></stop>
        </linearGradient>
        <linearGradient x1="8.10876087e-05%" y1="49.9498686%" x2="100.002667%" y2="49.9498686%" id="linearGradient-7">
            <stop stop-color="#FFFFFF" offset="0%"></stop>
            <stop stop-color="#F5FAFE" offset="100%"></stop>
        </linearGradient>
        <linearGradient x1="0.0650600257%" y1="49.9498686%" x2="100.067646%" y2="49.9498686%" id="linearGradient-8">
            <stop stop-color="#FFFFFF" offset="0%"></stop>
            <stop stop-color="#F5FAFE" offset="100%"></stop>
        </linearGradient>
        <linearGradient x1="51.9613604%" y1="66.7897404%" x2="27.0496939%" y2="6.24380115%" id="linearGradient-9">
            <stop stop-color="#FFA330" offset="0%"></stop>
            <stop stop-color="#F07379" offset="100%"></stop>
        </linearGradient>
    </defs>
    <g id="Page-1" stroke="none" stroke-width="1" fill="none" fill-rule="evenodd">
        <g id="General-Homepage-Mobile" transform="translate(-15.000000, -3487.000000)">
            <g id="logo" transform="translate(15.000000, 3487.000000)">
                <path d="M61.1780372,229.929575 C69.3969542,239.786331 73.5091251,255.39783 80.0842587,261.954551 C86.6593922,268.511272 95.7029134,273.453197 101.458868,273.453197 C107.214822,273.453197 109.68321,270.169418 116.258343,271.827564 C119.54591,272.645799 132.701602,278.395122 156.544599,277.576887 C180.387596,276.758651 199.293817,272.645799 205.868951,271.827564 C212.444084,271.009328 245.330602,253.761359 258.491719,240.620823 C271.652836,227.480287 279.866328,214.34517 279.047149,207.777611 C278.22797,201.210053 276.578761,196.278965 282.334716,188.887752 C288.09067,181.49654 294.665804,174.105327 295.484983,141.256697 C296.304162,108.408066 290.548208,81.2816652 281.504687,73.9067088 C272.461165,66.5317524 265.061428,59.9479375 260.943832,52.5621435 C256.826236,45.1763495 253.544094,38.6033722 242.032185,29.5702698 C230.520276,20.5371674 219.843822,10.674992 192.718683,5.74932312 C165.593545,0.823654208 160.651345,0 153.251607,0 C145.851869,0 132.701602,4.10743348 124.49896,9.0331024 C116.296318,13.9587713 108.858606,18.889859 110.502389,25.4682551 C112.146172,32.0466512 127.770252,29.5756886 149.144861,29.5756886 C170.51947,29.5756886 174.642491,41.068916 182.850558,47.6418934 C191.058625,54.2148707 210.800301,55.8513416 222.31221,67.3499878 C233.824118,78.848634 236.287081,91.9837511 242.043035,100.193199 C247.79899,108.402648 260.130078,122.356 260.943832,137.956661 C261.757586,153.557322 258.475444,174.912725 249.431923,188.047842 C240.388402,201.182959 230.525701,205.295811 220.679276,213.516097 C210.832851,221.736383 212.460359,228.298523 200.94845,229.940412 C189.436542,231.582302 189.436542,227.480287 168.886537,234.866081 C148.336532,242.251875 140.13389,245.546492 134.356236,243.080948 C128.578581,240.615404 118.737581,232.405956 110.513239,228.298523 C110.513239,228.298523 94.0699801,218.447185 87.4948465,207.772193 C80.919713,197.097201 85.8673382,183.133011 82.5634963,172.458018 C79.2596545,161.783026 72.695371,154.380976 79.2650795,137.138426 C85.834788,119.895875 98.9959052,106.755339 109.68321,104.289795 C120.370514,101.824251 134.345386,90.331024 141.745123,91.9729136 C149.144861,93.6148032 159.832166,101.006016 171.338649,101.824251 C182.845133,102.642487 191.894079,105.113449 198.463788,115.788442 C205.033496,126.463434 211.61948,133.030992 209.151092,139.598551 C206.682705,146.166109 209.975697,152.739087 205.863526,162.595843 C201.751355,172.4526 186.138125,181.480283 181.195925,186.405952 C176.253724,191.331621 172.152404,194.620819 164.752666,192.155275 C157.352928,189.689732 142.249651,189.938995 136.802923,185.587717 C124.46641,175.73096 120.359664,160.953953 121.178843,152.739087 C121.178843,152.739087 125.291014,136.314771 138.446707,133.030992 C151.602399,129.747213 161.465099,131.405359 168.864837,139.598551 C176.264575,147.791742 173.796187,158.48841 163.108882,160.130299 C152.421578,161.772189 151.607824,157.686431 151.607824,157.686431 C151.607824,157.686431 155.719995,159.312064 161.475949,157.686431 C167.231903,156.060797 172.982433,154.402651 172.163254,147.835093 C171.344074,141.267534 162.295128,134.672882 157.363778,133.843809 C152.432428,133.014736 141.745123,133.843809 137.632952,137.945823 C133.520781,142.047838 126.126469,146.16069 124.47726,151.086359 C122.334374,157.51303 126.104769,164.226895 128.589431,169.152564 C131.074094,174.078233 139.276736,182.2931 151.607824,183.111335 C163.938912,183.929571 182.025954,182.2931 189.425692,174.078233 C196.825429,165.863366 203.405988,153.551903 200.112996,138.769478 C196.820004,123.987052 189.425692,110.857354 179.568416,108.375554 C169.711141,105.893753 164.768941,105.91001 153.257032,102.626231 C141.745123,99.3424512 132.707027,101.802576 122.019723,106.733664 C111.332418,111.664752 95.7083384,116.585002 91.6015925,128.901883 C87.4948465,141.218765 82.5580713,146.149853 85.8456381,156.824845 C89.1332049,167.499837 91.6015925,177.351175 92.4207717,185.544367 C93.2399508,193.737558 97.3521218,206.070696 106.395643,214.263888 C115.439164,222.45708 132.707027,234.790218 140.106765,234.790218 C147.506503,234.790218 163.125157,227.404424 168.859412,226.58077 C174.593666,225.757116 191.877804,224.115226 203.389713,218.371322 C214.901622,212.627417 240.382977,189.6518 245.314327,181.415258 C250.245677,173.178716 254.357848,146.106503 251.894885,136.249746 C249.431923,126.392989 237.111685,105.931685 235.446202,100.182362 C233.780718,94.4330387 234.621597,84.5817008 225.578076,77.1904881 C216.534555,69.7992753 205.066047,60.7661729 190.250296,59.1242833 C175.434545,57.4823936 163.125157,47.6310558 155.719995,45.165512 C148.314832,42.6999681 129.414035,40.2398431 110.502389,52.5567247 C91.5907424,64.8736064 79.2650795,68.9810399 68.5723499,78.0249798 C57.8796204,87.0689198 53.7782994,90.3418615 53.7782994,98.5513097 C53.7782994,106.760758 50.4907327,109.226302 45.5539575,118.259404 C40.6171823,127.292507 38.9788239,156.84652 39.7980031,179.014739 C40.6171823,201.182959 52.9536952,220.078237 61.1780372,229.929575 Z M79.2650795,55.840504 C73.5091251,60.7661729 60.353433,64.0499522 61.9972164,55.840504 C63.6409998,47.6310558 71.0678627,36.950645 77.6158711,31.2067407 C80.5019858,28.687009 84.1747296,27.4135963 87.3809209,26.812112 C91.0692302,26.0927225 94.8452665,27.5378693 97.1079956,30.5348122 C98.6270033,32.53976 100.281637,35.1028418 99.8205094,38.5979534 C98.9959052,45.165512 85.0156089,50.9365102 79.2650795,55.840504 Z M48.1362707,83.6713462 C46.0367849,87.5674473 40.6877076,91.0896528 41.6045373,82.9072985 C42.521367,74.7249442 42.3477661,76.4047653 47.2682662,69.5012425 C50.4473324,65.0632636 53.9464753,66.856879 56.0296859,68.6884259 C57.2095972,69.7249477 57.3738752,71.5013863 56.4040128,72.7362528 C53.8705249,75.998357 49.8397293,80.5176176 48.1362707,83.6713462 Z M297.145041,84.5817008 C295.517533,77.1904881 290.564483,73.0830546 285.633133,67.3391502 C280.701783,61.5952459 275.765007,59.1242833 271.658261,55.840504 C267.551515,52.5567247 265.902307,43.5236223 264.258524,38.5979534 C264.258524,38.5979534 261.790136,32.0249761 264.258524,29.564851 C266.726911,27.104726 272.477441,30.3830865 277.414216,35.3087554 C282.350991,40.2344243 288.920699,45.9837474 292.208266,50.0911809 C295.495833,54.1986144 301.251787,66.515496 302.895571,71.441165 C304.539354,76.3668339 307.832346,84.5817008 305.363958,91.1492594 C302.895571,97.7168179 298.197497,89.4098317 297.128766,84.5817008 L297.145041,84.5817008 Z M304.539354,169.163402 C304.539354,169.163402 308.651525,159.306645 312.763696,163.414079 C316.875867,167.521512 313.582875,176.554614 312.763696,182.303938 C311.944517,188.053261 308.651525,197.080944 304.539354,204.472157 C300.427183,211.86337 289.745304,208.579591 288.920699,204.472157 C288.096095,200.364724 290.548208,193.797165 292.208266,191.33704 C293.868325,188.876915 302.060117,175.73096 304.523079,169.163402 L304.539354,169.163402 Z M29.9353028,206.114047 C30.7544819,198.728253 37.3350405,206.114047 37.3350405,206.114047 C39.7980031,209.403245 43.0909949,216.789039 47.1977409,220.896472 C51.3044868,225.003906 56.241262,233.213354 58.7096496,237.320787 C61.1780372,241.428221 67.7531708,252.103213 65.2847832,252.921448 C62.8163956,253.739684 54.5974786,252.103213 51.3099118,245.535654 C48.0223451,238.968096 44.7347783,234.037008 39.7980031,225.822141 C34.8612279,217.607274 29.1106986,213.499841 29.9353028,206.114047 Z M125.31814,281.662645 C132.717877,284.128189 145.873569,284.951843 150.81577,282.486299 C155.75797,280.020755 168.078208,283.309954 173.009558,282.486299 C173.009558,282.486299 184.521467,284.111933 178.765512,288.235622 C173.009558,292.359312 163.944337,289.053858 155.698295,291.530239 C147.452252,294.006621 141.723423,291.530239 134.323685,291.530239 C126.923948,291.530239 114.59286,286.60457 109.66151,281.673483 C104.730159,276.742395 117.902127,279.20252 125.31814,281.662645 Z" id="Shape" fill="url(#linearGradient-1)" fill-rule="nonzero"></path>
                <path d="M211.283128,275.496076 C206.172752,283.32621 196.673529,286.620827 188.899464,284.426222 C173.329635,279.251289 177.300755,265.260005 192.577633,264.66394 C204.670019,264.187087 206.031701,255.116053 213.447714,257.771254 C219.827547,260.057978 216.388079,267.687617 211.283128,275.496076 Z" id="Oval-2-Copy-3" fill="url(#linearGradient-2)" fill-rule="nonzero"></path>
                <path d="M320.423864,190.877599 C333.853864,196.740592 334.065175,215.142572 323.483963,233.482013 C307.408661,261.358589 248.55067,280.385954 237.202477,268.300372 C215.883527,245.555869 274.12715,238.465556 289.302423,221.709123 C304.477696,204.95269 306.993865,185.026333 320.423864,190.877599 Z" id="Oval-2-Copy-3-2" fill="url(#linearGradient-3)" fill-rule="nonzero"></path>
                <path d="M5.1917515,14.088822 C3.24668795,14.0910135 1.49202934,12.9220824 0.746671852,11.1275668 C0.00131436308,9.33305113 0.412199584,7.26672614 1.78756808,5.89294216 C3.16293658,4.51915818 5.23164486,4.10874633 7.0282303,4.85324512 C8.82481573,5.5977439 9.99509509,7.35038103 9.992901,9.29320372 C9.992901,11.9417505 7.84335315,14.088822 5.1917515,14.088822 Z M5.1917515,6.81140355 C3.86445259,6.81140355 2.78846423,7.88615229 2.78846423,9.21192206 C2.78846423,10.5376918 3.86445259,11.6124406 5.1917515,11.6124406 C6.5190504,11.6124406 7.59503876,10.5376918 7.59503876,9.21192206 C7.59504039,8.57576214 7.34166464,7.96573651 6.89080422,7.51641208 C6.4399438,7.06708766 5.82864353,6.81538305 5.1917515,6.81682232 L5.1917515,6.81140355 Z" id="Shape" fill="#6BEB88" fill-rule="nonzero"></path>
                <ellipse id="Oval-4" fill="#4FCEFF" fill-rule="nonzero" cx="31.1071087" cy="24.3844996" rx="1.08500554" ry="1.08375554"></ellipse>
                <rect id="Rectangle-path" fill="#0052E0" fill-rule="nonzero" x="18.1738427" y="63.3996989" width="279.931429" height="165.814597" rx="10.08"></rect>
                <rect id="Rectangle-path" fill="url(#linearGradient-4)" fill-rule="nonzero" x="39.3314507" y="81.823543" width="179.926468" height="128.966909"></rect>
                <ellipse id="Oval" stroke="#387DFF" stroke-width="2" cx="28.7526467" cy="134.385687" rx="7.32378738" ry="7.31534987"></ellipse>
                <ellipse id="Oval" stroke="#387DFF" stroke-width="2" cx="28.7526467" cy="134.385687" rx="3.25501661" ry="3.25126661"></ellipse>
                <path d="M33.8196226,144.405006 C34.1288986,144.400655 34.4270108,144.520334 34.6472477,144.737262 C34.8674846,144.95419 34.9914593,145.250256 34.9914286,145.559206 L34.9914286,161.273661 C34.9914286,163.622937 33.0847675,165.527402 30.7327818,165.527402 L26.7670866,165.527402 C25.6381215,165.527403 24.555475,165.079069 23.757685,164.281182 C22.9598951,163.483295 22.5124249,162.401325 22.5138649,161.273661 L22.5138649,145.559206 C22.5123773,145.250754 22.6351385,144.954664 22.8545188,144.737574 C23.0738992,144.520485 23.3714658,144.400638 23.6802458,144.405006 C23.8542148,144.404969 24.0261999,144.441913 24.1847734,144.513382 C27.0874649,145.820861 30.4124036,145.820861 33.315095,144.513382 C33.4736685,144.441913 33.6456536,144.404969 33.8196226,144.405006 Z M33.8196226,143.321251 C33.4918755,143.319531 33.1677603,143.38983 32.8702427,143.527164 C30.2498824,144.70481 27.2499861,144.70481 24.6296257,143.527164 C23.9337026,143.200683 23.118942,143.252465 22.4700582,143.664416 C21.8211745,144.076367 21.4283515,144.791232 21.4288594,145.559206 L21.4288594,161.273661 C21.4288578,164.219364 23.8179878,166.608167 26.7670866,166.611157 L30.7327818,166.611157 C33.68276,166.60817 36.0734438,164.220241 36.0764341,161.273661 L36.0764341,145.559206 C36.0704556,144.319349 35.0609201,143.318249 33.8196226,143.321251 Z" id="Shape" fill="#387DFF" fill-rule="nonzero"></path>
                <rect id="Rectangle-path" fill="#387DFF" fill-rule="nonzero" x="21.564485" y="151.048428" width="13.4269435" height="1.08375554"></rect>
                <rect id="Rectangle-path" fill="#387DFF" fill-rule="nonzero" x="21.564485" y="158.092839" width="13.4269435" height="1.08375554"></rect>
                <g id="Layer_2" transform="translate(95.480487, 98.621754)" fill-rule="nonzero">
                    <g id="Layer_1-2">
                        <path d="M67.2703433,42.1201589 L51.141736,31.4993547 L6.97116058,4.40546626 C10.2961577,8.17406742 12.9049078,12.5169751 14.6692749,17.2208755 C15.8123435,20.2328668 16.6165721,23.3624734 17.0671371,26.5520106 L50.0621555,47.2409038 C51.2740002,48.1335454 51.593162,49.8078046 50.7945342,51.0828172 L50.2520315,51.624695 L18.1792678,71.0293379 C17.2621632,71.59782 16.0610941,71.3611957 15.4287787,70.4874601 C15.2274228,70.1577456 15.1014555,69.7876807 15.0598769,69.4037045 L15.0598769,25.0943594 C14.6977324,22.3211539 13.958539,19.6102545 12.8627406,17.036637 C10.5375218,10.6152605 6.55047114,4.92389895 1.30743167,0.541877768 L0.390537145,0 L0.390601993,83.3137069 C0.381907091,85.5008245 1.24789162,87.6008711 2.79621332,89.147409 C4.34453502,90.693947 6.44700379,91.5589338 8.63664408,91.5502489 C10.1910821,91.5181765 11.7092202,91.0750393 13.0363415,90.2659986 L67.1075925,56.5828766 C69.0319216,55.3430455 70.3837112,53.3898018 70.8650466,51.1536117 C71.346382,48.9174217 70.9177557,46.5818295 69.6736306,44.6615657 C69.1198093,43.6111856 68.288675,42.7322851 67.2703433,42.1201589 Z" id="Shape" fill="url(#linearGradient-5)" opacity="0.47"></path>
                        <path d="M67.2703433,42.1201589 L51.141736,31.4993547 C53.6958971,33.6118268 55.3031254,36.6529627 55.6084909,39.9511775 C55.9138564,43.2493924 54.8922384,46.5333597 52.7692443,49.0778695 C52.0166572,50.0290498 51.1554837,50.8892312 50.2032062,51.6409513 L27.2933143,65.1878955 L18.4939194,71.2298326 C17.4627155,71.6574123 16.2728441,71.3602871 15.5644044,70.4982976 C15.3630484,70.1685832 15.2370812,69.7985182 15.1955025,69.4145421 L15.1955025,25.0943594 C14.6662903,22.3594626 13.9392387,19.6664943 13.0200664,17.036637 C10.7023247,10.6169835 6.72269867,4.92553215 1.48645759,0.541877768 L0.4013872,0 L0.401452049,83.3137069 C0.392757146,85.5008245 1.25874168,87.6008711 2.80706338,89.147409 C4.35538508,90.693947 6.45785384,91.5589338 8.64749413,91.5502489 C10.2019322,91.5181765 11.7200703,91.0750393 13.0471916,90.2659986 L67.1184425,56.5828766 C69.0427717,55.3430455 70.3945613,53.3898018 70.8758967,51.1536117 C71.3572321,48.9174217 70.9286057,46.5818295 69.6844806,44.6615657 C69.1276913,43.6097795 68.292671,42.7307384 67.2703433,42.1201589 Z" id="Shape" fill="url(#linearGradient-6)"></path>
                    </g>
                </g>
                <path d="M103.721104,190.166584 C108.056548,190.166584 111.571119,186.656062 111.571119,182.325613 C111.571119,177.995164 108.056548,174.484641 103.721104,174.484641 C99.3856607,174.484641 95.8710893,177.995164 95.8710893,182.325613 C95.8710893,186.656062 99.3856607,190.166584 103.721104,190.166584 Z" id="Oval" stroke="#0052E0" stroke-linecap="round" stroke-dasharray="3"></path>
                <path d="M157.71098,156.700213 C162.582736,156.700213 166.532075,152.755424 166.532075,147.88928 C166.532075,143.023137 162.582736,139.078348 157.71098,139.078348 C152.839224,139.078348 148.889885,143.023137 148.889885,147.88928 C148.889885,152.755424 152.839224,156.700213 157.71098,156.700213 Z" id="Oval" stroke="#0052E0" stroke-linecap="round" stroke-dasharray="2.92"></path>
                <path d="M143.947685,150.967146 C145.457749,150.967146 146.681899,149.744407 146.681899,148.236082 C146.681899,146.727757 145.457749,145.505018 143.947685,145.505018 C142.43762,145.505018 141.213471,146.727757 141.213471,148.236082 C141.213471,149.744407 142.43762,150.967146 143.947685,150.967146 Z" id="Oval" stroke="#0052E0" stroke-linecap="round" stroke-dasharray="2.71"></path>
                <path d="M86.3338906,91.4960612 L87.0879694,91.7995127" id="Shape" stroke="#0052E0" stroke-linecap="round"></path>
                <path d="M89.0843796,92.6610984 C108.005392,101.585815 117.246362,123.241217 110.589189,143.055731" id="Shape" stroke="#0052E0" stroke-linecap="round" stroke-dasharray="3.01"></path>
                <path d="M110.231138,144.058205 C110.138912,144.312887 110.041262,144.56757 109.943611,144.816834" id="Shape" stroke="#0052E0" stroke-linecap="round"></path>
                <path d="M95.8710893,90.5098436 L95.8710893,198.29475" id="Shape" stroke="#0052E0" stroke-linecap="round" stroke-dasharray="3"></path>
                <path d="M110.578339,123.369311 L110.578339,171.233375" id="Shape" stroke="#0052E0" stroke-linecap="round" stroke-dasharray="3"></path>
                <path d="M88.6992027,94.4655513 L180.19772,151.351879" id="Shape" stroke="#0052E0" stroke-linecap="round" stroke-dasharray="3"></path>
                <path d="M111.576544,124.816125 L145.428717,145.868076" id="Shape" stroke="#0052E0" stroke-linecap="round" stroke-dasharray="3"></path>
                <path d="M88.6992027,200.819901 L182.872258,143.23455" id="Shape" stroke="#0052E0" stroke-linecap="round" stroke-dasharray="3"></path>
                <path d="M111.576544,170.962436 L147.067076,149.260231" id="Shape" stroke="#0052E0" stroke-linecap="round" stroke-dasharray="3"></path>
                <rect id="Rectangle-path" fill="#FFFFFF" fill-rule="nonzero" x="219.257919" y="81.823543" width="63.0496718" height="64.4834544"></rect>
                <rect id="Rectangle-path" fill="#387DFF" fill-rule="nonzero" x="219.257919" y="146.306997" width="63.0496718" height="64.4834544"></rect>
                <g id="Layer_2-2" transform="translate(238.158715, 162.021453)" fill-rule="nonzero">
                    <g id="Layer_1-2-2">
                        <path d="M23.8104465,15.2267653 L18.0924673,11.4661336 L2.43583743,1.85864074 C3.6091856,3.19678567 4.52839308,4.73743883 5.14835127,6.40499522 C5.55249663,7.47385817 5.8363437,8.58431175 5.99465559,9.71586838 L17.6910153,17.0474746 C18.1185234,17.3647945 18.2295922,17.9572655 17.9459916,18.4075878 L17.7506906,18.6026638 L6.40153267,25.4682551 C6.07554633,25.671097 5.64783203,25.5856527 5.42502769,25.2731791 C5.35291722,25.1545117 5.30842121,25.0211775 5.29482702,24.8830271 L5.29482702,9.21192206 C5.16575542,8.22894704 4.90292696,7.26817604 4.51362303,6.35622622 C3.69198127,4.08167008 2.28039101,2.06583294 0.423152159,0.51478388 L0.0976301886,0.319707883 L0.0976504983,29.8466275 C0.094753448,30.6221344 0.401895926,31.3667137 0.95089842,31.9150837 C1.49990091,32.4634537 2.24533905,32.7702424 3.02174042,32.7673486 C3.57200176,32.7564728 4.109427,32.5993588 4.57872337,32.3121713 L23.7453462,20.3908604 C25.1626969,19.4756689 25.5704857,17.5869695 24.6567508,16.1696326 C24.4686427,15.7823634 24.1754021,15.4556642 23.8104465,15.2267653 Z" id="Shape" fill="url(#linearGradient-7)" opacity="0.47"></path>
                        <path d="M23.8104465,15.2267653 L18.0924673,11.4661336 C18.9984224,12.214267 19.5692863,13.2915875 19.6791954,14.4605682 C19.7891046,15.6295489 19.4290335,16.7941956 18.6783703,17.6977279 C18.4105303,18.0334768 18.1046949,18.3371415 17.7669657,18.6026638 L9.62942414,23.4037008 L6.51545825,25.5712119 C6.14881416,25.723323 5.72569817,25.6176658 5.47385293,25.3111106 C5.40174247,25.1924432 5.35724646,25.0591089 5.34365227,24.9209586 L5.34365227,9.21192206 C5.15314592,8.24230906 4.89205116,7.28787561 4.56244828,6.35622622 C3.74080652,4.08167008 2.32921626,2.06583294 0.471977409,0.51478388 L0.0813551055,0.319707883 L0.0813754153,29.8466275 C0.078478365,30.6221344 0.385620843,31.3667137 0.934623337,31.9150837 C1.48362583,32.4634537 2.22906397,32.7702424 3.00546534,32.7673486 C3.55572668,32.7564728 4.09315192,32.5993588 4.56244828,32.3121713 L23.7290711,20.3908604 C25.1464218,19.4756689 25.5542106,17.5869695 24.6404757,16.1696326 C24.4568056,15.784465 24.169397,15.4579847 23.8104465,15.2267653 Z" id="Shape" fill="url(#linearGradient-8)"></path>
                    </g>
                </g>
                <g id="Layer_2-3" transform="translate(238.158715, 97.537998)" fill="#387DFF" fill-rule="nonzero">
                    <g id="Layer_1-2-3">
                        <path d="M23.8104465,15.2267653 L18.0924673,11.4661336 L2.43583743,1.85864074 C3.6091856,3.19678567 4.52839308,4.73743883 5.14835127,6.40499522 C5.55249663,7.47385817 5.8363437,8.58431175 5.99465559,9.71586838 L17.6910153,17.0474746 C18.1185234,17.3647945 18.2295922,17.9572655 17.9459916,18.4075878 L17.7506906,18.6026638 L6.40153267,25.4682551 C6.07554633,25.671097 5.64783203,25.5856527 5.42502769,25.2731791 C5.35291722,25.1545117 5.30842121,25.0211775 5.29482702,24.8830271 L5.29482702,9.21192206 C5.16575542,8.22894704 4.90292696,7.26817604 4.51362303,6.35622622 C3.69198127,4.08167008 2.28039101,2.06583294 0.423152159,0.51478388 L0.0976301886,0.319707883 L0.0976504983,29.8466275 C0.094753448,30.6221344 0.401895926,31.3667137 0.95089842,31.9150837 C1.49990091,32.4634537 2.24533905,32.7702424 3.02174042,32.7673486 C3.57200176,32.7564728 4.109427,32.5993588 4.57872337,32.3121713 L23.7453462,20.3908604 C25.1626969,19.4756689 25.5704857,17.5869695 24.6567508,16.1696326 C24.4686427,15.7823634 24.1754021,15.4556642 23.8104465,15.2267653 Z" id="Shape" opacity="0.47"></path>
                        <path d="M23.8104465,15.2267653 L18.0924673,11.4661336 C18.9984224,12.214267 19.5692863,13.2915875 19.6791954,14.4605682 C19.7891046,15.6295489 19.4290335,16.7941956 18.6783703,17.6977279 C18.4105303,18.0334768 18.1046949,18.3371415 17.7669657,18.6026638 L9.62942414,23.4037008 L6.51545825,25.5712119 C6.14881416,25.723323 5.72569817,25.6176658 5.47385293,25.3111106 C5.40174247,25.1924432 5.35724646,25.0591089 5.34365227,24.9209586 L5.34365227,9.21192206 C5.15314592,8.24230906 4.89205116,7.28787561 4.56244828,6.35622622 C3.74080652,4.08167008 2.32921626,2.06583294 0.471977409,0.51478388 L0.0813551055,0.319707883 L0.0813754153,29.8466275 C0.078478365,30.6221344 0.385620843,31.3667137 0.934623337,31.9150837 C1.48362583,32.4634537 2.22906397,32.7702424 3.00546534,32.7673486 C3.55572668,32.7564728 4.09315192,32.5993588 4.56244828,32.3121713 L23.7290711,20.3908604 C25.1464218,19.4756689 25.5542106,17.5869695 24.6404757,16.1696326 C24.4568056,15.784465 24.169397,15.4579847 23.8104465,15.2267653 Z" id="Shape"></path>
                    </g>
                </g>
                <path d="M200.454773,243.893765 C194.395017,237.450838 199.83632,224.54331 211.55438,213.581122 C229.35932,196.912962 269.44485,193.921797 272.40149,204.3692 C277.962144,224.006851 242.124411,222.728019 228.20379,231.777378 C214.283169,240.826737 206.519954,250.347529 200.454773,243.893765 Z" id="Oval-2-Copy-3-3" fill="url(#linearGradient-9)" fill-rule="nonzero"></path>
            </g>
        </g>
    </g>
</svg>