<?xml version="1.0" encoding="utf-8"?>
<!-- Generator: Adobe Illustrator 22.0.1, SVG Export Plug-In . SVG Version: 6.00 Build 0)  -->
<svg version="1.1" id="Layer_1" xmlns="http://www.w3.org/2000/svg" xmlns:xlink="http://www.w3.org/1999/xlink" x="0px" y="0px"
	 viewBox="0 0 295 447" style="enable-background:new 0 0 295 447;" xml:space="preserve">
<style type="text/css">
	.st0{fill:#CFE0FF;}
	.st1{fill:url(#SVGID_1_);}
	.st2{fill:url(#SVGID_2_);}
	.st3{fill:url(#SVGID_3_);}
	.st4{fill:#B9CFFF;}
	.st5{fill:#0074FF;}
	.st6{fill:#458CFF;}
	.st7{fill:#8DBBFF;}
</style>
<title>z4</title>
<g>
	<path class="st0" d="M44.9,439.3c-7.9-7.2,14-16,28.7-17.6c23.7-2.7,32.9-6.5,53-6.7c33.4-0.3,42.1,6.4,65.6,9.5
		c13.1,1.7,27.7,7.2,39,8.6c27.6,3.3,40.2,4.3,27.8,9.9c-12.4,5.6-74.5,4.2-91.6,2.1c-35.1-4.3-42.3-2.6-64.4-0.2
		S52.8,446.5,44.9,439.3z"/>
	
		<linearGradient id="SVGID_1_" gradientUnits="userSpaceOnUse" x1="147.1862" y1="3655.9905" x2="147.1862" y2="3328.3599" gradientTransform="matrix(1 0 0 1 0 -3232)">
		<stop  offset="0" style="stop-color:#0052E0"/>
		<stop  offset="1" style="stop-color:#387DFF"/>
	</linearGradient>
	<path class="st1" d="M147.2,424c-4.1,0-7.4-2.3-7.4-6.4V103.7c0-4.1,3.3-7.4,7.4-7.4l0,0c4.1,0,7.4,3.3,7.4,7.4v313.9
		C154.6,421.7,151.5,424,147.2,424z"/>
	
		<linearGradient id="SVGID_2_" gradientUnits="userSpaceOnUse" x1="147.2803" y1="3672.9634" x2="147.2803" y2="3232" gradientTransform="matrix(1 0 0 1 0 -3232)">
		<stop  offset="0" style="stop-color:#0052E0"/>
		<stop  offset="1" style="stop-color:#387DFF"/>
	</linearGradient>
	<path class="st2" d="M100.3,334.5L140,96.4h14.8l39.7,238.1H100.3z M225.6,432.3L154.6,6V5.7l-0.1-0.3V5.2c0-0.1,0-0.2-0.1-0.2
		c0-0.1,0-0.1-0.1-0.2l-0.1-0.2l-0.1-0.2l-0.1-0.2c0-0.1-0.1-0.2-0.1-0.2c0-0.1-0.1-0.1-0.1-0.2l-0.1-0.2l-0.2-0.3
		c0,0-0.1-0.1-0.1-0.2l-0.1-0.2l-0.2-0.2l-0.1-0.1L153,2.3l-0.2-0.2L152.6,2l-0.2-0.2l-0.2-0.2l-0.1-0.1l-0.2-0.2l-0.2-0.1l-0.2-0.1
		l-0.2-0.1l-0.2-0.1l-0.2-0.1l-0.2-0.1l-0.2-0.1l-0.2-0.1L150,0.3l-0.2-0.1l-0.2-0.1l-0.2,0L149.1,0l-0.3,0h-2.8l-0.3,0.1l-0.2,0.1
		l-0.2,0l-0.3,0.1l-0.2,0.1l-0.2,0.1l-0.2,0.1l-0.2,0.1L144,0.7l-0.2,0.1l-0.2,0.1l-0.3,0.2l-0.2,0.1L143,1.3l-0.2,0.2l-0.2,0.1
		l-0.2,0.1L142.2,2l-0.1,0.1l-0.2,0.2l-0.2,0.2l-0.1,0.1l-0.2,0.2L141.3,3l-0.1,0.2l-0.2,0.2L141,3.6c0,0.1-0.1,0.1-0.1,0.2
		c0,0.1-0.1,0.1-0.1,0.2l-0.1,0.2l-0.1,0.2c0,0.1-0.1,0.1-0.1,0.2L140.4,5l-0.1,0.2l-0.1,0.2l-0.1,0.3c0,0.1,0,0.2,0,0.3V6
		L68.8,434.5c-0.7,4,2.4,5.8,6.4,6.3c5,0.6,7.5-0.2,8.1-3.9l14.6-87.7h99l14.2,85.5c0.6,3.6,3.3,5.9,8.4,5.9
		C225.3,440.5,226.4,436.3,225.6,432.3L225.6,432.3z"/>
	
		<linearGradient id="SVGID_3_" gradientUnits="userSpaceOnUse" x1="147.4956" y1="3518.3599" x2="147.4956" y2="3311.8782" gradientTransform="matrix(1 0 0 1 0 -3232)">
		<stop  offset="0" style="stop-color:#D7E5FF"/>
		<stop  offset="1" style="stop-color:#FFFFFF"/>
	</linearGradient>
	<path class="st3" d="M293.9,286.4H1c-0.6,0-1-0.4-1-1V80.9c0-0.6,0.4-1,0.9-1c0,0,0,0,0.1,0h292.9c0.6,0,1,0.4,1.1,0.9
		c0,0,0,0,0,0.1l0,0v204.4C295,285.9,294.5,286.3,293.9,286.4"/>
	<path class="st4" d="M19.1,282.4c-0.6,0-1,0.4-1,1v13.8h258.1v-13.7c0-0.6-0.4-1-1-1l0,0L19.1,282.4z"/>
	<path class="st5" d="M19.1,300.7c-0.6,0-1-0.4-1-1V286h258.1v13.7c0,0.6-0.4,1-1,1H19.1z"/>
	<path class="st4" d="M223.9,95H71.1c-0.6,0-1-0.4-1-1V74c0-0.6,0.4-1,1-1.1h152.8c0.6,0,1.1,0.5,1.1,1.1v20
		C224.9,94.5,224.5,95,223.9,95L223.9,95"/>
	<path class="st6" d="M223.9,91H71.1c-0.6,0-1-0.4-1-1V70c0-0.6,0.4-1,1-1.1h152.8c0.6,0,1.1,0.5,1.1,1.1v20
		C224.9,90.5,224.5,91,223.9,91L223.9,91"/>
	<path class="st7" d="M95.5,433c3.8-40.3,1.1-42.8,1.1-42.8s-3.1,25.5-6.8,40.3c-4-11-3.5-33.2-3.5-33.2l-5.6,34
		c-0.6-22.8-3.4-48.4-3.4-48.4s-1.4,28.3-5.5,47.6c-7.9-48.3-5.9-75.8-5.9-75.8s-5.7,37.9-1.8,78.2c-7.9-6.4-18.1-28.4-18.1-28.4
		l12.7,34.3c6.9,1.6,14,2.4,21.1,2.5c10.9,0,20.1-0.5,20.1-0.5l13.7-36.3C113.6,404.6,103.8,424,95.5,433z"/>
</g>
</svg>
