<?xml version="1.0" encoding="utf-8"?>
<!-- Generator: Adobe Illustrator 22.0.1, SVG Export Plug-In . SVG Version: 6.00 Build 0)  -->
<svg version="1.1" id="Layer_1" xmlns="http://www.w3.org/2000/svg" xmlns:xlink="http://www.w3.org/1999/xlink" x="0px" y="0px"
	 viewBox="0 0 24 24" style="enable-background:new 0 0 24 24;" xml:space="preserve">
<style type="text/css">
	.st0{fill:#FFFFFF;}
</style>
<g>
	<path id="pinterest-copy-a" class="st0" d="M12.3,0C5.7,0,2.2,4.2,2.2,8.8c0,2.1,1.2,4.8,3.1,5.6c0.3,0.1,0.4,0.1,0.5-0.2
		c0.1-0.2,0.3-1.2,0.4-1.6c0-0.1,0-0.3-0.1-0.4c-0.6-0.7-1.1-2.1-1.1-3.3c0-3.2,2.5-6.3,6.9-6.3c3.8,0,6.4,2.4,6.4,5.9
		c0,3.9-2.1,6.7-4.8,6.7c-1.5,0-2.6-1.2-2.3-2.6c0.4-1.7,1.3-3.6,1.3-4.8c0-1.1-0.6-2-1.9-2c-1.5,0-2.8,1.5-2.8,3.5
		c0,1.3,0.5,2.2,0.5,2.2s-1.5,6.1-1.8,7.2c-0.5,1.9,0.1,5,0.1,5.3c0,0.1,0.2,0.2,0.3,0.1c0.1-0.2,2-2.8,2.5-4.7
		c0.2-0.7,0.9-3.5,0.9-3.5c0.5,0.9,2,1.7,3.5,1.7c4.6,0,7.9-4,7.9-9.1C21.7,3.6,17.6,0,12.3,0z"/>
</g>
</svg>
