<?xml version="1.0" encoding="utf-8"?>
<!-- Generator: Adobe Illustrator 22.0.1, SVG Export Plug-In . SVG Version: 6.00 Build 0)  -->
<svg version="1.1" id="Layer_1" xmlns="http://www.w3.org/2000/svg" xmlns:xlink="http://www.w3.org/1999/xlink" x="0px" y="0px"
	 viewBox="0 0 70.8 86.4" style="enable-background:new 0 0 70.8 86.4;" xml:space="preserve">
<style type="text/css">
	.st0{fill:#FFFFFF;}
	.st1{fill:#CFE0FF;}
	.st2{fill:url(#SVGID_1_);}
</style>
<title>z5</title>
<path class="st0" d="M-1161.2-270c2.5-47.7,0.9-80.5-1.1-121.9c-0.6-12.7-1.3-26.5-1.9-41.7h-0.4c0.6,15.2,1.3,29,1.9,41.7
	c2,41.4,3.6,74.2,1.1,121.9c-3.9,74.4-2.8,190.7,2.4,244c5.3,54.6,1.6,194.5-2.4,243.7h0.4c3.9-49.2,7.7-189.1,2.4-243.7
	C-1164-79.4-1165.2-195.7-1161.2-270z"/>
<path class="st0" d="M-1163.9-433.7h-0.4c-2.5,60.3-4.5,110.4-5.1,128.9c-1.9,59.2-5.4,259-3.6,320.4c0.8,27.4-1.6,55.1-4.1,84.4
	c-3.1,36.9-6.4,75.1-4,117.6h0.4c-2.4-42.5,0.8-80.7,4-117.6c2.5-29.4,4.8-57.1,4.1-84.5c-1.7-61.5,1.7-261.2,3.6-320.4
	C-1168.4-323.3-1166.3-373.3-1163.9-433.7z"/>
<polygon class="st1" points="70.8,45.6 2.8,4.6 2.8,86.6 "/>
<linearGradient id="SVGID_1_" gradientUnits="userSpaceOnUse" x1="-7.0134" y1="-600.8874" x2="38.9866" y2="-539.8874" gradientTransform="matrix(1 0 0 1 0 608)">
	<stop  offset="0" style="stop-color:#387DFF"/>
	<stop  offset="1" style="stop-color:#0052E0"/>
</linearGradient>
<polygon class="st2" points="68,41 0,0 0,82 "/>
</svg>
