<?xml version="1.0" encoding="UTF-8"?>
<svg width="131px" height="112px" viewBox="0 0 131 112" version="1.1" xmlns="http://www.w3.org/2000/svg" xmlns:xlink="http://www.w3.org/1999/xlink">
    <!-- Generator: Sketch 51.2 (57519) - http://www.bohemiancoding.com/sketch -->
    <title>Group 26</title>
    <desc>Created with Sketch.</desc>
    <defs>
        <path d="M2.016,18.631 C-2.156,32.118 -0.835,46.537 15.464,49.549 C31.764,52.564 45.933,49.67 50.106,36.183 C54.277,22.694 44.999,11.408 33.388,3.717 C30.459,1.776 27.274,0.905 24.085,0.905 C14.636,0.904 5.136,8.546 2.016,18.631" id="path-1"></path>
        <linearGradient x1="15.4455063%" y1="6.59681892%" x2="71.1946577%" y2="91.0531197%" id="linearGradient-3">
            <stop stop-color="#9C95FF" offset="0%"></stop>
            <stop stop-color="#756DE8" offset="100%"></stop>
        </linearGradient>
        <path d="M0.947,39.479 C0.947,81.344 21.193,95.046 46.822,97.643 C72.452,100.238 95.561,80.93 103.822,54.642 C111.674,22.443 84.749,7.822 54.612,1.465 C50.974,0.697 47.34,0.326 43.776,0.326 C20.923,0.326 0.947,15.59 0.947,39.479" id="path-4"></path>
        <linearGradient x1="4.87979099%" y1="12.1262092%" x2="87.4265545%" y2="83.8727156%" id="linearGradient-6">
            <stop stop-color="#57F0FF" offset="0%"></stop>
            <stop stop-color="#42A1FF" offset="100%"></stop>
        </linearGradient>
        <path d="M7.054,0.799 C3.213,2.795 -0.228,5.375 0.377,9.668 C0.983,13.96 4.117,16.656 8.158,16.497 C12.2,16.339 15.369,12.83 16.076,8.562 C16.156,8.081 16.196,7.617 16.2,7.172 L16.2,7.011 C16.159,2.743 12.809,0.191 9.61,0.19 C8.721,0.19 7.845,0.387 7.054,0.799" id="path-7"></path>
        <linearGradient x1="6.3560737%" y1="23.3431209%" x2="93.9496336%" y2="74.7989287%" id="linearGradient-9">
            <stop stop-color="#FFA32F" offset="0%"></stop>
            <stop stop-color="#EF7279" offset="100%"></stop>
        </linearGradient>
        <path d="M0.285,4.985 L0.285,49.603 C0.285,54.982 4.647,59.344 10.026,59.344 L77.081,59.344 C81.312,54.975 84.994,49.904 87.953,44.311 L87.953,10.64 C87.953,5.26 83.591,0.898 78.212,0.898 L17.64,0.898 C17.64,0.898 15.81,0.762 13.34,0.762 C8.2,0.762 0.285,1.352 0.285,4.985" id="path-10"></path>
        <linearGradient x1="8.47865059%" y1="-3.87861459%" x2="86.9367148%" y2="98.1488375%" id="linearGradient-12">
            <stop stop-color="#5DA3FF" offset="0%"></stop>
            <stop stop-color="#A7D6FF" offset="100%"></stop>
        </linearGradient>
        <path d="M10.026,0.245 C4.647,0.245 0.285,4.606 0.285,9.985 L0.285,59.603 C0.285,64.982 4.647,69.344 10.026,69.344 L77.081,69.344 C81.312,64.975 84.994,59.904 87.953,54.311 L87.953,28.639 C87.953,23.26 83.591,18.898 78.212,18.898 L44.151,18.898 C40.369,18.898 36.935,16.69 35.365,13.25 L32.01,5.894 C30.439,2.453 27.006,0.245 23.223,0.245 L10.026,0.245 Z" id="path-13"></path>
        <linearGradient x1="1.92158804%" y1="10.4916884%" x2="84.6199152%" y2="101.665178%" id="linearGradient-15">
            <stop stop-color="#FFFFFF" offset="0%"></stop>
            <stop stop-color="#BDD4FF" offset="100%"></stop>
        </linearGradient>
        <path d="M7.795,13.689 C0.298,22.831 -1.992,33.606 3.739,39.004 C9.47,44.401 14.565,37.948 24.079,30.412 C33.593,22.876 61.383,22.531 54.03,6.112 C52.507,2.71 46.888,0.999 39.918,0.999 C28.993,1 14.752,5.206 7.795,13.689" id="path-16"></path>
        <linearGradient x1="63.8677931%" y1="74.6112376%" x2="28.4943684%" y2="13.5135419%" id="linearGradient-18">
            <stop stop-color="#FFA32F" offset="0%"></stop>
            <stop stop-color="#EF7279" offset="100%"></stop>
        </linearGradient>
    </defs>
    <g id="Page-1" stroke="none" stroke-width="1" fill="none" fill-rule="evenodd">
        <g id="general-homepage-v3" transform="translate(-655.000000, -4124.000000)">
            <g id="Group-26" transform="translate(655.000000, 4123.000000)">
                <g id="Group-3" transform="translate(0.000000, 49.331000)">
                    <mask id="mask-2" fill="white">
                        <use xlink:href="#path-1"></use>
                    </mask>
                    <g id="Clip-2"></g>
                    <path d="M2.016,18.631 C-2.156,32.118 -0.835,46.537 15.464,49.549 C31.764,52.564 45.933,49.67 50.106,36.183 C54.277,22.694 44.999,11.408 33.388,3.717 C30.459,1.776 27.274,0.905 24.085,0.905 C14.636,0.904 5.136,8.546 2.016,18.631" id="Fill-1" fill="url(#linearGradient-3)" mask="url(#mask-2)"></path>
                </g>
                <g id="Group-6" transform="translate(6.000000, 7.331000)">
                    <mask id="mask-5" fill="white">
                        <use xlink:href="#path-4"></use>
                    </mask>
                    <g id="Clip-5"></g>
                    <path d="M0.947,39.479 C0.947,81.344 21.193,95.046 46.822,97.643 C72.452,100.238 95.561,80.93 103.822,54.642 C111.674,22.443 84.749,7.822 54.612,1.465 C50.974,0.697 47.34,0.326 43.776,0.326 C20.923,0.326 0.947,15.59 0.947,39.479" id="Fill-4" fill="url(#linearGradient-6)" mask="url(#mask-5)"></path>
                </g>
                <g id="Group-9" transform="translate(114.000000, 53.331000)">
                    <mask id="mask-8" fill="white">
                        <use xlink:href="#path-7"></use>
                    </mask>
                    <g id="Clip-8"></g>
                    <path d="M7.054,0.799 C3.213,2.795 -0.228,5.375 0.377,9.668 C0.983,13.96 4.117,16.656 8.158,16.497 C12.2,16.339 15.369,12.83 16.076,8.562 C16.156,8.081 16.196,7.617 16.2,7.172 L16.2,7.011 C16.159,2.743 12.809,0.191 9.61,0.19 C8.721,0.19 7.845,0.387 7.054,0.799" id="Fill-7" fill="url(#linearGradient-9)" mask="url(#mask-8)"></path>
                </g>
                <g id="Group-16" transform="translate(56.000000, 0.331000)">
                    <path d="M19.1282,5.8407 L22.6462,7.2777 C22.9372,7.3957 23.2452,7.1517 23.1952,6.8407 L22.5982,3.1107 C22.5492,2.8077 22.1932,2.6677 21.9522,2.8577 L19.0312,5.1527 C18.7892,5.3427 18.8422,5.7247 19.1282,5.8407 M23.2132,9.1157 L17.4302,6.7427 C16.5692,6.3897 16.4122,5.2387 17.1462,4.6677 L21.9522,0.9257 C22.6782,0.3607 23.7462,0.7797 23.8912,1.6907 L24.8682,7.8047 C25.0182,8.7377 24.0872,9.4747 23.2132,9.1157" id="Fill-10" fill="#4FDC6F"></path>
                    <path d="M65.8982,28.5751 C64.7942,28.5751 63.8982,29.4711 63.8982,30.5751 C63.8982,31.6791 64.7942,32.5751 65.8982,32.5751 C67.0032,32.5751 67.8982,31.6791 67.8982,30.5751 C67.8982,29.4711 67.0032,28.5751 65.8982,28.5751 M65.8982,34.6441 C63.6892,34.6441 61.8982,32.8541 61.8982,30.6441 C61.8982,28.4351 63.6892,26.6441 65.8982,26.6441 C68.1072,26.6441 69.8982,28.4351 69.8982,30.6441 C69.8982,32.8541 68.1072,34.6441 65.8982,34.6441" id="Fill-12" fill="#F7CF06"></path>
                    <path d="M2.8323,16.8212 C3.9363,16.8212 4.8323,17.7172 4.8323,18.8212 C4.8323,19.9252 3.9363,20.8212 2.8323,20.8212 C1.7273,20.8212 0.8323,19.9252 0.8323,18.8212 C0.8323,17.7172 1.7273,16.8212 2.8323,16.8212" id="Fill-14" fill="#387DFF"></path>
                </g>
                <g id="Group-19" transform="translate(17.000000, 29.331000)">
                    <mask id="mask-11" fill="white">
                        <use xlink:href="#path-10"></use>
                    </mask>
                    <g id="Clip-18"></g>
                    <path d="M0.285,4.985 L0.285,49.603 C0.285,54.982 4.647,59.344 10.026,59.344 L77.081,59.344 C81.312,54.975 84.994,49.904 87.953,44.311 L87.953,10.64 C87.953,5.26 83.591,0.898 78.212,0.898 L17.64,0.898 C17.64,0.898 15.81,0.762 13.34,0.762 C8.2,0.762 0.285,1.352 0.285,4.985" id="Fill-17" fill="url(#linearGradient-12)" mask="url(#mask-11)"></path>
                </g>
                <g id="Group-22" transform="translate(17.000000, 19.331000)">
                    <mask id="mask-14" fill="white">
                        <use xlink:href="#path-13"></use>
                    </mask>
                    <g id="Clip-21"></g>
                    <path d="M10.026,0.245 C4.647,0.245 0.285,4.606 0.285,9.985 L0.285,59.603 C0.285,64.982 4.647,69.344 10.026,69.344 L77.081,69.344 C81.312,64.975 84.994,59.904 87.953,54.311 L87.953,28.639 C87.953,23.26 83.591,18.898 78.212,18.898 L44.151,18.898 C40.369,18.898 36.935,16.69 35.365,13.25 L32.01,5.894 C30.439,2.453 27.006,0.245 23.223,0.245 L10.026,0.245 Z" id="Fill-20" fill="url(#linearGradient-15)" mask="url(#mask-14)"></path>
                </g>
                <g id="Group-25" transform="translate(67.000000, 71.331000)">
                    <mask id="mask-17" fill="white">
                        <use xlink:href="#path-16"></use>
                    </mask>
                    <g id="Clip-24"></g>
                    <path d="M7.795,13.689 C0.298,22.831 -1.992,33.606 3.739,39.004 C9.47,44.401 14.565,37.948 24.079,30.412 C33.593,22.876 61.383,22.531 54.03,6.112 C52.507,2.71 46.888,0.999 39.918,0.999 C28.993,1 14.752,5.206 7.795,13.689" id="Fill-23" fill="url(#linearGradient-18)" mask="url(#mask-17)"></path>
                </g>
            </g>
        </g>
    </g>
</svg>