<?xml version="1.0" encoding="UTF-8"?>
<svg width="137px" height="107px" viewBox="0 0 137 107" version="1.1" xmlns="http://www.w3.org/2000/svg" xmlns:xlink="http://www.w3.org/1999/xlink">
    <!-- Generator: Sketch 51.2 (57519) - http://www.bohemiancoding.com/sketch -->
    <title>Group 31</title>
    <desc>Created with Sketch.</desc>
    <defs>
        <path d="M9.567,7.241 C-3.332,19.632 0.028,37.834 8.178,53.481 C16.327,69.13 39.202,68.589 52.101,56.199 C65.001,43.808 72.382,27.017 56.164,13.677 C46.254,5.526 35.874,0.307 26.355,0.307 C20.295,0.307 14.585,2.422 9.567,7.241" id="path-1"></path>
        <linearGradient x1="10.8111456%" y1="13.0681337%" x2="80.3807297%" y2="84.8653781%" id="linearGradient-3">
            <stop stop-color="#9C95FF" offset="0%"></stop>
            <stop stop-color="#756DE8" offset="100%"></stop>
        </linearGradient>
        <path d="M4.846,32.678 C-6.386,57.905 4.959,87.46 30.186,98.693 C35.261,100.952 40.776,101.99 46.438,102 L46.608,102 C69.045,101.96 93.759,85.836 102.708,65.735 C113.939,40.508 97.307,15.829 72.081,4.598 C66.086,1.929 59.777,0.689 53.493,0.689 C33.33,0.689 13.408,13.446 4.846,32.678" id="path-4"></path>
        <linearGradient x1="-0.000203056585%" y1="49.9999714%" x2="100.000163%" y2="49.9999714%" id="linearGradient-6">
            <stop stop-color="#57F0FF" offset="0%"></stop>
            <stop stop-color="#42A1FF" offset="100%"></stop>
        </linearGradient>
        <polygon id="path-7" points="0.434197792 0.681784357 10.863 0.681784357 10.863 11.5903698 0.434197792 11.5903698"></polygon>
        <path d="M6.463,7.76 C-0.49,15.292 -1.547,26.544 3.882,35.239 C9.312,43.934 19.887,47.924 29.705,44.982 C34.615,43.492 39.795,43.126 44.865,43.909 L45.712,44.04 C44.355,38.777 44.255,33.266 45.423,27.956 C47.57,17.932 42.749,7.712 33.648,2.994 C30.331,1.274 26.743,0.441 23.187,0.441 C16.987,0.44 10.882,2.973 6.463,7.76" id="path-9"></path>
        <linearGradient x1="49.9999945%" y1="4.24998033%" x2="49.9999945%" y2="93.2499838%" id="linearGradient-11">
            <stop stop-color="#FFA32F" offset="0%"></stop>
            <stop stop-color="#EF7279" offset="100%"></stop>
        </linearGradient>
        <path d="M25.176,5.45 C6.976,14.885 -2.667,35.327 1.628,55.372 C1.628,55.372 1.628,55.372 1.628,55.373 C1.628,55.373 1.628,55.373 1.628,55.374 L1.628,55.373 C1.628,55.374 1.628,55.374 1.628,55.375 C3.965,65.997 3.765,77.017 1.051,87.54 L2.744,87.279 C12.884,85.714 23.245,86.447 33.062,89.427 C52.699,95.308 73.848,87.331 84.707,69.941 C95.567,52.551 93.454,30.047 79.548,14.982 C70.711,5.409 58.5,0.343 46.099,0.343 C38.987,0.343 31.81,2.01 25.176,5.45 Z M1.628,55.373 C1.628,55.373 1.628,55.373 1.628,55.373 C1.628,55.373 1.628,55.372 1.628,55.372 C1.628,55.371 1.627,55.371 1.627,55.371 L1.628,55.373 Z" id="path-12"></path>
        <linearGradient x1="50.0001864%" y1="4.25174342%" x2="50.0001864%" y2="93.2505419%" id="linearGradient-14">
            <stop stop-color="#FFFFFF" offset="0%"></stop>
            <stop stop-color="#BDD4FF" offset="100%"></stop>
        </linearGradient>
        <path d="M2.951,1.152 C1.457,1.775 0.485,3.238 0.49,4.857 C0.49,5.917 0.912,6.932 1.663,7.681 C2.413,8.429 3.431,8.847 4.49,8.844 C6.109,8.844 7.568,7.868 8.188,6.372 C8.806,4.876 8.461,3.155 7.315,2.012 C6.55,1.249 5.528,0.844 4.489,0.844 C3.971,0.844 3.449,0.945 2.951,1.152" id="path-15"></path>
        <linearGradient x1="51.9384702%" y1="-87.5134396%" x2="48.8138799%" y2="134.361116%" id="linearGradient-17">
            <stop stop-color="#15CD6E" offset="0%"></stop>
            <stop stop-color="#57F07B" offset="100%"></stop>
        </linearGradient>
        <path d="M2.954,1.151 C1.458,1.773 0.486,3.237 0.49,4.857 C0.49,7.059 2.277,8.844 4.478,8.844 C6.098,8.849 7.562,7.877 8.184,6.38 C8.805,4.885 8.465,3.162 7.32,2.016 C6.554,1.251 5.531,0.845 4.49,0.845 C3.973,0.845 3.451,0.945 2.954,1.151" id="path-18"></path>
        <linearGradient x1="51.9744309%" y1="-89.8254214%" x2="48.8496111%" y2="132.076784%" id="linearGradient-20">
            <stop stop-color="#15CD6E" offset="0%"></stop>
            <stop stop-color="#57F07B" offset="100%"></stop>
        </linearGradient>
        <path d="M3.395,0.997 C1.271,1.602 0.038,3.815 0.643,5.94 C1.249,8.065 3.462,9.296 5.587,8.691 C7.711,8.086 8.942,5.873 8.338,3.749 C7.837,1.99 6.235,0.844 4.492,0.843 C4.13,0.843 3.761,0.893 3.395,0.997" id="path-21"></path>
        <linearGradient x1="51.9076388%" y1="-85.1912531%" x2="48.7836035%" y2="136.627588%" id="linearGradient-23">
            <stop stop-color="#15CD6E" offset="0%"></stop>
            <stop stop-color="#57F07B" offset="100%"></stop>
        </linearGradient>
        <path d="M7.85,0.42 C3.768,1.861 0,3.934 0,8.269 C0,12.604 2.727,15.711 6.751,16.119 C10.775,16.526 14.403,13.495 15.7,9.368 C17.398,3.96 13.468,0.117 9.648,0.116 C9.038,0.116 8.431,0.214 7.85,0.42" id="path-24"></path>
        <linearGradient x1="10.6989732%" y1="16.6486121%" x2="88.9996117%" y2="80.5947293%" id="linearGradient-26">
            <stop stop-color="#9C95FF" offset="0%"></stop>
            <stop stop-color="#756DE8" offset="100%"></stop>
        </linearGradient>
    </defs>
    <g id="Page-1" stroke="none" stroke-width="1" fill="none" fill-rule="evenodd">
        <g id="general-homepage-v3" transform="translate(-952.000000, -4134.000000)">
            <g id="Group-31" transform="translate(952.000000, 4133.000000)">
                <g id="Group-3" transform="translate(15.000000, 0.693000)">
                    <mask id="mask-2" fill="white">
                        <use xlink:href="#path-1"></use>
                    </mask>
                    <g id="Clip-2"></g>
                    <path d="M9.567,7.241 C-3.332,19.632 0.028,37.834 8.178,53.481 C16.327,69.13 39.202,68.589 52.101,56.199 C65.001,43.808 72.382,27.017 56.164,13.677 C46.254,5.526 35.874,0.307 26.355,0.307 C20.295,0.307 14.585,2.422 9.567,7.241" id="Fill-1" fill="url(#linearGradient-3)" mask="url(#mask-2)"></path>
                </g>
                <g id="Group-6" transform="translate(14.000000, 5.693000)">
                    <mask id="mask-5" fill="white">
                        <use xlink:href="#path-4"></use>
                    </mask>
                    <g id="Clip-5"></g>
                    <path d="M4.846,32.678 C-6.386,57.905 4.959,87.46 30.186,98.693 C35.261,100.952 40.776,101.99 46.438,102 L46.608,102 C69.045,101.96 93.759,85.836 102.708,65.735 C113.939,40.508 97.307,15.829 72.081,4.598 C66.086,1.929 59.777,0.689 53.493,0.689 C33.33,0.689 13.408,13.446 4.846,32.678" id="Fill-4" fill="url(#linearGradient-6)" mask="url(#mask-5)"></path>
                </g>
                <g id="Group-12" transform="translate(122.000000, 44.693000)">
                    <g id="Group-9" transform="translate(4.000000, 0.000000)">
                        <mask id="mask-8" fill="white">
                            <use xlink:href="#path-7"></use>
                        </mask>
                        <g id="Clip-8"></g>
                        <path d="M9.4404,9.3347 L3.2324,11.4727 C1.6924,12.0027 0.1584,10.6617 0.4764,9.0647 L1.8124,2.3797 C2.1354,0.7597 4.1124,0.1237 5.3194,1.2507 L10.1924,5.7987 C11.3554,6.8837 10.9444,8.8167 9.4404,9.3347" id="Fill-7" fill="#F7CF06" mask="url(#mask-8)"></path>
                    </g>
                    <path d="M4.4912,23.3005 C3.3872,23.3005 2.4912,24.1965 2.4912,25.3005 C2.4912,26.4045 3.3872,27.3005 4.4912,27.3005 C5.5952,27.3005 6.4912,26.4045 6.4912,25.3005 C6.4912,24.1965 5.5952,23.3005 4.4912,23.3005 M4.4912,29.3705 C2.2812,29.3705 0.4912,27.5795 0.4912,25.3705 C0.4912,23.1605 2.2812,21.3705 4.4912,21.3705 C6.7002,21.3705 8.4912,23.1605 8.4912,25.3705 C8.4912,27.5795 6.7002,29.3705 4.4912,29.3705" id="Fill-10" fill="#F37C6A"></path>
                </g>
                <g id="Group-15" transform="translate(74.000000, 55.693000)">
                    <mask id="mask-10" fill="white">
                        <use xlink:href="#path-9"></use>
                    </mask>
                    <g id="Clip-14"></g>
                    <path d="M6.463,7.76 C-0.49,15.292 -1.547,26.544 3.882,35.239 C9.312,43.934 19.887,47.924 29.705,44.982 C34.615,43.492 39.795,43.126 44.865,43.909 L45.712,44.04 C44.355,38.777 44.255,33.266 45.423,27.956 C47.57,17.932 42.749,7.712 33.648,2.994 C30.331,1.274 26.743,0.441 23.187,0.441 C16.987,0.44 10.882,2.973 6.463,7.76" id="Fill-13" fill="url(#linearGradient-11)" mask="url(#mask-10)"></path>
                </g>
                <g id="Group-18" transform="translate(11.000000, 6.693000)">
                    <mask id="mask-13" fill="white">
                        <use xlink:href="#path-12"></use>
                    </mask>
                    <g id="Clip-17"></g>
                    <path d="M25.176,5.45 C6.976,14.885 -2.667,35.327 1.628,55.372 C1.628,55.372 1.628,55.372 1.628,55.373 C1.628,55.373 1.628,55.373 1.628,55.374 L1.628,55.373 C1.628,55.374 1.628,55.374 1.628,55.375 C3.965,65.997 3.765,77.017 1.051,87.54 L2.744,87.279 C12.884,85.714 23.245,86.447 33.062,89.427 C52.699,95.308 73.848,87.331 84.707,69.941 C95.567,52.551 93.454,30.047 79.548,14.982 C70.711,5.409 58.5,0.343 46.099,0.343 C38.987,0.343 31.81,2.01 25.176,5.45 Z M1.628,55.373 C1.628,55.373 1.628,55.373 1.628,55.373 C1.628,55.373 1.628,55.372 1.628,55.372 C1.628,55.371 1.627,55.371 1.627,55.371 L1.628,55.373 Z" id="Fill-16" fill="url(#linearGradient-14)" mask="url(#mask-13)"></path>
                </g>
                <g id="Group-21" transform="translate(51.000000, 51.693000)">
                    <mask id="mask-16" fill="white">
                        <use xlink:href="#path-15"></use>
                    </mask>
                    <g id="Clip-20"></g>
                    <path d="M2.951,1.152 C1.457,1.775 0.485,3.238 0.49,4.857 C0.49,5.917 0.912,6.932 1.663,7.681 C2.413,8.429 3.431,8.847 4.49,8.844 C6.109,8.844 7.568,7.868 8.188,6.372 C8.806,4.876 8.461,3.155 7.315,2.012 C6.55,1.249 5.528,0.844 4.489,0.844 C3.971,0.844 3.449,0.945 2.951,1.152" id="Fill-19" fill="url(#linearGradient-17)" mask="url(#mask-16)"></path>
                </g>
                <g id="Group-24" transform="translate(38.000000, 51.693000)">
                    <mask id="mask-19" fill="white">
                        <use xlink:href="#path-18"></use>
                    </mask>
                    <g id="Clip-23"></g>
                    <path d="M2.954,1.151 C1.458,1.773 0.486,3.237 0.49,4.857 C0.49,7.059 2.277,8.844 4.478,8.844 C6.098,8.849 7.562,7.877 8.184,6.38 C8.805,4.885 8.465,3.162 7.32,2.016 C6.554,1.251 5.531,0.845 4.49,0.845 C3.973,0.845 3.451,0.945 2.954,1.151" id="Fill-22" fill="url(#linearGradient-20)" mask="url(#mask-19)"></path>
                </g>
                <g id="Group-27" transform="translate(64.000000, 51.693000)">
                    <mask id="mask-22" fill="white">
                        <use xlink:href="#path-21"></use>
                    </mask>
                    <g id="Clip-26"></g>
                    <path d="M3.395,0.997 C1.271,1.602 0.038,3.815 0.643,5.94 C1.249,8.065 3.462,9.296 5.587,8.691 C7.711,8.086 8.942,5.873 8.338,3.749 C7.837,1.99 6.235,0.844 4.492,0.843 C4.13,0.843 3.761,0.893 3.395,0.997" id="Fill-25" fill="url(#linearGradient-23)" mask="url(#mask-22)"></path>
                </g>
                <g id="Group-30" transform="translate(0.000000, 42.693000)">
                    <mask id="mask-25" fill="white">
                        <use xlink:href="#path-24"></use>
                    </mask>
                    <g id="Clip-29"></g>
                    <path d="M7.85,0.42 C3.768,1.861 0,3.934 0,8.269 C0,12.604 2.727,15.711 6.751,16.119 C10.775,16.526 14.403,13.495 15.7,9.368 C17.398,3.96 13.468,0.117 9.648,0.116 C9.038,0.116 8.431,0.214 7.85,0.42" id="Fill-28" fill="url(#linearGradient-26)" mask="url(#mask-25)"></path>
                </g>
            </g>
        </g>
    </g>
</svg>