<svg xmlns="http://www.w3.org/2000/svg" xmlns:xlink="http://www.w3.org/1999/xlink" viewBox="0 0 433.2 458.93"><defs><style>.cls-1{fill:url(#linear-gradient);}.cls-2{fill:#923c4f;}.cls-3{fill:#cfe0ff;}.cls-4{fill:url(#linear-gradient-2);}.cls-5,.cls-9{fill:#ffb399;}.cls-5{opacity:0.5;}.cls-6{fill:#a64b4a;}.cls-14,.cls-7{fill:#350f2e;}.cls-7{opacity:0.3;}.cls-8{fill:url(#linear-gradient-3);}.cls-10{fill:#ff703e;}.cls-11{fill:#ba5455;}.cls-12{fill:#e36444;}.cls-13{fill:url(#linear-gradient-4);}.cls-15{fill:#e76d3f;}.cls-16{fill:#fff;}.cls-17{fill:#aa3b21;}.cls-18{fill:#7f2918;}.cls-19{fill:#ea947d;}.cls-20{fill:url(#linear-gradient-5);}.cls-21{fill:url(#linear-gradient-6);}.cls-22{fill:url(#linear-gradient-7);}.cls-23{fill:url(#linear-gradient-8);}.cls-24{fill:url(#linear-gradient-9);}.cls-25{fill:#ffccb6;}</style><linearGradient id="linear-gradient" x1="-1595.71" y1="-139.12" x2="-1840.71" y2="39.29" gradientTransform="translate(1994.34 647.96) rotate(13.58)" gradientUnits="userSpaceOnUse"><stop offset="0" stop-color="#ff7649"/><stop offset="1" stop-color="#b34957"/></linearGradient><linearGradient id="linear-gradient-2" x1="-3877.56" y1="234.17" x2="-4038.56" y2="350.84" gradientTransform="matrix(-1, 0, 0, 1, -3937.24, 0)" xlink:href="#linear-gradient"/><linearGradient id="linear-gradient-3" x1="-3914.14" y1="290.91" x2="-4102.31" y2="400.79" gradientTransform="matrix(-1, 0, 0, 1, -3937.24, 0)" gradientUnits="userSpaceOnUse"><stop offset="0" stop-color="#ffa330"/><stop offset="1" stop-color="#e05c68"/></linearGradient><linearGradient id="linear-gradient-4" x1="-4077.64" y1="-0.1" x2="-4185.64" y2="381.9" xlink:href="#linear-gradient-3"/><linearGradient id="linear-gradient-5" x1="98.51" y1="219.32" x2="233.87" y2="216.97" gradientTransform="matrix(1, 0, 0, 1, 0, 0)" xlink:href="#linear-gradient"/><linearGradient id="linear-gradient-6" x1="73.25" y1="178.58" x2="207.87" y2="176.25" gradientTransform="matrix(1, 0, 0, 1, 0, 0)" xlink:href="#linear-gradient"/><linearGradient id="linear-gradient-7" x1="-296.85" y1="-1218.34" x2="-35.85" y2="-1216.69" gradientTransform="translate(-364.2 1288.87) rotate(31.16)" gradientUnits="userSpaceOnUse"><stop offset="0" stop-color="#ff7649"/><stop offset="0.65" stop-color="#b34957"/><stop offset="0.91" stop-color="#8b363b"/></linearGradient><linearGradient id="linear-gradient-8" x1="-30.12" y1="-721.75" x2="67.52" y2="-759.3" gradientTransform="matrix(0.95, 0.3, -0.3, 0.95, -130.63, 834.02)" xlink:href="#linear-gradient-7"/><linearGradient id="linear-gradient-9" x1="304.71" y1="415.61" x2="126.06" y2="330.55" gradientTransform="matrix(1, 0, 0, 1, 0, 0)" xlink:href="#linear-gradient-3"/></defs><title>Artboard 3</title><g id="_1" data-name="1"><path id="_Path_" data-name="&lt;Path&gt;" class="cls-1" d="M429.91,182.08c-2.91-13.61-11.73-39.56-22.82-65,2.16.51,4.68,1.2,7.64,2.13-11.37-26-33.61-52-37.83-56.86a68,68,0,0,0-6-6.7C356.75,42,343.67,45,331.81,47.28c-1.5.29-3.45.77-5.77,1.43a68.79,68.79,0,0,1,4.13-9.54c-17.67,5-43.72,23.39-43.72,23.39a95.33,95.33,0,0,1,3.79-11.43c-30.63,14.18-56.53,34.43-59.72,38.93a59.43,59.43,0,0,0-9.64,7.59c-17.8,18.33-45.86,88.23-48.95,96.2-5.46,14.11-11.19,25.07-3.49,48.53,5.83,17.76,22.12,95.87-35.84,97.31-5.83.14-11.4.33-17.7.87-24,2-6.64,19-6.64,19l40.59,10.83,5,13.54s10.79,15,18.13,22.9,14.59,9.85,25,7.08c1.73-.46,3.65-1.08,5.71-1.83,14.82-4.15,48.6-14.53,66.7-27.5-8-.9-10-1.37-10-1.37s33.86-12.4,44.22-21.22a82.56,82.56,0,0,1-10.92-1,115.69,115.69,0,0,0,11.93-9.52c8.14-8,10.51-17.13,8-33.05-3.83-24.06-17.54-65.4-30.83-93.86,11.7-8,38-27.35,38-27.35a20.38,20.38,0,0,0,4.63,2.14c-4,12.41-5,23-4.5,29.27.7,8.21,3.49,11.13,7.88,14.24s26.34,18.71,33.88,21.56c7.13,2.69,16.53,4,27.62-3.62S413.9,244,423.3,235C435.33,223.51,434.89,205.4,429.91,182.08Z"/><path class="cls-2" d="M222.06,380.32c17.83-14.21,17.67-34.82,17.8-48.16.15-14-5.62-36.34-5.62-36.34l-7.92,11.46a190.08,190.08,0,0,0-11-47.93c-2.65-7-6.27-25.17-6.27-25.17l-34.55,39c2.3,24.78-1.06,55.34-27.13,64.08l-.81,32.47,2.34.63,5,13.54s9.53,13.21,16.77,21.39C191.09,397.28,213.9,386.83,222.06,380.32Z"/><path class="cls-3" d="M75.27,454.2c-3.56,1.17-2.76,4.73,1.18,4.73H296.68c5.55,0,7-3.3,0-4C200.14,444.93,106.68,443.93,75.27,454.2Z"/><path class="cls-3" d="M316.61,458.93H330.9c.84,0,1.52-.47,1.52-1.06h0c0-.53-.57-1-1.34-1.05-3.2-.26-10.16-.89-15.91-.89C312,455.93,310.86,458.93,316.61,458.93Z"/><path id="_Path_2" data-name="&lt;Path&gt;" class="cls-4" d="M77.31,312.22s-52.12-27.79-72.1-49.51C0,267.92,0,270.53,0,270.53l8.69,9.55s-5.22,5.21-5.22,10.43c5.22,9.55,37.36,45.17,73,57.33S77.31,312.22,77.31,312.22Z"/><path class="cls-5" d="M415,136.16l-10-.66a6.34,6.34,0,0,0-6.59,4.94l-8.5,38.43a5.9,5.9,0,0,1-8.16,4.12l-21.42-9.55a5.54,5.54,0,0,0-7.78,4.71l-1.72,27a4,4,0,0,1-5.5,3.39l-21-8.93c-3.94,12.26-4.93,22.7-4.4,28.95.7,8.21,3.49,11.13,7.88,14.24s26.34,18.71,33.88,21.56c7.13,2.69,16.53,4,27.62-3.62S413.9,244,423.3,235c12-11.49,11.59-29.6,6.61-52.92C427.73,171.89,422.23,154.78,415,136.16Z"/><path class="cls-6" d="M267.33,188.59s9.48,24,14.53,35.87C287,221,294.79,215.37,302,210.13,290,190.77,267.33,188.59,267.33,188.59Z"/><path class="cls-7" d="M284.1,229.52c-.46-1-.91-2-1.37-3C283.27,227.74,283.74,228.77,284.1,229.52Z"/><path id="_Path_3" data-name="&lt;Path&gt;" class="cls-8" d="M210.18,449.37c0-.91-36.63-59.52-44-133.68-84.24-53.11-88.82-29.3-88.82-29.3S52.69,378.87,97.55,447.54C114,451.2,115,448,115,448a104.21,104.21,0,0,1-5-26s21.43,3.57,57.14,6.31a100.6,100.6,0,0,0,22,21.06C201.94,453,210.18,449.37,210.18,449.37Z"/><path class="cls-9" d="M5.21,262.71C0,267.92,0,270.53,0,270.53l8.69,9.55s-5.22,5.21-5.22,10.43c1.7,3.1,6.24,8.95,12.8,15.85,6.4-6.09,11.38-16.16,14.18-22.78C20.63,276.71,11.39,269.42,5.21,262.71Z"/><path class="cls-10" d="M262.6,144.43a20,20,0,0,0-6.16,3.85c-1.78,2.1-.33,2.62,1.19,2.25a19.25,19.25,0,0,0,5.65-3C266.05,145.48,265.85,143.28,262.6,144.43Z"/><path class="cls-10" d="M268.49,225.55a20.65,20.65,0,0,0-2.78-7c-1.81-2.19-2.6-.81-2.5.81a20.25,20.25,0,0,0,2,6.29C266.8,228.86,269.07,229.06,268.49,225.55Z"/><path class="cls-10" d="M284.38,270.53a20.47,20.47,0,0,0-2.79-7c-1.8-2.2-2.6-.82-2.5.8a20.09,20.09,0,0,0,2,6.29C282.68,273.85,285,274.05,284.38,270.53Z"/><path class="cls-10" d="M293.75,315.18a19.58,19.58,0,0,0-1.89-6.83c-1.47-2.25-2.36-1-2.44.49a19.07,19.07,0,0,0,1.24,6.12C291.81,318.12,293.92,318.54,293.75,315.18Z"/><path class="cls-10" d="M272.73,295.7a19.37,19.37,0,0,0-1.89-6.83c-1.47-2.24-2.36-1-2.43.5a18.8,18.8,0,0,0,1.24,6.11C270.79,298.64,272.9,299.06,272.73,295.7Z"/><path class="cls-10" d="M306,79.81a19.81,19.81,0,0,0-6.16,3.85c-1.78,2.1-.33,2.62,1.2,2.25a19.56,19.56,0,0,0,5.64-3C309.44,80.86,309.23,78.66,306,79.81Z"/><path class="cls-10" d="M262.23,101.36a17.23,17.23,0,0,0-5.45,3.4c-1.58,1.86-.3,2.32,1.05,2a17.21,17.21,0,0,0,5-2.65C265.28,102.28,265.1,100.34,262.23,101.36Z"/><path class="cls-10" d="M290,110.49a19.66,19.66,0,0,0-6.33,3.44c-1.89,2-.49,2.57,1,2.3a19.53,19.53,0,0,0,5.78-2.63C293.32,111.74,293.25,109.55,290,110.49Z"/><path class="cls-10" d="M322.07,122.37a19.49,19.49,0,0,0-6.32,3.43c-1.89,2-.49,2.56,1,2.29a19.28,19.28,0,0,0,5.76-2.62C325.42,123.61,325.35,121.43,322.07,122.37Z"/><path class="cls-10" d="M342.73,93.58a21.85,21.85,0,0,0-5.32-5.94c-2.6-1.53-2.89.13-2.21,1.71a21.39,21.39,0,0,0,4.31,5.55C342.25,97.51,344.59,96.88,342.73,93.58Z"/><path class="cls-11" d="M171.41,348.44c-6.41-7-12.19-9.69-14.41-.44-.59,22.41,12.73,31.25,23.76,34.74A335.92,335.92,0,0,1,171.41,348.44Z"/><path class="cls-12" d="M75.92,292.92c-1,5-2.41,12.58-3.5,22C111,332.58,152,323,152,323Z"/><path class="cls-9" d="M110,365c-14,10,0,57,0,57s21.35,3.55,56.92,6.29A2.45,2.45,0,0,0,167,428s-12-17-23-43C135.61,365.16,120.61,357.42,110,365Z"/><path id="_Path_4" data-name="&lt;Path&gt;" class="cls-13" d="M203.51,305.51c-14.63-12.49-18.27-27.61-2.41-55.42C219.44,217.94,282,124,350,96l-3-6c-29-2-119,19-170.78,105C166.89,183.4,149,166.6,149,166.6S221,68,286,34c-2-3-8-6-8-6S162,64,103.21,161.57a30.75,30.75,0,0,0-42.78,36.9c-14-10.93-26.73-21.59-26.74-21.6a7.46,7.46,0,0,0-7.39,2.51S-1.32,255.1,78,303.68c67.36,41.26,106,14.51,106,14.51s-8.2-3.85-12.6-10.06C180.47,312.5,197.11,312.14,203.51,305.51Z"/><path class="cls-14" d="M52.05,191.84c-10.31-8.24-18.35-15-18.36-15a7.46,7.46,0,0,0-7.39,2.51,89.62,89.62,0,0,0-4,19.05A44.94,44.94,0,0,0,52.05,191.84Z"/><path class="cls-15" d="M168.24,142.05c-9.61.08-21.63,2.77-30.59,13.47l11.47,11C149.88,165.46,157,155.85,168.24,142.05Z"/><circle id="_Ellipse_" data-name="&lt;Ellipse&gt;" class="cls-16" cx="155.41" cy="229.43" r="25.25"/><circle id="_Ellipse_2" data-name="&lt;Ellipse&gt;" class="cls-16" cx="89.75" cy="189.22" r="25.25"/><path class="cls-14" d="M385,70s-32.93,8.77-44,20a28.2,28.2,0,0,0,3,9s25-3,43,5C388,96,390.75,82.33,385,70Z"/><path class="cls-14" d="M310,0s-24,14-32.8,28a53.22,53.22,0,0,1,4,7.81S307,28,324,25A45.39,45.39,0,0,0,310,0Z"/><circle class="cls-17" cx="47.12" cy="216.22" r="2.05"/><circle class="cls-17" cx="46.83" cy="232.36" r="2.05"/><circle class="cls-17" cx="61.61" cy="227.02" r="2.05"/><circle class="cls-5" cx="143.71" cy="280.61" r="12.5"/><path class="cls-18" d="M84,272c8,16,0,20,0,20s16,6,31-3c4.85-2.91,3-7,3-7l-19-2Z"/><path class="cls-16" d="M99,280a14.93,14.93,0,0,1-6,6s-11-4-15-9a24.13,24.13,0,0,1,3-8Z"/><path id="_Path_5" data-name="&lt;Path&gt;" class="cls-18" d="M119,280s-23,3-37-14a7.47,7.47,0,0,0-3,3s17,17,37,14l1,2s-10,10-33,7a15.77,15.77,0,0,0-1,4s23,5,38-10Z"/><path class="cls-19" d="M31,284l-1.35-5.4a3.65,3.65,0,0,0-3.57-2.76c-2.39,0-5.75.41-8.08,2.16-4,3-3,8,2,6a19.47,19.47,0,0,1,8.5-1.62Z"/><circle class="cls-14" cx="144.55" cy="223.94" r="7.5"/><path class="cls-20" d="M142.43,207.65l38.11,24.48a25.34,25.34,0,0,0-38.11-24.48Z"/><circle class="cls-14" cx="80.54" cy="183.93" r="7.5"/><path class="cls-21" d="M114.87,192.23A25.31,25.31,0,0,0,77,167.37Z"/><path id="_Path_6" data-name="&lt;Path&gt;" class="cls-22" d="M161.25,178.36c1.89-1.63,3.9-3.32,5.87-4.84a5.47,5.47,0,0,1,7.93,1.37c5,7.68,13.26,22.23,17.84,38.06a3.26,3.26,0,0,1-1.44,3.73c-.64.37-1.29.74-2,1.13A3.34,3.34,0,0,1,185,216.6a269,269,0,0,0-24.15-33.19A3.59,3.59,0,0,1,161.25,178.36Z"/><path id="_Path_7" data-name="&lt;Path&gt;" class="cls-23" d="M97.79,139.54a209.31,209.31,0,0,1,38.62.13,3.67,3.67,0,0,0,3.89-2.73c1.67-6.35,1.12-4.23,2-7.73,1.14-4.75-2.81-5.65-6.57-5.92-6.34-.46-25.23,1-39.39,7.24a3.8,3.8,0,0,0-2.17,4.21,21.94,21.94,0,0,0,.68,2.81A2.83,2.83,0,0,0,97.79,139.54Z"/><path class="cls-24" d="M165.75,328.59c-25.81,13.54-8,31.19-8,31.19s28.77,4.65,48.18,22.21c-.75,3.53-2.05,8.36.55,9.47a20.74,20.74,0,0,0,4.83-4.08c2.41,3.34,5.57,8.54,5.57,8.54s12.07-4.82,13.74-14.1C226,373.65,212.16,342.19,165.75,328.59Z"/><path class="cls-16" d="M230.63,381.81c-2-3.57-5.79-11.6-13.31-20.65a205.38,205.38,0,0,1-15.43,17.45c1.38,1.07,2.74,2.2,4.05,3.38-.75,3.53-2.05,8.36.55,9.47a20.74,20.74,0,0,0,4.83-4.08c2.41,3.34,5.57,8.54,5.57,8.54S229,391.1,230.63,381.81Z"/><path class="cls-25" d="M220.7,379.86l-1.49,1.67c1.71,2.61,4,6.61,5.54,9.54.52-.45,1-.93,1.53-1.43C223.94,385.36,220.7,379.86,220.7,379.86Z"/></g></svg>