<?xml version="1.0" encoding="UTF-8"?>
<svg width="295px" height="301px" viewBox="0 0 295 301" version="1.1" xmlns="http://www.w3.org/2000/svg" xmlns:xlink="http://www.w3.org/1999/xlink">
    <!-- Generator: Sketch 51.2 (57519) - http://www.bohemiancoding.com/sketch -->
    <title>video</title>
    <desc>Created with Sketch.</desc>
    <defs>
        <linearGradient x1="22.4767613%" y1="14.5972978%" x2="106.372071%" y2="114.689916%" id="linearGradient-1">
            <stop stop-color="#58F1FF" offset="0%"></stop>
            <stop stop-color="#53DEFF" offset="30%"></stop>
            <stop stop-color="#47B3FF" offset="100%"></stop>
        </linearGradient>
        <linearGradient x1="-1.49265844e-14%" y1="50.0043634%" x2="100%" y2="50.0043634%" id="linearGradient-2">
            <stop stop-color="#5690FF" offset="0%"></stop>
            <stop stop-color="#387DFF" offset="100%"></stop>
        </linearGradient>
        <linearGradient x1="35.5982626%" y1="12.5486266%" x2="89.740107%" y2="132.966037%" id="linearGradient-3">
            <stop stop-color="#FFFFFF" offset="0%"></stop>
            <stop stop-color="#BED5FF" offset="100%"></stop>
        </linearGradient>
        <linearGradient x1="0.00388732637%" y1="49.9358021%" x2="100.005597%" y2="49.9358021%" id="linearGradient-4">
            <stop stop-color="#FFA330" offset="0%"></stop>
            <stop stop-color="#F07379" offset="100%"></stop>
        </linearGradient>
        <linearGradient x1="0.00388769862%" y1="49.9983205%" x2="100.015173%" y2="49.9983205%" id="linearGradient-5">
            <stop stop-color="#FFA330" offset="0%"></stop>
            <stop stop-color="#F07379" offset="100%"></stop>
        </linearGradient>
        <linearGradient x1="0.00388769862%" y1="49.6617276%" x2="100.015173%" y2="49.6617276%" id="linearGradient-6">
            <stop stop-color="#FFA330" offset="0%"></stop>
            <stop stop-color="#F07379" offset="100%"></stop>
        </linearGradient>
        <linearGradient x1="27.0169663%" y1="11.6015098%" x2="80.5647944%" y2="90.7294591%" id="linearGradient-7">
            <stop stop-color="#9C95FF" offset="0%"></stop>
            <stop stop-color="#766DE8" offset="100%"></stop>
        </linearGradient>
        <linearGradient x1="49.1539446%" y1="-6.45934319%" x2="43.976348%" y2="110.075061%" id="linearGradient-8">
            <stop stop-color="#9C95FF" offset="0%"></stop>
            <stop stop-color="#766DE8" offset="100%"></stop>
        </linearGradient>
        <linearGradient x1="44.9900365%" y1="85.420613%" x2="22.2289053%" y2="19.9686866%" id="linearGradient-9">
            <stop stop-color="#9C95FF" offset="0%"></stop>
            <stop stop-color="#766DE8" offset="100%"></stop>
        </linearGradient>
        <linearGradient x1="50.0066551%" y1="100%" x2="50.0066551%" y2="0%" id="linearGradient-10">
            <stop stop-color="#BED5FF" offset="42%"></stop>
            <stop stop-color="#8FB5FF" offset="100%"></stop>
        </linearGradient>
        <linearGradient x1="0%" y1="50%" x2="99.9930119%" y2="50%" id="linearGradient-11">
            <stop stop-color="#FFFFFF" offset="0%"></stop>
            <stop stop-color="#C6DAFF" offset="100%"></stop>
        </linearGradient>
        <linearGradient x1="50.0012309%" y1="100%" x2="50.0012309%" y2="0%" id="linearGradient-12">
            <stop stop-color="#C6DAFF" offset="0%"></stop>
            <stop stop-color="#FFFFFF" offset="100%"></stop>
        </linearGradient>
        <linearGradient x1="8.07398767%" y1="82.1960719%" x2="91.3660817%" y2="27.467226%" id="linearGradient-13">
            <stop stop-color="#FFA330" offset="0%"></stop>
            <stop stop-color="#F07379" offset="100%"></stop>
        </linearGradient>
        <linearGradient x1="0%" y1="50.0001213%" x2="100%" y2="50.0001213%" id="linearGradient-14">
            <stop stop-color="#58F1FF" offset="0%"></stop>
            <stop stop-color="#42A1FF" offset="100%"></stop>
        </linearGradient>
        <linearGradient x1="-469.504119%" y1="-81.1157674%" x2="132.450331%" y2="70.7962284%" id="linearGradient-15">
            <stop stop-color="#58F17B" offset="0%"></stop>
            <stop stop-color="#16CD6F" offset="100%"></stop>
        </linearGradient>
        <linearGradient x1="85.3556485%" y1="85.3556485%" x2="14.7140865%" y2="14.7140865%" id="linearGradient-16">
            <stop stop-color="#16CD6F" offset="0%"></stop>
            <stop stop-color="#58F17B" offset="100%"></stop>
        </linearGradient>
        <linearGradient x1="85.3556485%" y1="85.3556485%" x2="14.6443515%" y2="14.7140865%" id="linearGradient-17">
            <stop stop-color="#16CD6F" offset="0%"></stop>
            <stop stop-color="#58F17B" offset="100%"></stop>
        </linearGradient>
    </defs>
    <g id="Page-1" stroke="none" stroke-width="1" fill="none" fill-rule="evenodd">
        <g id="General-Homepage-Mobile" transform="translate(-33.000000, -2501.000000)">
            <g id="video" transform="translate(33.000000, 2501.000000)">
                <ellipse id="Oval-4" fill="#F37C6A" fill-rule="nonzero" cx="267.215044" cy="80.7036565" rx="1.11061947" ry="1.11108497"></ellipse>
                <path d="M262.978031,172.02373 C259.790553,190.501073 261.067765,219.800383 248.323407,235.744453 C235.579049,251.688522 224.123009,253.588477 213.927522,259.96055 C203.732035,266.332622 183.357721,284.176646 157.874558,286.726586 C132.391394,289.276526 105.647677,283.537773 94.8191372,278.437893 C83.9905973,273.338013 74.4115044,272.704694 57.2357743,263.143808 C40.0600442,253.582922 34.9400885,242.116525 34.9400885,242.116525 C29.209292,233.833387 33.029823,229.994588 21.5682301,212.806104 C10.1066372,195.617619 3.09307522,169.47379 1.18280973,159.279585 C-0.727455752,149.085381 -0.0888495575,145.896567 5.62528761,143.985501 C11.3394248,142.074435 7.5355531,133.785741 8.17415929,117.219464 C8.81276549,100.653187 17.7699115,79.6259041 17.7699115,79.6259041 C26.6548673,59.8708134 48.3119469,33.7436504 67.425708,19.0884397 C86.539469,4.43322902 87.1836283,12.0774936 87.8111283,15.8996259 C88.4386283,19.7217582 101.821593,6.97761359 124.755885,1.88328902 C147.690177,-3.21103555 177.621372,4.42767359 177.621372,10.1664274 C177.621372,15.9051813 159.15177,17.810692 151.521814,18.4495659 C151.521814,18.4495659 139.421615,19.0884397 140.060221,24.1827643 C140.698827,29.2770889 156.619558,22.2716982 158.529823,26.7327043 C160.440088,31.1937104 159.168429,32.4659027 138.149956,36.9269089 C117.131482,41.387915 97.379115,47.7599873 95.4688496,54.1487258 C93.5585841,60.5374644 101.838252,56.059792 106.297389,54.7875997 C110.756527,53.5154074 120.952013,54.7875997 116.492876,59.8874797 C112.033739,64.9873597 87.8277876,76.4537565 76.3606416,87.9257088 C64.8934956,99.3976611 52.1546903,123.608203 49.6113717,137.630095 C47.0680531,151.651987 53.4152434,182.217934 57.2357743,192.412139 C61.0563053,202.606344 64.2437832,223.000308 73.1620575,231.92232 C82.0803319,240.844333 100.549934,249.144137 112.033739,251.038537 C123.517544,252.932937 129.864735,257.41061 141.331881,257.41061 C152.799027,257.41061 179.531637,249.766345 191.026549,242.772065 C202.52146,235.777785 213.955288,215.37271 217.781372,203.261884 C221.607456,191.151058 224.150774,177.151387 223.512168,168.212708 C222.873562,159.27403 221.601903,144.002167 219.06969,135.719029 C216.537478,127.43589 207.602544,110.864058 196.140951,105.13086 C184.679358,99.3976611 168.114469,96.8477211 146.457389,103.219793 C124.80031,109.591866 108.874027,122.33601 101.866018,133.169089 C94.8580088,144.002167 94.8635619,158.018504 96.7738274,173.312588 C98.6840929,188.606673 103.14323,188.606673 111.422898,200.078625 C119.702566,211.550578 132.441372,219.833716 145.180177,219.194842 C157.918982,218.555968 173.206659,208.361764 177.032743,202.628565 C180.858827,196.895367 186.584071,173.312588 187.222677,166.940516 C187.861283,160.568444 180.853274,156.746312 175.755531,149.718699 C170.657788,142.691087 163.016726,138.885621 154.098451,142.074435 C145.180177,145.263249 131.169712,152.268639 132.441372,157.368519 C133.713031,162.468399 138.810774,172.02373 143.908518,173.934796 C149.006261,175.845862 154.737058,172.02373 154.737058,172.02373 C154.737058,172.02373 149.006261,173.295922 143.908518,170.745982 C138.810774,168.196042 137.539115,161.82397 140.087987,155.451898 C142.636858,149.079825 147.712389,147.807633 159.15177,146.535441 C170.59115,145.263249 173.162235,152.907513 179.531637,161.190651 C185.90104,169.47379 180.80885,178.412468 176.988319,190.501073 C173.167788,202.589677 167.431438,208.983971 152.154867,210.895037 C136.878296,212.806104 126.05531,209.61729 119.669248,203.884091 C113.283186,198.150893 108.202102,184.129001 103.748518,177.118054 C99.2949336,170.107108 101.199646,155.451898 108.190996,136.974555 C115.182345,118.497212 134.945819,111.486266 142.586881,110.864058 C150.227942,110.24185 161.039823,103.836446 182.696903,107.025259 C204.353982,110.214073 215.182522,133.135756 215.821128,142.074435 C216.459735,151.013113 219.641659,164.37391 219.641659,178.395802 C219.641659,192.417694 211.361991,214.078296 203.715376,223.000308 C196.068761,231.92232 177.615819,242.116525 155.958739,249.110805 C134.301659,256.105085 130.481128,251.021871 110.101261,244.666465 C89.7213938,238.311059 72.5178982,221.728116 69.3304204,212.16723 C66.1429425,202.606344 59.7790929,186.678941 55.9585619,173.279256 C52.138031,159.879571 54.6813496,143.968835 62.3279646,132.496882 C69.9745796,121.02493 74.4281637,98.0865808 93.5363717,81.520304 C112.64458,64.9540271 136.850531,67.4984117 155.325686,64.9484717 C173.800841,62.3985317 183.352168,55.393141 201.82177,59.8541471 C220.291372,64.3151533 226.660774,81.520304 247.046195,99.3587731 C267.431615,117.197242 266.159956,153.540832 262.978031,172.02373 Z M224.756062,266.332622 C221.568584,268.882562 210.745597,276.526826 204.353982,280.987833 C197.962367,285.448839 181.41969,291.820911 175.688894,292.459785 C169.958097,293.098659 169.319491,293.098659 168.047832,294.370851 C167.47245,295.002882 167.087432,295.784795 166.937212,296.626353 C166.635997,297.898174 167.184577,299.219799 168.297721,299.904054 C171.890575,302.00956 180.314624,300.320711 190.954358,298.192983 C203.693164,295.643043 221.529712,284.176646 225.350243,280.348959 C229.170774,276.521271 238.089049,267.604814 238.089049,263.127142 C238.089049,258.649469 227.94354,263.782682 224.756062,266.332622 Z M205.014801,34.9991764 C215.204735,36.2769242 219.663872,39.4435163 221.574137,36.9102426 C223.484403,34.3769689 222.212743,29.265978 215.204735,26.0771642 C210.251372,23.8549942 203.098982,19.7050919 200.555664,19.0717734 C199.955929,18.921777 199.250686,18.7717805 198.52323,18.6273395 C194.277292,17.7584282 189.860395,18.4632956 186.095398,20.6106261 C184.357279,21.6217134 182.985664,24.1160992 182.719115,25.4438457 C182.080509,28.6437704 194.819314,33.7436504 205.014801,34.9991764 Z" id="Shape" fill="url(#linearGradient-1)" fill-rule="nonzero"></path>
                <rect id="Rectangle-path" fill="#0052E0" fill-rule="nonzero" x="16.2372566" y="74.6649097" width="225.483518" height="142.102212" rx="16.35"></rect>
                <rect id="Rectangle-path" fill="url(#linearGradient-2)" fill-rule="nonzero" x="119.724779" y="91.0256359" width="105.736527" height="63.6596131"></rect>
                <path d="M257.058429,116.691699 L257.058429,121.336034 C257.058429,121.823874 257.453736,122.219346 257.941372,122.219346 L262.583761,122.219346 C263.053587,122.21821 263.504211,122.032699 263.838761,121.702692 L278.970951,106.558604 C279.136773,106.392919 279.229948,106.168078 279.229948,105.933618 C279.229948,105.699159 279.136773,105.474318 278.970951,105.308633 L273.973164,100.308751 C273.808283,100.141482 273.583261,100.047314 273.34844,100.047314 C273.113619,100.047314 272.888597,100.141482 272.723717,100.308751 L257.585973,115.447283 C257.252182,115.775724 257.062428,116.223332 257.058429,116.691699 Z" id="Shape" fill="#0052E0" fill-rule="nonzero"></path>
                <path d="M284.740619,98.2810207 L280.986726,94.5255535 C280.655273,94.1920664 280.204589,94.0045551 279.734502,94.0045551 C279.264416,94.0045551 278.813731,94.1920664 278.482279,94.5255535 L276.605332,96.4032871 C276.262389,96.7514814 276.262389,97.3106188 276.605332,97.6588131 L281.603119,102.658695 C281.951168,103.001782 282.510071,103.001782 282.858119,102.658695 L284.735066,100.775406 C285.417533,100.08499 285.420006,98.9744715 284.740619,98.2810207 Z" id="Shape" fill="#0052E0" fill-rule="nonzero"></path>
                <path d="M248.695465,229.439046 C247.446584,229.172475 246.144163,229.484395 245.151328,230.287839 C244.158493,231.091284 243.581442,232.300312 243.581062,233.577837 L243.581062,250.799654 C242.029392,249.936187 240.28106,249.488396 238.505531,249.499685 C233.829823,249.499685 230.042611,252.344062 230.042611,255.849535 C230.042611,259.355008 233.829823,262.216052 238.505531,262.216052 C243.181239,262.216052 246.962898,259.37723 246.962898,255.871757 L246.962898,239.661027 L267.687058,244.105367 L267.687058,257.160615 C266.134398,256.300259 264.386409,255.854469 262.611527,255.866201 C257.941372,255.866201 254.154159,258.705024 254.154159,262.210497 C254.154159,265.71597 257.941372,268.560347 262.611527,268.560347 C267.281681,268.560347 271.068894,265.71597 271.068894,262.210497 L271.068894,237.672185 C271.072102,235.679422 269.683878,233.954988 267.737035,233.533394 L248.695465,229.439046 Z" id="Shape" fill="url(#linearGradient-3)" fill-rule="nonzero"></path>
                <path d="M69.6469469,255.549542 L57.0080973,250.155225 C56.1207386,249.779219 55.1189074,249.779219 54.2315487,250.155225 L41.587146,255.549542 C41.2600198,255.687587 41.0473629,256.008225 41.0473629,256.363412 C41.0473629,256.718599 41.2600198,257.039237 41.587146,257.177282 L54.2259956,262.571599 C55.1133543,262.947605 56.1151855,262.947605 57.0025442,262.571599 L69.6413938,257.177282 C69.968995,257.040357 70.1827498,256.720444 70.1839615,256.365255 C70.1851733,256.010066 69.9736062,255.6887 69.6469469,255.549542 Z" id="Shape" fill="url(#linearGradient-4)" fill-rule="nonzero"></path>
                <path d="M54.2259956,266.243735 L44.3359292,262.021612 C44.1141219,261.927451 43.8635993,261.927451 43.641792,262.021612 L41.587146,262.899369 C41.2600198,263.037414 41.0473629,263.358052 41.0473629,263.713239 C41.0473629,264.068426 41.2600198,264.389064 41.587146,264.527109 L54.2259956,269.921426 C55.1133543,270.297432 56.1151855,270.297432 57.0025442,269.921426 L69.6413938,264.527109 C69.96852,264.389064 70.1811769,264.068426 70.1811769,263.713239 C70.1811769,263.358052 69.96852,263.037414 69.6413938,262.899369 L67.5867478,262.021612 C67.3649405,261.927451 67.1144179,261.927451 66.8926106,262.021612 L57.0025442,266.243735 C56.1151855,266.61974 55.1133543,266.61974 54.2259956,266.243735 Z" id="Shape" fill="url(#linearGradient-5)" fill-rule="nonzero"></path>
                <path d="M54.2259956,273.63245 L44.3359292,269.438104 C44.1141219,269.343943 43.8635993,269.343943 43.641792,269.438104 L41.587146,270.315861 C41.2600198,270.453906 41.0473629,270.774544 41.0473629,271.129731 C41.0473629,271.484918 41.2600198,271.805556 41.587146,271.943601 L54.2259956,277.337918 C55.1133543,277.713924 56.1151855,277.713924 57.0025442,277.337918 L69.6413938,271.943601 C69.96852,271.805556 70.1811769,271.484918 70.1811769,271.129731 C70.1811769,270.774544 69.96852,270.453906 69.6413938,270.315861 L67.5923009,269.438104 C67.3704936,269.343943 67.119971,269.343943 66.8981637,269.438104 L57.0080973,273.660227 C56.1153675,274.028948 55.1111917,274.018922 54.2259956,273.63245 Z" id="Shape" fill="url(#linearGradient-6)" fill-rule="nonzero"></path>
                <path d="M67.425708,287.898781 L70.9352655,287.448792 C71.4978243,287.377138 72.0558882,287.611011 72.3994372,288.062394 C72.7429863,288.513778 72.8198854,289.114173 72.6011947,289.637629 L71.2351327,292.904219 C71.0185422,293.42973 70.5369831,293.798758 69.9734112,293.8711 C69.4098393,293.943442 68.8507528,293.707995 68.5085619,293.254211 L66.3595133,290.443166 C66.0125263,289.990893 65.9343632,289.387299 66.1546936,288.861499 C66.3750239,288.335699 66.860067,287.968307 67.425708,287.898781 Z" id="Shape" fill="#6BEB88" fill-rule="nonzero"></path>
                <path d="M246.746327,221.428123 C255.187035,223.02253 263.405619,218.822629 266.892965,212.272783 C273.351217,198.656437 261.545332,192.389917 251.438695,202.134133 C243.442235,209.850618 236.561947,204.97851 233.613252,211.578355 C231.075487,217.272665 238.305619,219.833716 246.746327,221.428123 Z" id="Oval-2-Copy-3" fill="url(#linearGradient-7)" fill-rule="nonzero"></path>
                <path d="M114.738097,221.894779 C111.361814,232.161204 124.733673,243.61649 144.241704,249.671903 C173.867478,258.882797 221.446416,241.416541 219.047478,228.327961 C214.538363,203.734095 176.083164,228.25574 155.125774,225.461361 C134.168385,222.666983 118.108827,211.622798 114.738097,221.894779 Z" id="Oval-2-Copy-3-2" fill="url(#linearGradient-8)" fill-rule="nonzero"></path>
                <path d="M236.673009,185.390082 C232.169447,180.151316 236.856261,170.26266 246.368717,162.101741 C260.80677,149.702033 292.170664,148.740944 294.125354,157.001861 C297.784845,172.518163 269.886084,170.295993 258.729912,176.884727 C247.573739,183.47346 241.182124,190.634403 236.673009,185.390082 Z" id="Oval-2-Copy-3-3" fill="url(#linearGradient-9)" fill-rule="nonzero"></path>
                <path d="M276.360996,68.692828 C273.646797,68.692828 271.446504,66.4916132 271.446504,63.7762771 C271.446504,61.0609409 273.646797,58.8597261 276.360996,58.8597261 C279.075194,58.8597261 281.275487,61.0609409 281.275487,63.7762771 C281.272426,66.490344 279.073925,68.6897665 276.360996,68.692828 Z M276.360996,61.2318925 C275.365507,61.2296444 274.466791,61.8278333 274.084276,62.7472856 C273.701761,63.666738 273.910857,64.7261907 274.61398,65.4311994 C275.317102,66.136208 276.375636,66.3477855 277.295565,65.967189 C278.215494,65.5865926 278.815462,64.6888538 278.815465,63.6929457 C278.815468,62.3359101 277.717459,61.2349558 276.360996,61.2318925 Z" id="Shape" fill="#6BEB88" fill-rule="nonzero"></path>
                <rect id="Rectangle-path" fill="url(#linearGradient-10)" fill-rule="nonzero" x="108.352035" y="214.078296" width="41.7204204" height="32.4992353"></rect>
                <path d="M94.6803097,244.666465 L163.749735,244.666465 C165.12825,244.666465 166.450305,245.214308 167.425063,246.189474 C168.39982,247.16464 168.947434,248.487249 168.947434,249.866343 L89.4826106,249.866343 C89.4826106,246.99453 91.8096998,244.666465 94.6803097,244.666465 Z" id="Shape" fill="url(#linearGradient-11)" fill-rule="nonzero"></path>
                <path d="M234.340708,82.1702887 L234.340708,208.983971 L24.1115487,208.983971 L24.1115487,82.1702887 L234.340708,82.1702887 Z M234.435111,74.5260241 L24.0226991,74.5260241 C19.8517274,74.5260241 16.4704867,77.908682 16.4704867,82.0814019 L16.4704867,209.072858 C16.4704867,213.245578 19.8517274,216.628236 24.0226991,216.628236 L234.407345,216.628236 C236.409806,216.628236 238.33017,215.832048 239.745603,214.41498 C241.161036,212.997912 241.955478,211.076158 241.954004,209.072858 L241.954004,82.0814019 C241.955478,80.0781021 241.161036,78.1563478 239.745603,76.7392797 C238.33017,75.3222116 236.409806,74.5260236 234.407345,74.5260241 L234.435111,74.5260241 Z" id="Shape" fill="url(#linearGradient-12)" fill-rule="nonzero"></path>
                <ellipse id="Oval-4-2" fill="#0052E0" fill-rule="nonzero" cx="83.4075221" cy="265.143761" rx="1.11061947" ry="1.11108497"></ellipse>
                <rect id="Rectangle-path" fill="#4387FF" fill-rule="nonzero" x="38.5218363" y="91.0256359" width="68.7362389" height="9.9997647"></rect>
                <path d="M198.889735,141.702221 C211.600774,137.991197 214.543916,121.074929 207.313783,109.764084 C200.08365,98.4532389 188.80531,90.5534248 176.588496,100.553189 C164.371681,110.552954 157.80792,122.613781 165.038053,133.924626 C172.268186,145.235471 186.184248,145.413245 198.889735,141.702221 Z" id="Oval-2-Copy-2" fill="url(#linearGradient-13)" fill-rule="nonzero"></path>
                <path d="M154.870332,150.157578 C165.271283,153.207506 174.76708,142.841083 174.76708,131.824676 C174.76708,120.808268 170.480088,110.43629 157.657987,111.94181 C144.835885,113.44733 134.979137,118.886091 134.979137,129.858055 C134.979137,140.830019 144.469381,147.10765 154.870332,150.157578 Z" id="Oval-2-Copy-2-2" fill="url(#linearGradient-14)" fill-rule="nonzero"></path>
                <path d="M218.381106,114.663969 L219.041925,116.691699 C219.124705,116.953315 219.062487,117.239229 218.878487,117.442742 C218.694488,117.646255 218.416353,117.736791 218.147876,117.680564 L215.982168,117.208353 C215.709886,117.149703 215.49085,116.947878 215.410077,116.681214 C215.329304,116.41455 215.399512,116.125038 215.593451,115.92505 L217.098341,114.363976 C217.285724,114.169138 217.561838,114.087452 217.825006,114.148998 C218.088174,114.210543 218.299478,114.406219 218.381106,114.663969 Z" id="Shape-Copy-2" fill="#4FDC6F" fill-rule="nonzero"></path>
                <path d="M212.872434,146.107673 C211.645677,146.107673 210.651195,145.112774 210.651195,143.885503 C210.651195,142.658233 211.645677,141.663333 212.872434,141.663333 C214.09919,141.663333 215.093673,142.658233 215.093673,143.885503 C215.093673,145.112774 214.09919,146.107673 212.872434,146.107673 Z M212.872434,142.73553 C212.259055,142.73553 211.761814,143.23298 211.761814,143.846615 C211.761814,144.46025 212.259055,144.9577 212.872434,144.9577 C213.485812,144.9577 213.983053,144.46025 213.983053,143.846615 C213.990539,143.547154 213.876841,143.257357 213.667742,143.042941 C213.458644,142.828525 213.171863,142.707659 212.872434,142.707753 L212.872434,142.73553 Z" id="Shape-2" fill="#F7CF06" fill-rule="nonzero"></path>
                <ellipse id="Oval-4-3" fill="#F37C6A" fill-rule="nonzero" cx="211.761814" cy="103.353124" rx="1.11061947" ry="1.11108497"></ellipse>
                <rect id="Rectangle-path" fill="#1D74FF" fill-rule="nonzero" x="24.1115487" y="174.179235" width="210.195841" height="34.7991811"></rect>
                <polygon id="Shape" fill="#FFFFFF" fill-rule="nonzero" points="184.923695 122.85822 160.262389 137.102329 160.262389 108.608555"></polygon>
                <rect id="Rectangle-path" fill="#1D74FF" fill-rule="nonzero" x="38.5218363" y="108.580778" width="68.7362389" height="9.0164545"></rect>
                <rect id="Rectangle-path" fill="#0052E0" fill-rule="nonzero" x="71.1018584" y="180.979075" width="34.3792257" height="21.210612"></rect>
                <rect id="Rectangle-path" fill="#0052E0" fill-rule="nonzero" x="30.464292" y="180.979075" width="34.3792257" height="21.210612"></rect>
                <rect id="Rectangle-path" fill="#0052E0" fill-rule="nonzero" x="152.388097" y="180.979075" width="34.3792257" height="21.210612"></rect>
                <rect id="Rectangle-path" fill="url(#linearGradient-15)" fill-rule="nonzero" x="193.025664" y="180.979075" width="34.3792257" height="21.210612"></rect>
                <rect id="Rectangle-path" fill="#0052E0" fill-rule="nonzero" x="111.744978" y="180.979075" width="34.3792257" height="21.210612"></rect>
                <ellipse id="Oval" fill="url(#linearGradient-16)" fill-rule="nonzero" cx="47.6511283" cy="191.578825" rx="3.9815708" ry="3.9832396"></ellipse>
                <ellipse id="Oval" fill="url(#linearGradient-17)" fill-rule="nonzero" cx="88.2942478" cy="191.578825" rx="3.9815708" ry="3.9832396"></ellipse>
                <ellipse id="Oval" fill="url(#linearGradient-16)" fill-rule="nonzero" cx="169.574934" cy="191.578825" rx="3.9815708" ry="3.9832396"></ellipse>
                <polyline id="Shape" stroke="#FFFFFF" stroke-width="1.5" stroke-linecap="round" stroke-linejoin="round" points="86.994823 191.467717 87.9332965 192.412139 89.5992257 190.745512"></polyline>
                <polyline id="Shape" stroke="#FFFFFF" stroke-width="1.5" stroke-linecap="round" stroke-linejoin="round" points="168.25885 191.467717 169.202876 192.412139 170.868805 190.745512"></polyline>
                <polyline id="Shape" stroke="#FFFFFF" stroke-width="1.5" stroke-linecap="round" stroke-linejoin="round" points="46.3517035 191.467717 47.2957301 192.412139 48.9616593 190.745512"></polyline>
                <path d="M42.5311726,95.3255347 L43.5473894,96.2866232 C44.1513063,96.8758769 45.1147335,96.8758769 45.7186504,96.2866232 L46.2739602,95.7866349 C46.8778771,95.1973812 47.8413043,95.1973812 48.4452212,95.7866349 L48.9727655,96.2866232 C49.5785656,96.8765509 50.5437795,96.8765509 51.1495796,96.2866232 L51.7048894,95.7866349 C52.3088063,95.1973812 53.2722335,95.1973812 53.8761504,95.7866349 L54.4314602,96.2866232 C55.0353771,96.8758769 55.9988043,96.8758769 56.6027212,96.2866232 L57.158031,95.7866349 C57.7619479,95.1973812 58.7253751,95.1973812 59.329292,95.7866349 L59.8846018,96.2866232 C60.4885187,96.8758769 61.4519459,96.8758769 62.0558628,96.2866232 L62.5834071,95.7866349 C63.1892072,95.1967073 64.1544211,95.1967073 64.7602212,95.7866349 L65.7597788,96.7310572" id="Shape" stroke="#FFFFFF" stroke-linecap="round" stroke-linejoin="round"></path>
                <path d="M101.455088,111.775148 L104.07615,114.397308" id="Shape" stroke="#B9CFFF" stroke-linecap="round" stroke-linejoin="round"></path>
                <path d="M101.455088,114.397308 L104.07615,111.775148" id="Shape" stroke="#B9CFFF" stroke-linecap="round" stroke-linejoin="round"></path>
                <rect id="Rectangle-path" fill="#1D74FF" fill-rule="nonzero" x="38.5218363" y="123.30821" width="68.7362389" height="9.0164545"></rect>
                <path d="M101.455088,126.508134 L104.07615,129.130295" id="Shape" stroke="#B9CFFF" stroke-linecap="round" stroke-linejoin="round"></path>
                <path d="M101.455088,129.130295 L104.07615,126.508134" id="Shape" stroke="#B9CFFF" stroke-linecap="round" stroke-linejoin="round"></path>
                <path d="M205.653407,191.578825 L214.782699,191.578825" id="Shape" stroke="#FFFFFF" stroke-width="2" stroke-linecap="round" stroke-linejoin="round"></path>
                <path d="M210.218053,196.15094 L210.218053,187.012266" id="Shape" stroke="#FFFFFF" stroke-width="2" stroke-linecap="round" stroke-linejoin="round"></path>
                <rect id="Rectangle-path" fill="#1D74FF" fill-rule="nonzero" x="38.5218363" y="137.880089" width="68.7362389" height="9.0164545"></rect>
                <path d="M101.455088,141.641112 L104.07615,144.268827" id="Shape" stroke="#B9CFFF" stroke-linecap="round" stroke-linejoin="round"></path>
                <path d="M101.455088,144.268827 L104.07615,141.641112" id="Shape" stroke="#B9CFFF" stroke-linecap="round" stroke-linejoin="round"></path>
                <rect id="Rectangle-path" fill="#1D74FF" fill-rule="nonzero" x="119.724779" y="154.685249" width="105.736527" height="10.5108638"></rect>
                <polyline id="Shape" stroke="#B9CFFF" stroke-linecap="round" stroke-linejoin="round" points="219.480619 162.035076 221.568584 159.940681 219.475066 157.851841"></polyline>
                <polyline id="Shape" stroke="#B9CFFF" stroke-linecap="round" stroke-linejoin="round" points="125.705465 162.035076 123.611947 159.940681 125.705465 157.851841"></polyline>
                <polyline id="Shape" stroke="#FFFFFF" stroke-linecap="round" stroke-linejoin="round" points="100.999735 95.1310948 102.737854 96.925497 104.531504 95.1922045"></polyline>
            </g>
        </g>
    </g>
</svg>