<?xml version="1.0" encoding="UTF-8"?>
<svg width="289px" height="293px" viewBox="0 0 289 293" version="1.1" xmlns="http://www.w3.org/2000/svg" xmlns:xlink="http://www.w3.org/1999/xlink">
    <!-- Generator: Sketch 51.2 (57519) - http://www.bohemiancoding.com/sketch -->
    <title>website</title>
    <desc>Created with Sketch.</desc>
    <defs>
        <linearGradient x1="40.4607936%" y1="5.86902939%" x2="54.8845874%" y2="91.0116259%" id="linearGradient-1">
            <stop stop-color="#BED5FF" offset="0%"></stop>
            <stop stop-color="#EDF4FF" offset="100%"></stop>
        </linearGradient>
        <linearGradient x1="-0.231311113%" y1="-1.59843606%" x2="101.487751%" y2="100.164827%" id="linearGradient-2">
            <stop stop-color="#EDF4FF" offset="0%"></stop>
            <stop stop-color="#BED5FF" offset="100%"></stop>
        </linearGradient>
        <linearGradient x1="0.328487713%" y1="50.1871294%" x2="99.9974709%" y2="50.1871294%" id="linearGradient-3">
            <stop stop-color="#58F17B" offset="0%"></stop>
            <stop stop-color="#16CD6F" offset="100%"></stop>
        </linearGradient>
        <linearGradient x1="-0.0620674429%" y1="50.0617553%" x2="99.9426893%" y2="50.0617553%" id="linearGradient-4">
            <stop stop-color="#FFA330" offset="0%"></stop>
            <stop stop-color="#F07379" offset="100%"></stop>
        </linearGradient>
        <linearGradient x1="-2.80153008e-15%" y1="50%" x2="100%" y2="50%" id="linearGradient-5">
            <stop stop-color="#58F1FF" offset="0%"></stop>
            <stop stop-color="#47B3FF" offset="100%"></stop>
        </linearGradient>
        <linearGradient x1="-2.80153008e-15%" y1="50%" x2="100%" y2="50%" id="linearGradient-6">
            <stop stop-color="#47B3FF" offset="20%"></stop>
            <stop stop-color="#2367FF" offset="100%"></stop>
        </linearGradient>
        <linearGradient x1="99.4305822%" y1="-0.382595649%" x2="50.1279591%" y2="99.7299325%" id="linearGradient-7">
            <stop stop-color="#47B3FF" offset="20%"></stop>
            <stop stop-color="#2367FF" offset="100%"></stop>
        </linearGradient>
        <linearGradient x1="22.3847842%" y1="23.7147656%" x2="54.3160205%" y2="111.925297%" id="linearGradient-8">
            <stop stop-color="#47B3FF" offset="20%"></stop>
            <stop stop-color="#2367FF" offset="100%"></stop>
        </linearGradient>
        <linearGradient x1="20.3336436%" y1="23.143046%" x2="64.6022768%" y2="137.840494%" id="linearGradient-9">
            <stop stop-color="#41DDFF" offset="0%"></stop>
            <stop stop-color="#359DFF" offset="85%"></stop>
        </linearGradient>
        <linearGradient x1="0%" y1="50.0037641%" x2="100%" y2="50.0037641%" id="linearGradient-10">
            <stop stop-color="#58F1FF" offset="0%"></stop>
            <stop stop-color="#47B3FF" offset="100%"></stop>
        </linearGradient>
        <linearGradient x1="16.3934426%" y1="16.3934426%" x2="104.196721%" y2="104.196721%" id="linearGradient-11">
            <stop stop-color="#EDF4FF" offset="0%"></stop>
            <stop stop-color="#BED5FF" offset="100%"></stop>
        </linearGradient>
        <linearGradient x1="74.0249823%" y1="128.182005%" x2="25.9750177%" y2="-28.1717565%" id="linearGradient-12">
            <stop stop-color="#387DFF" offset="0%"></stop>
            <stop stop-color="#5690FF" offset="100%"></stop>
        </linearGradient>
    </defs>
    <g id="Page-1" stroke="none" stroke-width="1" fill="none" fill-rule="evenodd">
        <g id="General-Homepage-Mobile" transform="translate(-36.000000, -4431.000000)">
            <g id="website" transform="translate(36.000000, 4431.000000)">
                <g id="Group">
                    <path d="M184.620694,275.181259 C169.345442,275.984296 146.83112,262.305537 130.747912,268.746111 C122.814759,271.920278 106.628523,270.373889 76.0725971,248.632204 C45.5166712,226.890519 31.0656432,203.597019 26.2233288,191.508056 C21.3810144,179.419093 20.6869312,156.027926 16.5712351,151.280241 C6.12203023,139.207556 23.0077717,122.311222 22.1998156,114.27 C21.3918594,106.228778 14.9661678,96.5814815 24.612839,79.6742963 C34.2595102,62.7671111 42.2956916,63.581 51.9532079,52.3167778 C61.6107241,41.0525556 72.0545064,28.9852963 99.3894528,15.306537 C126.724399,1.62777778 142.005073,0 162.133485,0 C182.261896,0 195.904967,4.82907407 198.317991,12.8702963 C200.731014,20.9115185 190.249274,27.3737963 182.196825,28.9852963 C174.144376,30.5967963 161.303838,34.6174074 153.262234,44.2701296 C145.22063,53.9228519 136.376493,56.3373889 125.927288,62.777963 C115.478083,69.218537 116.275194,78.8658333 105.018033,86.9124815 C93.7608723,94.9591296 83.327935,103.005778 81.7011776,114.27 C80.0744203,125.534222 80.0744203,138.404519 76.8751308,145.64813 C73.6758413,152.891741 77.6830869,164.953574 84.1142011,174.611722 C90.5453152,184.26987 96.9764293,186.678981 106.628523,197.943204 C116.280617,209.207426 117.885684,213.238889 130.747912,217.254074 C143.610141,221.269259 154.872724,215.626296 166.129885,217.254074 C177.387046,218.881852 190.249274,217.254074 198.290878,210.8135 C206.332482,204.372926 207.135016,192.311093 212.763596,185.067481 C218.392177,177.82387 224.823291,179.43537 225.625825,168.979611 C226.428358,158.523852 211.527261,141.795722 207.93755,131.96937 C201.506435,114.27 177.387046,110.265667 166.129885,113.461537 C154.872724,116.657407 136.376493,128.751796 133.963469,134.383907 C131.550446,140.016019 128.334889,154.497815 142.005073,164.150537 C155.675258,173.803259 168.537486,167.368111 168.537486,167.368111 C168.537486,167.368111 154.872724,168.171148 146.847388,161.736 C138.822051,155.300852 133.979737,148.057241 140.416274,138.404519 C146.85281,128.751796 159.693348,117.487574 170.950509,118.285185 C182.20767,119.082796 196.680389,127.937907 203.919459,141.616667 C211.158529,155.295426 214.368664,164.145111 211.961063,169.777222 C209.553462,175.409333 206.332482,184.259019 203.116925,191.480926 C199.901368,198.702833 195.877855,205.989852 183.823583,209.207426 C171.769311,212.425 153.267657,210.010463 140.405429,207.579648 C127.5432,205.148833 116.280617,199.533 106.633946,187.465741 C96.9872744,175.398481 84.1196236,159.305185 84.1196236,142.430556 C84.1196236,125.555926 91.3586939,109.446352 104.220922,98.9851667 C117.08315,88.5239815 122.342999,82.843037 125.91102,77.281463 C133.144668,66.0172407 145.204363,68.4317778 155.65899,64.4057407 C166.113618,60.3797037 187.836251,48.2907407 213.56613,57.9488889 C239.296009,67.607037 241.709033,77.2597593 251.355704,86.9124815 C261.002375,96.5652037 274.672559,106.223352 278.696073,123.922722 C282.719586,141.622093 273.870026,148.881981 278.696073,157.715389 C283.522119,166.548796 288.342744,185.875944 272.264958,209.207426 C256.187173,232.538907 232.062361,247.823741 225.631247,255.870389 C219.200133,263.917037 199.895946,274.372796 184.620694,275.181259 Z M247.088177,250.873111 C244.111211,253.998444 234.03616,263.352741 228.109341,268.778667 C222.182522,274.204593 206.988608,281.800889 201.788407,282.446574 C196.588206,283.092259 196.013418,283.070556 194.81504,284.616944 C194.252415,285.465148 193.882243,286.426347 193.730535,287.433 C193.432296,289.028222 193.838986,290.748241 194.81504,291.610963 C197.976372,294.367333 205.660089,292.473685 215.333873,290.086278 C226.932653,287.232241 243.482198,273.265907 247.082754,268.539926 C250.683311,263.813944 259.082801,252.804741 259.256322,247.183481 C259.429843,241.562222 250.05972,247.747778 247.088177,250.873111 Z M219.753231,49.1697407 C224.769066,52.9678889 239.420727,56.2668519 245.434307,64.0259259 C251.447887,71.785 255.091823,80.4719074 260.617376,78.5891111 C266.142928,76.7063148 259.635899,58.5131852 254.468233,51.5028889 C249.300567,44.4925926 240.678753,32.8431296 233.293274,29.9782407 C225.907796,27.1133519 217.112461,28.350463 214.021622,30.9223519 C210.930783,33.4942407 214.731973,45.3878704 219.753231,49.1697407 Z M18.1817249,195.528667 C15.7687014,186.678981 13.355678,170.569407 13.355678,166.565074 C13.355678,166.565074 12.5531444,157.715389 8.53505367,157.715389 C4.51696296,157.715389 0.493449735,163.3475 0.493449735,172.197185 C0.493449735,181.04687 0.493449735,191.508056 6.92456387,202.772278 C11.7506107,209.207426 31.0439531,226.103759 34.2649327,227.731537 C37.4859123,229.359315 40.6960469,227.731537 35.8916901,222.099426 C31.0873333,216.467315 20.6055933,204.378352 18.1817249,195.528667 Z M282.329164,213.287722 C277.05847,214.041926 274.8027,223.835722 268.024544,229.109722 C261.246389,234.383722 265.763351,239.663148 274.8027,237.400537 C283.842048,235.137926 287.60528,226.852537 288.359011,223.081519 C289.112742,219.3105 287.60528,212.533519 282.329164,213.287722 Z" id="Shape" fill="url(#linearGradient-1)" fill-rule="nonzero"></path>
                    <rect id="Rectangle-path" fill="#0052E0" fill-rule="nonzero" x="205.069034" y="101.085" width="59.6857279" height="117.851111"></rect>
                    <rect id="Rectangle-path" stroke="#5690FF" stroke-width="2" x="206.712059" y="111.936852" width="47.1976538" height="34.4546296"></rect>
                    <path d="M253.915135,111.936852 L206.712059,146.391481" id="Shape" stroke="#5690FF" stroke-width="2"></path>
                    <path d="M206.712059,111.936852 L253.915135,146.391481" id="Shape" stroke="#5690FF" stroke-width="2"></path>
                    <path d="M217.32394,156.836389 L253.915135,156.836389" id="Shape" stroke="#5690FF" stroke-width="2" stroke-linecap="square"></path>
                    <path d="M217.32394,161.410444 L253.915135,161.410444" id="Shape" stroke="#5690FF" stroke-width="2" stroke-linecap="square"></path>
                    <path d="M217.32394,165.9845 L253.915135,165.9845" id="Shape" stroke="#5690FF" stroke-width="2" stroke-linecap="square"></path>
                    <path d="M217.32394,170.558556 L253.915135,170.558556" id="Shape" stroke="#5690FF" stroke-width="2" stroke-linecap="square"></path>
                    <path d="M217.32394,194.367519 L253.915135,194.367519" id="Shape" stroke="#5690FF" stroke-width="2" stroke-linecap="square"></path>
                    <path d="M217.32394,198.941574 L253.915135,198.941574" id="Shape" stroke="#5690FF" stroke-width="2" stroke-linecap="square"></path>
                    <path d="M217.32394,203.51563 L253.915135,203.51563" id="Shape" stroke="#5690FF" stroke-width="2" stroke-linecap="square"></path>
                    <path d="M217.32394,208.084259 L253.915135,208.084259" id="Shape" stroke="#5690FF" stroke-width="2" stroke-linecap="square"></path>
                    <path d="M26.7059335,78.9200926 L218.408444,78.9200926 C220.344185,78.9200926 222.200642,79.6895448 223.569417,81.0591786 C224.938193,82.4288123 225.707163,84.2864343 225.707163,86.2233889 L225.707163,94.9537037 L19.4126379,94.9537037 L19.4126379,86.2233889 C19.4126368,82.1920077 22.6770806,78.9230877 26.7059335,78.9200926 Z" id="Shape" fill="#FFFFFF" fill-rule="nonzero"></path>
                    <ellipse id="Oval" fill="#4FDC6F" fill-rule="nonzero" cx="28.7231126" cy="86.9396111" rx="2.37506576" ry="2.37655556"></ellipse>
                    <ellipse id="Oval" fill="#F7CF06" fill-rule="nonzero" cx="36.7809841" cy="86.9396111" rx="2.37506576" ry="2.37655556"></ellipse>
                    <ellipse id="Oval" fill="#F37C6A" fill-rule="nonzero" cx="45.2672351" cy="86.9396111" rx="2.37506576" ry="2.37655556"></ellipse>
                    <rect id="Rectangle-path" stroke="#5690FF" stroke-width="2" stroke-linecap="square" x="209.049167" y="178.860222" width="44.8659683" height="7.10796296"></rect>
                    <path d="M19.4126379,94.9537037 L225.707163,94.9537037 L225.707163,228.464037 C225.707163,232.905081 222.109242,236.505259 217.670981,236.505259 L27.4488193,236.505259 C23.0105589,236.505259 19.4126379,232.905081 19.4126379,228.464037 L19.4126379,94.9537037 Z" id="Shape" fill="url(#linearGradient-2)" fill-rule="nonzero"></path>
                    <path d="M213.370919,254.839463 L205.985441,247.449352 C210.412295,241.545143 209.526693,233.221509 203.956777,228.382252 C198.386861,223.542994 190.026476,223.833526 184.805491,229.047777 C179.584506,234.262029 179.278126,242.627086 184.10366,248.209765 C188.929194,253.792444 197.245898,254.69456 203.154883,250.276259 L210.540361,257.671796 C210.915639,258.047533 211.424759,258.258639 211.95564,258.258639 C212.486521,258.258639 212.995641,258.047533 213.370919,257.671796 C213.74642,257.296283 213.957393,256.786844 213.957393,256.25563 C213.957393,255.724416 213.74642,255.214976 213.370919,254.839463 Z M194.787927,249.07713 C190.743161,249.077129 187.096771,246.638802 185.549413,242.899372 C184.002055,239.159941 184.858533,234.856011 187.71939,231.994912 C190.580248,229.133813 194.881943,228.279133 198.61819,229.829489 C202.354436,231.379846 204.789256,235.029846 204.787063,239.077148 C204.778099,244.598384 200.305706,249.071155 194.787927,249.07713 Z" id="Shape" fill="url(#linearGradient-3)" fill-rule="nonzero"></path>
                    <path d="M93.2674225,50.6293148 C94.0229829,49.3176857 95.4620818,48.5544637 96.9710068,48.6651296 C97.7648499,48.7067355 98.4640716,48.1470073 98.5977642,47.3629074 C98.9184923,45.568502 98.9184923,43.7313869 98.5977642,41.9369815 C98.461642,41.1550535 97.7631013,40.5982004 96.9710068,40.6401852 C95.4625543,40.7504259 94.0237601,39.9885626 93.2664127,38.6785463 C92.5090653,37.36853 92.5663196,35.7406848 93.4138307,34.4871852 C93.8540978,33.8106039 93.711184,32.9103855 93.0830567,32.4036296 C91.7038468,31.2604273 90.1419853,30.3579415 88.4630658,29.7340741 C87.709191,29.4452616 86.8588736,29.7701744 86.4892668,30.4882778 C85.8280537,31.846739 84.4502929,32.7087342 82.9402245,32.7087342 C81.430156,32.7087342 80.0523953,31.846739 79.3911822,30.4882778 C79.0215754,29.7701744 78.171258,29.4452616 77.4173832,29.7340741 C75.7378428,30.3566197 74.1757685,31.2592284 72.7973923,32.4036296 C72.1697684,32.9101825 72.0247819,33.8087268 72.4611958,34.4871852 C73.3079208,35.7398625 73.3655618,37.3663278 72.6096407,38.6758733 C71.8537195,39.9854188 70.4169344,40.7481601 68.9094422,40.6401852 C68.1181392,40.6006675 67.4210333,41.1563769 67.2826848,41.9369815 C66.9619567,43.7313869 66.9619567,45.568502 67.2826848,47.3629074 C67.4186192,48.145683 68.1163981,48.7042563 68.9094422,48.6651296 C70.4085867,48.5686604 71.8325204,49.3319702 72.5827924,50.6342553 C73.3330644,51.9365405 73.2796229,53.5520633 72.4449282,54.8018519 C72.0085143,55.4803103 72.1535008,56.3788545 72.7811247,56.8854074 C74.1597762,58.0280572 75.7218584,58.9288358 77.4011156,59.549537 C78.15361,59.8391878 79.0034565,59.5167911 79.3749146,58.8007593 C80.0331308,57.4386684 81.4119335,56.5733009 82.9239569,56.5733009 C84.4359803,56.5733009 85.8147831,57.4386684 86.4729992,58.8007593 C86.8444573,59.5167911 87.6943038,59.8391878 88.4467982,59.549537 C90.1254796,58.9276071 91.6873638,58.0269425 93.0667891,56.8854074 C93.692598,56.3773105 93.8352106,55.4789892 93.3975631,54.8018519 C92.5632523,53.5494132 92.512786,51.9313746 93.2674225,50.6293148 Z M82.9646259,51.0254074 C79.4517517,51.0254074 76.6040045,48.175874 76.6040045,44.6607963 C76.6040045,41.1457186 79.4517517,38.2961852 82.9646259,38.2961852 C86.4775,38.2961852 89.3252472,41.1457186 89.3252472,44.6607963 C89.3195211,46.3525792 88.6408931,47.9724688 87.4392758,49.1626226 C86.2376585,50.3527765 84.6119383,51.0152516 82.9212457,51.0037037 L82.9646259,51.0254074 Z" id="Shape" fill="url(#linearGradient-4)" fill-rule="nonzero"></path>
                    <rect id="Rectangle-path" fill="url(#linearGradient-5)" fill-rule="nonzero" x="19.4126379" y="94.9537037" width="206.294525" height="72.3275926"></rect>
                    <rect id="Rectangle-path" fill="url(#linearGradient-6)" fill-rule="nonzero" x="19.4126379" y="153.445185" width="206.294525" height="13.8361111"></rect>
                    <polygon id="Shape" fill="url(#linearGradient-7)" fill-rule="nonzero" points="225.707163 94.9537037 194.598139 94.9537037 140.953104 167.281296 225.707163 167.281296"></polygon>
                    <path d="M108.038379,167.281296 L211.814655,167.281296 L165.663548,105.062204 C164.316555,103.244004 162.188396,102.171808 159.926517,102.171808 C157.664638,102.171808 155.536479,103.244004 154.189486,105.062204 L108.038379,167.281296 Z" id="Shape" fill="url(#linearGradient-8)" fill-rule="nonzero"></path>
                    <path d="M146.841965,167.281296 L222.578366,167.281296 L189.983571,123.331296 C188.743508,121.662986 186.788032,120.67974 184.710166,120.67974 C182.632299,120.67974 180.676823,121.662986 179.43676,123.331296 L146.841965,167.281296 Z" id="Shape" fill="url(#linearGradient-9)" fill-rule="nonzero"></path>
                    <path d="M19.4126379,167.281296 L84.2660317,167.281296 L48.9220166,119.630815 C47.5801445,117.819446 45.4600211,116.75127 43.2066757,116.75127 C40.9533304,116.75127 38.833207,117.819446 37.4913348,119.630815 L19.4126379,144.004074 L19.4126379,167.281296 Z" id="Shape" fill="url(#linearGradient-10)" fill-rule="nonzero"></path>
                    <ellipse id="Oval" fill="url(#linearGradient-11)" fill-rule="nonzero" cx="68.0147256" cy="114.785463" rx="8.26934996" ry="8.27453704"></ellipse>
                    <rect id="Rectangle-path" fill="url(#linearGradient-12)" fill-rule="nonzero" x="35.6802116" y="183.559074" width="99.4111429" height="52.9461852"></rect>
                    <path d="M135.020862,192.256833 L122.435182,209.044648 C122.022968,209.590023 121.361685,209.887953 120.680358,209.835257 C119.99903,209.782561 119.391356,209.386486 119.067794,208.784204 L115.81428,202.690889 C114.571524,200.374751 112.305872,198.784482 109.706369,198.403724 C107.106867,198.022966 104.480753,198.896722 102.6267,200.759259 L84.7594815,218.805889 C81.4353833,222.16044 76.2708969,222.85541 72.1792245,220.498778 L67.1416992,217.57963 C62.7628394,215.038074 57.2407979,215.642735 53.5148949,219.071759 L35.6802116,235.39837 L35.6802116,236.483556 L36.873167,236.483556 L54.6210899,220.292593 C57.820978,217.348538 62.5627272,216.829652 66.322898,219.012074 L71.3604233,221.92037 C76.0957604,224.647712 82.0726381,223.843613 85.9199017,219.961611 L103.814233,201.914981 C105.302235,200.411539 107.415859,199.705401 109.508063,200.012735 C111.600267,200.32007 113.421886,201.604277 114.415268,203.472222 L117.668783,209.560111 C118.254343,210.659546 119.360354,211.38373 120.601635,211.480457 C121.842915,211.577184 123.047636,211.033063 123.796236,210.037593 L135.129312,194.915537 L135.129312,192.311093 L135.020862,192.256833 Z" id="Shape" fill="#B9CFFF" fill-rule="nonzero"></path>
                    <rect id="Rectangle-path" fill="#0052E0" fill-rule="nonzero" x="145.003729" y="190.406593" width="67.1200091" height="4.54692593"></rect>
                    <rect id="Rectangle-path" fill="#5690FF" fill-rule="nonzero" x="145.003729" y="205.344167" width="67.1200091" height="2.55018519"></rect>
                    <rect id="Rectangle-path" fill="#5690FF" fill-rule="nonzero" x="145.003729" y="211.583981" width="67.1200091" height="2.55018519"></rect>
                    <rect id="Rectangle-path" fill="#5690FF" fill-rule="nonzero" x="145.003729" y="217.823796" width="26.0010053" height="2.55018519"></rect>
                    <path d="M122.868984,47.9055 C120.924818,47.9076945 119.170969,46.7372213 118.425955,44.9403384 C117.680942,43.1434555 118.091638,41.0744047 119.466371,39.6988085 C120.841105,38.3232123 122.908859,37.912259 124.704616,38.6577399 C126.500372,39.4032208 127.670111,41.15817 127.667918,43.1035556 C127.667918,45.7555962 125.519362,47.9055 122.868984,47.9055 Z M122.868984,40.6184815 C121.895926,40.6140881 121.016338,41.1975212 120.641425,42.0960278 C120.266512,42.9945343 120.470342,44.0306043 121.157626,44.7198783 C121.844909,45.4091524 122.879866,45.6154567 123.778656,45.2423447 C124.677446,44.8692328 125.262504,43.9904169 125.260317,43.0167407 C125.260321,41.6943348 124.190558,40.6214734 122.868984,40.6184815 Z" id="Shape" fill="#FFFFFF" fill-rule="nonzero"></path>
                    <ellipse id="Oval-4" fill="#0052E0" fill-rule="nonzero" cx="147.687879" cy="25.7297407" rx="1.08450491" ry="1.08518519"></ellipse>
                </g>
            </g>
        </g>
    </g>
</svg>